<svg xmlns="http://www.w3.org/2000/svg" width="24" height="24" version="1"><path style="marker:none" color="#bebebe" fill="none" overflow="visible" d="M25.687 27.125h-27.25V-.125h27.25z"/><path d="M4.026 14.342c-2.047.49-3.394 1.87-3.726 4.152-.091.958-.477 2.29.426 2.927 1.206.72 2.681.602 3.992.372.956-.252 1.365-.345 2.129-1.064 0 0-.089-1.823.319-2.82 3.289-1.382 6.49-1.28 9.687 0 .407.997.319 2.82.319 2.82.764.72 1.173.812 2.129 1.064 1.31.23 2.785.349 3.992-.372.902-.637.516-1.969.425-2.927-.33-2.281-1.678-3.662-3.725-4.152-5.344-1.006-10.69-1.233-15.967 0z" fill="#545454"/><path style="text-indent:0;text-align:start;line-height:normal;text-transform:none;block-progression:tb;marker:none;-inkscape-font-specification:Bitstream Vera Sans" d="M6.953 8.39h1.703c.438 0 .9-.22 1.224-.532l2.183-2.182 2.182 2.182c.323.312.786.533 1.224.533h1.703V6.687c0-.527-.154-.94-.48-1.277L12.063.886 7.432 5.41c-.325.337-.479.75-.479 1.277v1.704z" font-weight="400" color="#bebebe" fill="#1aac36" overflow="visible" font-family="Bitstream Vera Sans"/></svg>