<svg xmlns="http://www.w3.org/2000/svg" width="24" height="24" version="1"><g fill="#ff7105" stroke="#903e00"><path d="M7.353 11.16a3.647 3.86 0 1 1-7.295 0 3.647 3.86 0 1 1 7.295 0z" fill="#2d2d2d" fill-opacity=".52" stroke="none"/><path d="M-17.173 8.848a2.273 2.273 0 1 1-4.545 0 2.273 2.273 0 1 1 4.545 0z" transform="matrix(1.0663 0 0 1.12831 24.44 1.177)" stroke-linecap="round" stroke-linejoin="round"/><path d="M15.679 11.277a3.647 3.86 0 1 1-7.295 0 3.647 3.86 0 1 1 7.295 0z" fill="#2d2d2d" fill-opacity=".52" stroke="none"/><path d="M-17.173 8.848a2.273 2.273 0 1 1-4.545 0 2.273 2.273 0 1 1 4.545 0z" transform="matrix(1.0663 0 0 1.12831 32.766 1.294)" stroke-linecap="round" stroke-linejoin="round"/><path d="M24.004 11.277a3.647 3.86 0 1 1-7.294 0 3.647 3.86 0 1 1 7.294 0z" fill="#2d2d2d" fill-opacity=".52" stroke="none"/><path d="M-17.173 8.848a2.273 2.273 0 1 1-4.545 0 2.273 2.273 0 1 1 4.545 0z" transform="matrix(1.0663 0 0 1.12831 41.092 1.294)" stroke-linecap="round" stroke-linejoin="round"/></g></svg>