<svg xmlns="http://www.w3.org/2000/svg" width="24" height="24" version="1"><path style="marker:none" color="#bebebe" fill="none" overflow="visible" d="M25.687 27.125h-27.25V-.125h27.25z"/><path style="marker:none" color="#bebebe" fill="none" overflow="visible" d="M-1.68-4.353h27.358v27.358H-1.68z"/><path style="marker:none" color="#bebebe" fill="none" overflow="visible" d="M-1.68-18.074h27.402V9.328H-1.68z"/><path style="marker:none" color="#bebebe" fill="none" overflow="visible" d="M24.72 3.784l-6.756 25.214-25.215-6.756L-.495-2.972z"/><path d="M16.372 22.323c.258-1.234-.516-2.39-1.159-3.378-.751-.99-1.586-2.017-2.738-2.548-.361-.097-.657.304-.99.425-.866.563-2.086 1.055-2.997.305-1.141-1.018-1.68-2.507-2.503-3.765-.577-.996-1.378-2.286-.596-3.39.588-.815 1.569-1.125 2.33-1.68.186-1-.19-2.028-.473-2.982-.48-1.254-1.124-2.592-2.308-3.318-.964-.498-1.802.43-2.519.95C.77 4.282.013 6.47.194 8.554.46 11.903 2.06 14.972 3.82 17.77c1.612 2.42 3.611 4.854 6.434 5.865 1.986.707 4.276.211 5.942-1.019l.105-.14.071-.153z" fill="#545454"/><g color="#000" fill="#545454" opacity=".5"><path d="M22.025 6.045c-1.815-3.076-4.43-5.007-7.342-5.981l-1.545.912.955 1.618c2.362.844 4.263 2.228 5.747 4.741 1.484 2.513 1.729 4.874 1.376 7.322l.955 1.618 1.51-.892c.543-2.738.16-6.263-1.656-9.338z" style="marker:none" overflow="visible"/><path d="M18.747 7.98c-1.398-2.367-3.4-3.916-5.411-4.173l-1.093.645 1.29 2.186c1.172.47 2.228 1.276 3.029 2.633.8 1.356 1.002 2.679.843 3.923l1.29 2.186 1.093-.646c.694-1.876.331-4.43-1.04-6.754z" style="marker:none" overflow="visible"/><path d="M15.469 9.916c-.811-1.374-1.77-2.22-3.028-2.633l-1.093.645 1.935 3.278.242.41 1.694 2.868 1.093-.645c.194-1.348-.032-2.55-.843-3.923z" style="text-indent:0;text-align:start;line-height:normal;text-transform:none;block-progression:tb;marker:none;-inkscape-font-specification:Sans" font-weight="400" overflow="visible" font-family="Sans"/></g></svg>