<svg xmlns="http://www.w3.org/2000/svg" width="24" height="24" version="1"><path style="marker:none" color="#bebebe" fill="none" overflow="visible" d="M25.687 27.125h-27.25V-.125h27.25z"/><path style="marker:none" color="#bebebe" fill="none" overflow="visible" d="M-1.68-4.353h27.358v27.358H-1.68z"/><path style="marker:none" color="#bebebe" fill="none" overflow="visible" d="M-1.68-18.074h27.402V9.328H-1.68z"/><path style="marker:none" color="#bebebe" fill="none" overflow="visible" d="M24.72 3.784l-6.756 25.214-25.215-6.756L-.495-2.972z"/><path d="M3.434.052H7.85v4.416H3.434zm6.474 4.421h4.417V.056H9.908zm6.462-.005h4.416V.052h-4.417zm0 6.468h4.416V6.519h-4.417zm-6.39-.08h4.416V6.439H9.98zm-6.624.158h4.416V6.597H3.356zm0 6.468h4.416v-4.417H3.356zm6.546 0h4.416v-4.417H9.902zm6.468-.081h4.416v-4.416h-4.417zm-6.39 6.546h4.416v-4.416H9.98z" fill="#545454"/></svg>