<svg xmlns="http://www.w3.org/2000/svg" width="24" height="24" version="1"><path style="marker:none" color="#bebebe" fill="none" overflow="visible" d="M25.687 27.125h-27.25V-.125h27.25z"/><path style="marker:none" color="#bebebe" fill="none" overflow="visible" d="M-1.68-4.353h27.358v27.358H-1.68z"/><path d="M4.037 1.668C1.982 2.16.63 3.546.297 5.836c-.092.962-.479 2.3.427 2.939 1.211.723 2.692.604 4.008.374.96-.254 1.37-.346 2.137-1.069 0 0-.088-1.83.32-2.832 3.302-1.386 6.515-1.283 9.726 0 .409 1.002.32 2.832.32 2.832.767.723 1.178.815 2.138 1.069 1.315.23 2.796.35 4.007-.374.906-.64.52-1.977.428-2.94-.333-2.289-1.685-3.675-3.74-4.167-5.366-1.01-10.732-1.238-16.03 0z" fill="#545454"/><path style="text-indent:0;text-align:start;line-height:normal;text-transform:none;block-progression:tb;marker:none;-inkscape-font-specification:Bitstream Vera Sans" d="M17.128 14.456h-1.71c-.439 0-.903.222-1.229.534L12 17.18l-2.191-2.19c-.325-.313-.79-.534-1.23-.534H6.87v1.71c0 .529.154.944.481 1.282L12 21.99l4.648-4.542c.327-.338.481-.753.481-1.282v-1.71z" font-weight="400" color="#bebebe" fill="#de2c2c" fill-opacity=".984" overflow="visible" font-family="Bitstream Vera Sans"/></svg>