<svg xmlns="http://www.w3.org/2000/svg" width="24" height="24" version="1"><path style="marker:none" color="#bebebe" fill="none" overflow="visible" d="M25.687 27.125h-27.25V-.125h27.25z"/><path style="marker:none" color="#bebebe" fill="none" overflow="visible" d="M-1.68-4.353h27.358v27.358H-1.68z"/><path style="marker:none" color="#bebebe" fill="none" overflow="visible" d="M-1.68-18.074h27.402V9.328H-1.68z"/><path d="M16.03 21.424c.255-1.22-.51-2.363-1.146-3.34-.743-.979-1.569-1.994-2.708-2.519-.357-.097-.649.3-.978.42-.857.557-2.063 1.043-2.964.302-1.128-1.007-1.66-2.48-2.474-3.723-.57-.984-1.363-2.26-.59-3.351.582-.807 1.552-1.113 2.304-1.662.184-.989-.188-2.004-.467-2.948-.475-1.24-1.112-2.563-2.283-3.28-.953-.493-1.781.424-2.49.939C.604 3.586-.145 5.75.034 7.81c.263 3.311 1.845 6.346 3.585 9.112 1.594 2.393 3.57 4.8 6.361 5.799 1.964.699 4.228.21 5.876-1.007l.103-.139.07-.151z" fill="#545454"/><g color="#000"><path d="M17.345 3.06v4.896h4.897m.612-5.509l-5.509 5.509" style="marker:none" fill="none" stroke="#1aac36" stroke-width="2.448" stroke-linecap="round" stroke-linejoin="round" overflow="visible"/><path style="marker:none" fill="#1aac36" overflow="visible" d="M16.121 7.955h1.224V9.18h-1.224zm0-6.12h1.224V3.06h-1.224zm6.121 6.12h1.224V9.18h-1.224z"/></g></svg>