<svg xmlns="http://www.w3.org/2000/svg" width="24" height="24" version="1"><path style="marker:none" color="#bebebe" fill="none" overflow="visible" d="M25.687 27.125h-27.25V-.125h27.25z"/><path style="marker:none" color="#bebebe" fill="none" overflow="visible" d="M-1.68-4.353h27.358v27.358H-1.68z"/><path style="marker:none" color="#bebebe" fill="none" overflow="visible" d="M-1.68-18.074h27.402V9.328H-1.68z"/><path d="M4.002 16.32C1.943 16.815.59 18.203.256 20.496c-.092.964-.48 2.304.428 2.944 1.213.725 2.696.606 4.014.375.961-.255 1.373-.347 2.14-1.07 0 0-.088-1.834.322-2.837 3.307-1.389 6.525-1.286 9.74 0 .41 1.003.322 2.836.322 2.836.767.724 1.179.816 2.14 1.07 1.318.232 2.802.35 4.014-.374.908-.64.52-1.98.428-2.944-.333-2.293-1.687-3.681-3.746-4.174-5.374-1.012-10.749-1.24-16.056 0z" fill="#545454"/><path d="M13.69.014v1.338a1.715 1.715 0 0 0 1.765 2.088h1.017l-4.388 4.388-4.068-3.907a1.722 1.722 0 0 0-1.23-.481H5.125v1.284a1.722 1.722 0 0 0 0 .16 1.722 1.722 0 0 0 .482 1.5l5.298 5.084 1.178 1.177 1.23-1.177 5.513-5.566v.963a1.713 1.713 0 0 0 1.713 1.713h1.712V7.133a1.713 1.713 0 0 0 0-.268V.014h-6.797a1.713 1.713 0 0 0-.053 0h-1.713z" style="text-indent:0;text-align:start;line-height:normal;text-transform:none;block-progression:tb;marker:none;-inkscape-font-specification:Sans" font-size="xx-small" font-weight="400" color="#bebebe" fill="#de2c2c" fill-opacity=".984" overflow="visible" font-family="Sans"/></svg>