<svg xmlns="http://www.w3.org/2000/svg" width="24" height="24" version="1"><path style="marker:none" color="#bebebe" fill="none" overflow="visible" d="M25.687 27.125h-27.25V-.125h27.25z"/><path style="marker:none" color="#bebebe" fill="none" overflow="visible" d="M-1.68-4.353h27.358v27.358H-1.68z"/><path style="marker:none" color="#bebebe" fill="none" overflow="visible" d="M-1.68-18.074h27.402V9.328H-1.68z"/><path d="M4.002 16.32C1.943 16.815.59 18.203.256 20.496c-.092.964-.48 2.304.428 2.944 1.213.725 2.696.606 4.014.375.961-.255 1.373-.347 2.14-1.07 0 0-.088-1.834.322-2.837 3.307-1.389 6.525-1.286 9.74 0 .41 1.003.322 2.836.322 2.836.767.724 1.179.816 2.14 1.07 1.318.232 2.802.35 4.014-.374.908-.64.52-1.98.428-2.944-.333-2.293-1.687-3.681-3.746-4.174-5.374-1.012-10.749-1.24-16.056 0z" fill="#545454"/><path d="M12.257-.016C8.705.019 5.742 1.31 3.454 3.334l.018 1.785L5.34 5.1c1.901-1.615 4.038-2.564 6.94-2.592 2.904-.028 5.059.934 6.992 2.456l1.868-.018-.017-1.744C19.036 1.372 15.81-.05 12.257-.016z" style="marker:none" color="#000" fill="#1aac36" overflow="visible"/><path d="M12.294 3.77c-2.734.027-5.064.982-6.286 2.586l.013 1.262 2.524-.024c.988-.776 2.208-1.284 3.774-1.3 1.567-.014 2.806.47 3.8 1.225l2.523-.024-.013-1.262c-1.27-1.531-3.65-2.49-6.335-2.463z" style="marker:none" color="#000" fill="#1aac36" overflow="visible"/><path d="M12.331 7.557c-1.587.016-2.792.42-3.774 1.299l.013 1.262 3.786-.037.474-.005 3.313-.033-.013-1.262c-1.065-.838-2.212-1.24-3.799-1.225z" style="text-indent:0;text-align:start;line-height:normal;text-transform:none;block-progression:tb;marker:none;-inkscape-font-specification:Sans" font-weight="400" color="#000" fill="#1aac36" overflow="visible" font-family="Sans"/></svg>