<svg xmlns="http://www.w3.org/2000/svg" width="24" height="24" version="1"><path style="marker:none" color="#bebebe" fill="none" overflow="visible" d="M25.687 27.125h-27.25V-.125h27.25z"/><path style="marker:none" color="#bebebe" fill="none" overflow="visible" d="M-1.68-4.353h27.358v27.358H-1.68z"/><path style="marker:none" color="#bebebe" fill="none" overflow="visible" d="M-1.68-18.074h27.402V9.328H-1.68z"/><path style="marker:none" color="#bebebe" fill="none" overflow="visible" d="M24.72 3.784l-6.756 25.214-25.215-6.756L-.495-2.972z"/><path style="marker:none" color="#bebebe" fill="none" overflow="visible" d="M-1.875 2.25H26v27.875H-1.875z"/><path style="marker:none" opacity=".515" color="#bebebe" fill="none" overflow="visible" d="M.437 24.063V.188h23.875v23.875z"/><path style="marker:none" color="#bebebe" fill="none" overflow="visible" d="M4.147 7.854h9.069v9.069H4.147z"/><path style="marker:none" color="#bebebe" fill="none" overflow="visible" d="M.063-.188h24v24h-24z"/><rect style="marker:none" y="-.125" x="-.875" ry=".151" rx=".144" height="16" width="16" color="#bebebe" fill="none" overflow="visible"/><path style="marker:none" color="#bebebe" fill="none" overflow="visible" d="M3.313 1.125h16v16h-16z"/><path fill="none" d="M-.563-.687h25.125v25.125H-.563z"/><path style="marker:none" color="#bebebe" fill="none" overflow="visible" d="M-1.187-.25h25.312v25.313H-1.187z"/><path style="marker:none" color="#bebebe" fill="none" overflow="visible" d="M-1.562 0h25.625v25.625H-1.562z"/><path style="marker:none" d="M8.208-.01a4.7 4.7 0 0 0-1.856.402c-1.726.735-2.96 2.434-2.96 4.415v4.816h3.21V5.208c.013.008.037-.008.05 0v-.401c0-.459.169-.868.452-1.154.285-.27.66-.452 1.104-.452h3.21c.228 0 .412.022.603.1.014.005.035-.006.05 0 .176.079.37.218.502.352.283.286.451.695.451 1.154v2.408a6.968 6.968 0 0 1 3.161-1.054V4.807h.05c0-1.334-.565-2.536-1.455-3.412-.207-.21-.41-.433-.652-.602-.013-.008-.038.008-.05 0-.254-.174-.519-.279-.803-.401a4.714 4.714 0 0 0-1.856-.402H8.208zM3.14 14.44c-.452.075-1.355.4-1.355 1.605v8.027H17.84V20.21c-.34.05-.7.1-1.054.1-3.498 0-6.39-2.538-6.974-5.87h-6.42s-.1-.025-.251 0z" color="#bebebe" fill="#545454" overflow="visible"/><path class="error" d="M16.878 7.592a5.62 5.62 0 1 0 0 11.238 5.62 5.62 0 0 0 0-11.238zm-4.014 4.766h8.027v1.656h-8.027v-1.656z" style="marker:none" color="#bebebe" fill="#de2c2c" fill-opacity=".984" overflow="visible"/><path fill="none" d="M-.75-.812h25.688v25.688H-.75z"/></svg>