<?xml version="1.0" encoding="UTF-8" standalone="no"?>
<!-- Created with Inkscape (http://www.inkscape.org/) -->

<svg
   xmlns:dc="http://purl.org/dc/elements/1.1/"
   xmlns:cc="http://creativecommons.org/ns#"
   xmlns:rdf="http://www.w3.org/1999/02/22-rdf-syntax-ns#"
   xmlns:svg="http://www.w3.org/2000/svg"
   xmlns="http://www.w3.org/2000/svg"
   xmlns:sodipodi="http://sodipodi.sourceforge.net/DTD/sodipodi-0.dtd"
   xmlns:inkscape="http://www.inkscape.org/namespaces/inkscape"
   width="47.946362mm"
   height="75.534912mm"
   viewBox="0 0 169.88868 267.64339"
   id="svg5372"
   version="1.1"
   inkscape:version="0.91 r13725"
   sodipodi:docname="lock.svg"
   inkscape:export-filename="/home/lepagee/dev/ring-kde/src/icons/lock.png"
   inkscape:export-xdpi="8.1854858"
   inkscape:export-ydpi="8.1854858">
  <defs
     id="defs5374" />
  <sodipodi:namedview
     id="base"
     pagecolor="#ffffff"
     bordercolor="#666666"
     borderopacity="1.0"
     inkscape:pageopacity="0.0"
     inkscape:pageshadow="2"
     inkscape:zoom="2.1455226"
     inkscape:cx="50.63693"
     inkscape:cy="194.37014"
     inkscape:document-units="px"
     inkscape:current-layer="layer1"
     showgrid="false"
     inkscape:window-width="1918"
     inkscape:window-height="1036"
     inkscape:window-x="0"
     inkscape:window-y="14"
     inkscape:window-maximized="1"
     fit-margin-top="0"
     fit-margin-left="0"
     fit-margin-right="0"
     fit-margin-bottom="0" />
  <metadata
     id="metadata5377">
    <rdf:RDF>
      <cc:Work
         rdf:about="">
        <dc:format>image/svg+xml</dc:format>
        <dc:type
           rdf:resource="http://purl.org/dc/dcmitype/StillImage" />
        <dc:title></dc:title>
      </cc:Work>
    </rdf:RDF>
  </metadata>
  <g
     inkscape:label="Layer 1"
     inkscape:groupmode="layer"
     id="layer1"
     transform="translate(-264.89648,-239.50506)">
    <g
       id="g5960">
      <path
         inkscape:connector-curvature="0"
         id="rect5939"
         d="m 298.07308,344.10418 c -9.75785,0 -17.6135,7.85564 -17.6135,17.6135 l 0,103.53547 c 0,9.75784 7.85565,17.6135 17.6135,17.6135 l 103.53548,0 c 9.75784,0 17.6135,-7.85566 17.6135,-17.6135 l 0,-103.53547 c 0,-9.75786 -7.85566,-17.6135 -17.6135,-17.6135 l -103.53548,0 z m 51.76855,42.67614 a 8.2996249,17.014232 0 0 1 8.29965,17.01494 8.2996249,17.014232 0 0 1 -0.28404,4.33758 18.259176,21.994007 0 0 1 10.24298,19.73174 18.259176,21.994007 0 0 1 -18.25859,21.99441 18.259176,21.994007 0 0 1 -18.25861,-21.99441 18.259176,21.994007 0 0 1 10.23656,-19.74137 8.2996249,17.014232 0 0 1 -0.27762,-4.32795 8.2996249,17.014232 0 0 1 8.29967,-17.01494 z"
         style="stroke:#000000;stroke-width:0.821621;stroke-opacity:1" />
      <path
         sodipodi:nodetypes="cccccc"
         inkscape:connector-curvature="0"
         id="path5941"
         d="m 307.58663,367.83929 0,-81.89863 c 0.15865,-8.65196 5.69742,-14.34841 14.25212,-14.34841 l 54.36255,0 c 10.43632,0.078 15.89492,6.76407 15.89492,16.8383 l 0,79.40874"
         style="fill:none;fill-rule:evenodd;stroke:#000000;stroke-width:16.43241882;stroke-linecap:round;stroke-linejoin:round;stroke-miterlimit:4;stroke-dasharray:none;stroke-opacity:1" />
    </g>
  </g>
</svg>
