<svg xmlns="http://www.w3.org/2000/svg" width="24" height="24" version="1"><defs><clipPath id="a"><path style="marker:none" color="#bebebe" fill="none" stroke="#fff" stroke-width="2" stroke-linecap="round" stroke-linejoin="round" overflow="visible" d="M21 281h14v11H21z"/></clipPath></defs><path style="marker:none" color="#bebebe" fill="none" overflow="visible" d="M25.687 27.125h-27.25V-.125h27.25z"/><path style="marker:none" color="#bebebe" fill="none" overflow="visible" d="M-1.68-4.353h27.358v27.358H-1.68z"/><path style="marker:none" color="#bebebe" fill="none" overflow="visible" d="M-1.68-18.074h27.402V9.328H-1.68z"/><path style="marker:none" color="#bebebe" fill="none" overflow="visible" d="M24.72 3.784l-6.756 25.214-25.215-6.756L-.495-2.972z"/><path style="marker:none" color="#bebebe" fill="none" overflow="visible" d="M-1.875 2.25H26v27.875H-1.875z"/><path style="marker:none" opacity=".515" color="#bebebe" fill="none" overflow="visible" d="M-.032 24.117V-.288h24.404v24.405z"/><path fill="none" d="M-1.054-1.182h25.682V24.5H-1.054z"/><path style="marker:none" color="#bebebe" fill="none" overflow="visible" d="M-2.688-3.438H26.5V25.75H-2.688z"/><path style="marker:none" color="#bebebe" fill="none" overflow="visible" d="M-1.438-1.5h25.426v25.426H-1.438z"/><rect ry="3.973" rx="3.973" y=".131" x="3.33" height="15.912" width="7.946" style="marker:none" color="#bebebe" fill="#545454" overflow="visible"/><rect transform="matrix(1.57956 0 0 1.58914 -36.865 -439.225)" clip-path="url(#a)" style="marker:none" width="8.063" height="13.869" x="23.938" y="274.131" rx="4.031" ry="4.031" color="#bebebe" fill="none" stroke="#545454" stroke-width="1.003" overflow="visible"/><path d="M1.74 7.303a.795.795 0 1 1-1.588 0 .795.795 0 1 1 1.589 0zm12.714 0a.795.795 0 1 1-1.59 0 .795.795 0 1 1 1.59 0z" style="marker:none" color="#bebebe" fill="#545454" overflow="visible"/><path d="M1.741 22.4h11.124" style="marker:none" color="#bebebe" fill="none" stroke="#545454" stroke-width="3.178" stroke-linecap="round" overflow="visible"/><path style="marker:none" color="#bebebe" fill="#545454" overflow="visible" d="M.152 22.4h14.303v1.589H.152z"/><path style="marker:none" color="#bebebe" fill="#545454" overflow="visible" d="M4.919 17.632h4.767v6.357H4.919z"/><path style="marker:none" d="M21.606 3.33a2.384 2.384 0 1 1-4.768 0 2.384 2.384 0 1 1 4.768 0zm0 7.946a2.384 2.384 0 1 1-4.768 0 2.384 2.384 0 1 1 4.768 0z" opacity=".5" color="#000" fill="none" stroke="#545454" stroke-width="1.59" overflow="visible"/><path style="marker:none" d="M16.043 16.043h2.185l1.788 1.738 1.738-1.738h2.235v2.334l-1.738 1.689 1.738 1.688v2.235h-2.284L20.016 22.3l-1.688 1.689h-2.285v-2.235l1.689-1.688-1.689-1.689v-2.334z" color="#bebebe" fill="#545454" overflow="visible"/></svg>