<?xml version="1.0" encoding="UTF-8" standalone="no"?>
<!-- Created with Inkscape (http://www.inkscape.org/) -->

<svg
   xmlns:dc="http://purl.org/dc/elements/1.1/"
   xmlns:cc="http://creativecommons.org/ns#"
   xmlns:rdf="http://www.w3.org/1999/02/22-rdf-syntax-ns#"
   xmlns:svg="http://www.w3.org/2000/svg"
   xmlns="http://www.w3.org/2000/svg"
   xmlns:xlink="http://www.w3.org/1999/xlink"
   xmlns:sodipodi="http://sodipodi.sourceforge.net/DTD/sodipodi-0.dtd"
   xmlns:inkscape="http://www.inkscape.org/namespaces/inkscape"
   width="50"
   height="50"
   id="svg41494"
   version="1.1"
   inkscape:version="0.48.4 r9939"
   sodipodi:docname="transferarrow.svg"
   inkscape:export-filename="/home/etudiant/dev/sflphone-kde/src/icons/transferarrow.png"
   inkscape:export-xdpi="113.03424"
   inkscape:export-ydpi="113.03424">
  <defs
     id="defs41496">
    <linearGradient
       id="linearGradient42567">
      <stop
         style="stop-color:#dfdfdf;stop-opacity:1;"
         offset="0"
         id="stop42569" />
      <stop
         style="stop-color:#f6f6f6;stop-opacity:1;"
         offset="1"
         id="stop42571" />
    </linearGradient>
    <linearGradient
       inkscape:collect="always"
       xlink:href="#linearGradient42567"
       id="linearGradient42573"
       x1="-280.5"
       y1="591.14471"
       x2="729.40216"
       y2="591.14471"
       gradientUnits="userSpaceOnUse" />
    <filter
       inkscape:collect="always"
       id="filter42589"
       color-interpolation-filters="sRGB">
      <feGaussianBlur
         inkscape:collect="always"
         stdDeviation="15.957289"
         id="feGaussianBlur42591" />
    </filter>
    <clipPath
       clipPathUnits="userSpaceOnUse"
       id="clipPath42597">
      <path
         sodipodi:nodetypes="ccccccccccc"
         inkscape:connector-curvature="0"
         id="path42599"
         d="m -280,426.6479 c 226.666667,40.54959 453.33333,50.64312 680,0 L 363.51437,304.16042 c -2.01827,-5.19937 1.22236,-8.29586 5.42757,-5.18649 l 357.02577,263.98776 c 3.40374,2.46182 4.03699,8.75651 0.88951,11.48409 l -355.32668,307.9241 c -5.35154,4.94743 -8.79065,0.7941 -6.9505,-5.38355 L 400,758.07647 c -229.47194,-40.6001 -454.375836,-35.51969 -676.2358,0 C -223.6196,647.60028 -211.0439,537.12409 -280,426.6479 z"
         style="fill:url(#linearGradient42601);fill-opacity:1;stroke:none" />
    </clipPath>
    <linearGradient
       inkscape:collect="always"
       xlink:href="#linearGradient42567"
       id="linearGradient42601"
       gradientUnits="userSpaceOnUse"
       x1="-280.5"
       y1="591.14471"
       x2="729.40216"
       y2="591.14471" />
    <linearGradient
       inkscape:collect="always"
       xlink:href="#linearGradient42567"
       id="linearGradient42603"
       gradientUnits="userSpaceOnUse"
       x1="-280.5"
       y1="591.14471"
       x2="729.40216"
       y2="591.14471"
       gradientTransform="matrix(0.0483178,0,0,0.0483178,-265.6754,830.52267)" />
  </defs>
  <sodipodi:namedview
     id="base"
     pagecolor="#ffffff"
     bordercolor="#666666"
     borderopacity="1.0"
     inkscape:pageopacity="0.0"
     inkscape:pageshadow="2"
     inkscape:zoom="2.8"
     inkscape:cx="18.680447"
     inkscape:cy="55.137127"
     inkscape:document-units="px"
     inkscape:current-layer="layer1"
     showgrid="false"
     showguides="false"
     inkscape:window-width="1600"
     inkscape:window-height="853"
     inkscape:window-x="-2"
     inkscape:window-y="-3"
     inkscape:window-maximized="1"
     fit-margin-top="0"
     fit-margin-left="0"
     fit-margin-right="0"
     fit-margin-bottom="0">
    <inkscape:grid
       type="xygrid"
       id="grid41504"
       empspacing="5"
       visible="true"
       enabled="true"
       snapvisiblegridlinesonly="true"
       originx="280px"
       originy="-167.8041px" />
  </sodipodi:namedview>
  <metadata
     id="metadata41499">
    <rdf:RDF>
      <cc:Work
         rdf:about="">
        <dc:format>image/svg+xml</dc:format>
        <dc:type
           rdf:resource="http://purl.org/dc/dcmitype/StillImage" />
        <dc:title></dc:title>
      </cc:Work>
    </rdf:RDF>
  </metadata>
  <g
     inkscape:label="Layer 1"
     inkscape:groupmode="layer"
     id="layer1"
     transform="translate(280,-834.55814)">
    <path
       style="fill:url(#linearGradient42603);fill-opacity:1;stroke:none"
       d="m -279.20438,851.13736 c 10.95203,1.95927 21.90407,2.44697 32.8561,0 l -1.7629,-5.91832 c -0.0975,-0.25122 0.0591,-0.40084 0.26224,-0.2506 l 17.25071,12.75531 c 0.16446,0.11895 0.19506,0.42309 0.043,0.55488 l -17.1686,14.87822 c -0.25858,0.23905 -0.42475,0.0384 -0.33583,-0.26012 l 1.71141,-5.74547 c -11.08758,-1.9617 -21.95444,-1.71623 -32.67423,0 2.5423,-5.33796 3.14993,-10.67593 -0.18188,-16.0139 z"
       id="path41502"
       inkscape:connector-curvature="0"
       sodipodi:nodetypes="ccccccccccc"
       inkscape:export-filename="/home/etudiant/dev/sflphone-kde/src/icons/transferarrow.png"
       inkscape:export-xdpi="184.62317"
       inkscape:export-ydpi="184.62317" />
    <path
       sodipodi:nodetypes="ccccccccccc"
       inkscape:connector-curvature="0"
       id="path42575"
       d="m -265.71429,443.79076 c 226.666671,40.54959 453.33333,50.64312 680,0 L 377.80008,321.30328 c -2.01827,-5.19937 1.22236,-8.29586 5.42757,-5.18649 l 357.02577,263.98776 c 3.40374,2.46182 4.03699,8.75651 0.88951,11.48409 l -355.32668,307.9241 c -5.35154,4.94743 -8.79065,0.7941 -6.9505,-5.38355 l 35.41996,-118.90986 c -229.47194,-40.6001 -454.375832,-35.51969 -676.2358,0 52.6162,-110.47619 65.1919,-220.95238 -3.7642,-331.42857 z"
       style="fill:none;stroke:#000000;stroke-width:10.60000038;stroke-linecap:butt;stroke-linejoin:miter;stroke-miterlimit:4;stroke-opacity:1;stroke-dasharray:none;filter:url(#filter42589)"
       clip-path="url(#clipPath42597)"
       transform="matrix(0.0483178,0,0,0.0483178,-265.6754,830.52267)"
       inkscape:export-filename="/home/etudiant/dev/sflphone-kde/src/icons/transferarrow.png"
       inkscape:export-xdpi="184.62317"
       inkscape:export-ydpi="184.62317" />
  </g>
</svg>
