<?xml version="1.0" encoding="UTF-8" standalone="no"?>
<!-- Created with Inkscape (http://www.inkscape.org/) -->

<svg
   xmlns:dc="http://purl.org/dc/elements/1.1/"
   xmlns:cc="http://creativecommons.org/ns#"
   xmlns:rdf="http://www.w3.org/1999/02/22-rdf-syntax-ns#"
   xmlns:svg="http://www.w3.org/2000/svg"
   xmlns="http://www.w3.org/2000/svg"
   xmlns:sodipodi="http://sodipodi.sourceforge.net/DTD/sodipodi-0.dtd"
   xmlns:inkscape="http://www.inkscape.org/namespaces/inkscape"
   width="23.804983"
   height="8.2597561"
   id="svg3134"
   version="1.1"
   inkscape:version="0.48.3.1 r9886"
   sodipodi:docname="New document 5">
  <defs
     id="defs3136" />
  <sodipodi:namedview
     id="base"
     pagecolor="#ffffff"
     bordercolor="#666666"
     borderopacity="1.0"
     inkscape:pageopacity="0.0"
     inkscape:pageshadow="2"
     inkscape:zoom="11.2"
     inkscape:cx="10.55171"
     inkscape:cy="-2.424633"
     inkscape:document-units="px"
     inkscape:current-layer="layer1"
     showgrid="false"
     inkscape:window-width="1341"
     inkscape:window-height="769"
     inkscape:window-x="0"
     inkscape:window-y="0"
     inkscape:window-maximized="0"
     fit-margin-top="0"
     fit-margin-left="0"
     fit-margin-right="0"
     fit-margin-bottom="0" />
  <metadata
     id="metadata3139">
    <rdf:RDF>
      <cc:Work
         rdf:about="">
        <dc:format>image/svg+xml</dc:format>
        <dc:type
           rdf:resource="http://purl.org/dc/dcmitype/StillImage" />
        <dc:title></dc:title>
      </cc:Work>
    </rdf:RDF>
  </metadata>
  <g
     inkscape:label="Layer 1"
     inkscape:groupmode="layer"
     id="layer1"
     transform="translate(-5.2403657,-173.94659)">
    <g
       id="layer1-7"
       inkscape:label="Calque 1"
       transform="translate(5.0154618,158.22366)"
       style="fill:BACKGROUD_COLOR_ROLE;fill-opacity:1">
      <g
         style="fill:BACKGROUD_COLOR_ROLE;fill-opacity:1;stroke:none"
         transform="matrix(0.8753565,0,0,0.8754652,-11.955751,23.215691)"
         id="g2181">
        <path
           sodipodi:nodetypes="csccczccsccccc"
           id="path2183"
           d="m 41.109694,-0.41817229 c -0.604396,0.62272055 -2.068827,1.19452575 -3.517455,1.19452335 -1.49015,0 -3.477586,-0.61952108 -4.05958,-1.26902913 l 0.03725,-1.51049453 0,-1.0803339 c -2.542499,-0.4952036 -2.572899,-0.7450572 -6.04429,-0.7450578 -3.47139,-6e-7 -3.694846,0.2525925 -6.235453,0.7823108 l 0,2.702587 c -0.604397,0.62272054 -2.068827,1.21976493 -3.517456,1.21976374 -1.49015,0 -3.14942,-0.4428395 -3.857631,-1.29426953 l 0.223518,-5.34646851 c 3.990571,-1.5541406 7.891994,-2.6324359 13.299281,-2.7939669 4.948128,0.1077747 8.821244,0.8532916 13.448295,2.6822083 l 0.223517,5.45822711 z"
           style="fill:BACKGROUD_COLOR_ROLE;fill-opacity:1;stroke:none"
           inkscape:connector-curvature="0" />
      </g>
    </g>
  </g>
</svg>
