<svg xmlns="http://www.w3.org/2000/svg" height="24" width="24"><path d="M.102 3.763h24v24h-24zm0 0h24v24h-24z" fill="none"/><path d="M1.965 10.335c-.7 0-1.273.573-1.273 1.273v9.562c0 .7.573 1.273 1.273 1.273H17.51c.62.027.997-.344 1.005-.81v-3.261l5.098 5.099V9.87l-5.093 5.094v-3.357c0-.7-.573-1.273-1.274-1.273H2.896z" fill="#545454"/><path style="line-height:normal;-inkscape-font-specification:'Bitstream Vera Sans';text-indent:0;text-align:start;text-decoration-line:none;text-transform:none;block-progression:tb;marker:none" d="M6.789 8.532h1.703c.438 0 .9-.221 1.224-.532l2.182-2.183L14.08 8c.324.311.787.532 1.225.532h1.703V6.829c0-.527-.154-.941-.48-1.278l-4.63-4.524-4.63 4.524c-.325.337-.48.75-.48 1.278v1.703z" color="#bebebe" font-weight="400" font-family="Bitstream Vera Sans" overflow="visible" fill="#1aac36"/></svg>