<svg xmlns="http://www.w3.org/2000/svg" width="24" height="24" version="1"><path style="marker:none" color="#bebebe" fill="none" overflow="visible" d="M25.687 27.125h-27.25V-.125h27.25z"/><path style="marker:none" color="#bebebe" fill="none" overflow="visible" d="M-1.68-4.353h27.358v27.358H-1.68z"/><path style="marker:none" color="#bebebe" fill="none" overflow="visible" d="M-1.68-18.074h27.402V9.328H-1.68z"/><path d="M16.03 21.424c.255-1.22-.51-2.363-1.146-3.34-.743-.979-1.569-1.994-2.708-2.519-.357-.097-.649.3-.978.42-.857.557-2.063 1.043-2.964.302-1.128-1.007-1.66-2.48-2.474-3.723-.57-.984-1.363-2.26-.59-3.351.582-.807 1.552-1.113 2.304-1.662.184-.989-.188-2.004-.467-2.948-.475-1.24-1.112-2.563-2.283-3.28-.953-.493-1.781.424-2.49.939C.604 3.586-.145 5.75.034 7.81c.263 3.311 1.845 6.346 3.585 9.112 1.594 2.393 3.57 4.8 6.361 5.799 1.964.699 4.228.21 5.876-1.007l.103-.139.07-.151z" fill="#545454"/><path style="line-height:normal;-inkscape-font-specification:'Bitstream Vera Sans';text-indent:0;text-align:start;text-decoration-line:none;text-transform:none;block-progression:tb;marker:none" d="M15.891.86v1.71c0 .44.222.904.535 1.23l2.19 2.19-2.19 2.19c-.313.326-.535.79-.535 1.23v1.71h1.71c.53 0 .945-.155 1.283-.481l4.541-4.65-4.541-4.648c-.339-.326-.754-.48-1.283-.48h-1.71z" color="#bebebe" font-weight="400" font-family="Bitstream Vera Sans" overflow="visible" fill="#f57900"/></svg>