<svg xmlns="http://www.w3.org/2000/svg" width="24" height="24" version="1"><path style="marker:none" color="#bebebe" fill="none" overflow="visible" d="M25.687 27.125h-27.25V-.125h27.25z"/><path style="marker:none" color="#bebebe" fill="none" overflow="visible" d="M-1.68-4.353h27.358v27.358H-1.68z"/><path style="marker:none" color="#bebebe" fill="none" overflow="visible" d="M-1.68-18.074h27.402V9.328H-1.68z"/><path d="M4.002 16.32C1.943 16.815.59 18.203.256 20.496c-.092.964-.48 2.304.428 2.944 1.213.725 2.696.606 4.014.375.961-.255 1.373-.347 2.14-1.07 0 0-.088-1.834.322-2.837 3.307-1.389 6.525-1.286 9.74 0 .41 1.003.322 2.836.322 2.836.767.724 1.179.816 2.14 1.07 1.318.232 2.802.35 4.014-.374.908-.64.52-1.98.428-2.944-.333-2.293-1.687-3.681-3.746-4.174-5.374-1.012-10.749-1.24-16.056 0z" fill="#545454"/><path d="M13.671 12.645v-1.338a1.715 1.715 0 0 0-1.766-2.087h-1.017l4.39-4.389 4.067 3.907a1.722 1.722 0 0 0 1.23.482h1.661V7.935a1.722 1.722 0 0 0 0-.16 1.722 1.722 0 0 0-.482-1.499l-5.298-5.084L15.277.014l-1.23 1.178-5.513 5.566v-.964A1.713 1.713 0 0 0 6.82 4.082H5.108v1.445a1.713 1.713 0 0 0 0 .267v6.851h6.797a1.713 1.713 0 0 0 .054 0h1.712z" style="line-height:normal;-inkscape-font-specification:Sans;text-indent:0;text-align:start;text-decoration-line:none;text-transform:none;block-progression:tb;marker:none" color="#bebebe" font-weight="400" font-size="xx-small" font-family="Sans" overflow="visible" fill="#de2c2c" fill-opacity=".984"/></svg>