<?xml version="1.0" encoding="UTF-8" standalone="no"?>
<!-- Created with Inkscape (http://www.inkscape.org/) -->

<svg
   xmlns:dc="http://purl.org/dc/elements/1.1/"
   xmlns:cc="http://creativecommons.org/ns#"
   xmlns:rdf="http://www.w3.org/1999/02/22-rdf-syntax-ns#"
   xmlns:svg="http://www.w3.org/2000/svg"
   xmlns="http://www.w3.org/2000/svg"
   xmlns:sodipodi="http://sodipodi.sourceforge.net/DTD/sodipodi-0.dtd"
   xmlns:inkscape="http://www.inkscape.org/namespaces/inkscape"
   width="87.99826mm"
   height="42.268761mm"
   viewBox="0 0 87.99826 42.268761"
   version="1.1"
   id="svg1093"
   inkscape:version="0.92.2 2405546, 2018-03-11"
   sodipodi:docname="branding.svg">
  <defs
     id="defs1087" />
  <sodipodi:namedview
     id="base"
     pagecolor="#ffffff"
     bordercolor="#666666"
     borderopacity="1.0"
     inkscape:pageopacity="0.0"
     inkscape:pageshadow="2"
     inkscape:zoom="1.4"
     inkscape:cx="159.01759"
     inkscape:cy="4.4685492"
     inkscape:document-units="mm"
     inkscape:current-layer="layer1"
     showgrid="false"
     fit-margin-top="0"
     fit-margin-left="0"
     fit-margin-right="0"
     fit-margin-bottom="0"
     inkscape:window-width="1918"
     inkscape:window-height="1032"
     inkscape:window-x="0"
     inkscape:window-y="16"
     inkscape:window-maximized="1" />
  <metadata
     id="metadata1090">
    <rdf:RDF>
      <cc:Work
         rdf:about="">
        <dc:format>image/svg+xml</dc:format>
        <dc:type
           rdf:resource="http://purl.org/dc/dcmitype/StillImage" />
        <dc:title></dc:title>
      </cc:Work>
    </rdf:RDF>
  </metadata>
  <g
     inkscape:label="Layer 1"
     inkscape:groupmode="layer"
     id="layer1"
     transform="translate(-40.667533,-76.294285)">
    <path
       style="fill:#000000;fill-rule:evenodd;stroke:none;stroke-width:0.12744278px;stroke-linecap:butt;stroke-linejoin:miter;stroke-opacity:1"
       d="m 113.19443,76.294521 c -0.98778,0.0029 -1.98146,0.340909 -2.73653,1.003869 -0.51543,0.452547 -1.22293,1.57315 -1.2249,1.940009 -0.001,0.209147 -0.36504,0.223024 -5.84718,0.223024 h -5.845941 l -0.291727,-0.425631 c -0.540158,-0.788311 -1.063347,-1.039956 -2.16254,-1.039956 -1.099196,0 -1.622388,0.251645 -2.162546,1.039956 l -0.291724,0.425631 H 88.95193 c -2.360899,0 -3.679415,-0.04537 -3.679415,-0.126946 0,-0.237208 -0.953876,-1.185509 -1.366025,-1.358054 -0.52631,-0.220337 -1.584709,-0.220337 -2.111024,0 -0.412146,0.172545 -1.365779,1.120846 -1.365779,1.358054 0,0.08128 -1.182872,0.12566 -3.281651,0.12347 l -3.281651,-0.0034 -0.293714,-0.476914 c -0.16152,-0.262227 -0.501544,-0.619056 -0.755448,-0.793042 -0.392544,-0.268966 -0.607344,-0.316362 -1.435968,-0.316362 -0.828636,0 -1.043681,0.0474 -1.436222,0.316362 -0.253905,0.173986 -0.593677,0.53083 -0.7552,0.793042 l -0.293717,0.476914 -2.262108,0.0034 -2.262108,0.0034 v 0.955824 0.955817 h 2.277541 2.277539 l 0.291729,0.425652 c 0.540158,0.788296 1.06334,1.039942 2.162546,1.039942 1.099198,0 1.622382,-0.251646 2.16254,-1.039942 l 0.291724,-0.425652 h 3.249049 3.249292 l 0.519978,0.590918 c 0.616974,0.700922 1.122503,0.938398 1.997263,0.938398 0.87476,0 1.380048,-0.237476 1.997022,-0.938398 l 0.520221,-0.590918 3.615942,0.0034 3.61619,0.0034 0.293714,0.476663 c 0.161522,0.26223 0.501298,0.619308 0.755202,0.793279 0.392539,0.268972 0.607584,0.316369 1.43622,0.316369 0.828632,0 1.043424,-0.0474 1.435973,-0.316369 0.253904,-0.173986 0.593926,-0.531049 0.755446,-0.793279 l 0.293711,-0.476663 5.798648,-0.0029 5.79865,-0.0029 0.229,0.557064 c 0.44098,1.072483 1.6048,2.108377 2.68078,2.38632 0.22205,0.05736 0.84421,0.08364 1.3827,0.05825 0.77572,-0.03656 1.11601,-0.120688 1.63834,-0.404992 0.78841,-0.4291 1.54556,-1.253308 1.86509,-2.030363 l 0.23298,-0.566281 1.73492,-5.82e-4 1.73517,-5.82e-4 0.2148,0.563045 c 0.292,0.764578 1.05407,1.597917 1.8773,2.053266 0.62355,0.344913 0.7871,0.377297 1.89322,0.374624 1.00851,-0.0023 1.3021,-0.05115 1.75806,-0.291732 0.79602,-0.420014 1.45533,-1.062057 1.88128,-1.831992 0.33993,-0.614453 0.37411,-0.786106 0.37411,-1.886748 0,-1.100633 -0.0342,-1.272049 -0.37411,-1.8865 -0.42595,-0.769912 -1.08526,-1.412198 -1.88128,-1.832222 -0.45596,-0.240591 -0.74955,-0.289284 -1.75806,-0.291721 -1.10612,-0.0029 -1.26967,0.02967 -1.89322,0.374607 -0.85347,0.472088 -1.61262,1.32259 -1.89821,2.1267 l -0.21929,0.617051 h -1.73815 -1.73839 l -0.0712,-0.354939 c -0.10699,-0.534961 -0.8473,-1.559307 -1.46658,-2.029127 -0.69431,-0.526734 -1.5613,-0.78535 -2.43287,-0.782831 z m -0.0122,1.57536 c 0.60863,-5.1e-5 1.21728,0.253255 1.72396,0.759929 1.48228,1.482287 0.6466,3.861963 -1.46883,4.182465 -0.24533,0.03719 -0.58996,0.02413 -0.76565,-0.02909 -1.983,-0.601355 -2.61204,-2.754499 -1.21345,-4.153097 0.50679,-0.506773 1.11533,-0.760117 1.72397,-0.76018 z m 11.4701,0.0065 c 0.61076,0 1.22141,0.251151 1.72371,0.753453 1.76663,1.766626 0.14398,4.650362 -2.31886,4.120994 -0.79963,-0.171881 -1.55323,-0.90372 -1.76179,-1.71078 -0.25141,-0.97282 -0.0546,-1.722634 0.63298,-2.410213 0.5023,-0.502302 1.1132,-0.753453 1.72396,-0.753454 z m -54.418067,1.075301 h 0.3186 c 0.28982,0 0.318546,0.04895 0.318858,0.54163 l 5.29e-4,0.541634 0.478165,-0.55457 c 0.357945,-0.415094 0.553342,-0.543315 0.7766,-0.50977 0.295908,0.04446 0.294762,0.04941 -0.146359,0.605352 l -0.444802,0.560292 0.432358,0.676042 c 0.237808,0.371831 0.432605,0.707575 0.432605,0.745989 0,0.03839 -0.142756,0.0697 -0.317114,0.0697 -0.231241,0 -0.403958,-0.137902 -0.638704,-0.50977 -0.176996,-0.280376 -0.378579,-0.509773 -0.447792,-0.509773 -0.06922,0 -0.125701,0.229397 -0.125701,0.509773 0,0.458796 -0.03189,0.50977 -0.318608,0.50977 h -0.318633 v -1.338153 z m 11.597288,0 h 0.774366 c 0.68606,0 0.816984,0.04263 1.146982,0.372631 0.305009,0.305006 0.372624,0.479918 0.372624,0.965518 0,0.485606 -0.06762,0.660767 -0.372624,0.96577 -0.329998,0.330015 -0.460922,0.372377 -1.146982,0.372377 h -0.774366 v -1.338153 z m 12.489397,0 h 0.764656 c 0.679696,0 0.764659,0.02833 0.764659,0.254885 0,0.206341 -0.08497,0.254882 -0.446055,0.254882 -0.361088,0 -0.446051,0.04856 -0.446051,0.254888 0,0.206344 0.08496,0.254887 0.446051,0.254887 0.361084,0 0.446055,0.04855 0.446055,0.254882 0,0.206345 -0.08497,0.254888 -0.446055,0.254888 -0.390827,0 -0.446051,0.03945 -0.446051,0.318607 0,0.279164 0.05522,0.318607 0.446051,0.318607 0.361084,0 0.446055,0.04856 0.446055,0.254885 0,0.226569 -0.08496,0.254885 -0.764659,0.254885 h -0.764656 v -1.338153 z m -11.852177,0.509767 v 0.828382 c 0,0.765201 0.02088,0.828377 0.276537,0.828377 0.152188,0 0.381587,-0.09482 0.50977,-0.210827 0.494707,-0.447695 0.21277,-1.445932 -0.408466,-1.445932 z m -39.183683,0.01 c -1.944651,-0.0088 -2.203104,0.03675 -2.372627,0.190168 -0.239171,0.216451 -0.244928,0.583919 -0.244928,15.233145 v 15.011118 l 0.28326,0.19839 c 0.24143,0.16911 0.86096,0.19838 4.196406,0.19838 2.152227,0 4.361733,-0.0612 4.910029,-0.13615 1.343334,-0.18368 3.136781,-0.79384 3.991795,-1.35781 2.333297,-1.53908 3.437337,-3.955 3.439964,-7.52785 0.0021,-3.294022 -1.208622,-5.809193 -3.295843,-6.844815 -0.423809,-0.210285 -0.773134,-0.421357 -0.776105,-0.469196 -0.003,-0.04783 0.116581,-0.125711 0.265589,-0.172994 0.505309,-0.160385 1.815502,-1.617679 2.249411,-2.50207 0.671499,-1.368609 0.809654,-1.955842 0.879655,-3.737652 0.141144,-3.592662 -0.978863,-5.887376 -3.448672,-7.065852 -1.832081,-0.874195 -2.240415,-0.928291 -7.512156,-0.99191 -1.082127,-0.01307 -1.917565,-0.02196 -2.565781,-0.0249 z m -0.578472,2.130943 3.663979,0.05725 c 3.24103,0.05069 3.780436,0.08887 4.672573,0.331544 2.190187,0.595758 3.161139,1.561977 3.586568,3.569147 0.326464,1.540263 0.141777,3.4406 -0.453766,4.670835 -0.373917,0.7724 -1.215633,1.566017 -2.11351,1.992785 -1.339194,0.636518 -2.180135,0.74179 -5.946749,0.744239 l -3.409095,0.0022 v -5.68431 z m 53.335057,8.95111 c -2.300435,0 -4.004429,0.622816 -5.382222,1.967142 l -0.799002,0.779353 v -0.400998 c 0,-0.22054 -0.03661,-0.753482 -0.08164,-1.184326 l -0.08189,-0.783331 h -0.640948 c -1.205349,0 -1.10716,-0.852818 -1.10716,9.601768 v 9.17962 l 0.277286,0.29497 c 0.365536,0.38909 1.062644,0.39763 1.46684,0.0179 l 0.294957,-0.27704 0.0021,-5.9358 c 0.0019,-4.602404 0.04248,-6.125243 0.181213,-6.779615 0.484129,-2.284011 2.013641,-3.83972 4.306668,-4.380347 2.42415,-0.571539 4.94234,0.248693 5.789185,1.885516 0.57309,1.10767 0.59347,1.365232 0.67082,8.509526 0.0828,7.64312 0.0295,7.25479 0.99216,7.25479 0.97329,0 0.92994,0.33913 0.92744,-7.23387 -0.002,-7.358148 -0.0344,-7.7541 -0.74922,-9.281669 -0.50205,-1.07285 -1.2395,-1.839649 -2.309646,-2.401989 -1.092787,-0.574247 -2.255274,-0.831616 -3.757073,-0.831616 z m -23.529872,0.02736 c -1.688242,-0.01841 -3.619714,0.354699 -5.44395,1.0982 -0.514974,0.209884 -0.970775,0.415947 -1.01282,0.458005 -0.04205,0.04205 0.0291,0.387516 0.158306,0.767639 0.331205,0.974377 0.664377,1.077092 1.809091,0.558056 1.345703,-0.610171 2.614777,-0.890648 4.123476,-0.911263 1.552077,-0.02118 2.19406,0.133635 2.957809,0.714125 1.009009,0.766897 1.415581,1.874171 1.581838,4.308165 l 0.08363,1.226394 -1.515126,0.08637 c -3.90676,0.222909 -5.882703,0.602343 -7.639097,1.467337 -1.353339,0.66649 -2.117471,1.35468 -2.605858,2.34673 -0.793723,1.61228 -0.794805,3.52195 -0.0029,5.13082 0.61353,1.24625 1.845998,2.17583 3.379971,2.54936 1.050898,0.25589 3.435331,0.21649 4.57699,-0.0754 1.267393,-0.32418 2.108284,-0.7862 3.019546,-1.6595 l 0.731301,-0.70094 0.08538,1.17885 0.08538,1.17884 h 0.585187 c 0.425487,0 0.665965,-0.0756 0.880404,-0.27703 l 0.294963,-0.27703 -0.0044,-6.70046 c -0.005,-7.53846 -0.05247,-8.095731 -0.82165,-9.652046 -0.526063,-1.064426 -1.171496,-1.688794 -2.296216,-2.221049 -0.815128,-0.385728 -1.856213,-0.581557 -3.011328,-0.594148 z m 41.075659,0.33205 c -0.0977,0.002 -0.21075,0.01841 -0.34126,0.01841 -1.02322,0 -0.94384,-0.98391 -0.98395,12.176508 l -0.0356,11.71901 -0.3186,0.63523 c -0.43159,0.86028 -0.95318,1.15182 -2.03909,1.14001 -0.45561,-0.005 -1.04034,-0.0799 -1.29932,-0.16677 -0.40483,-0.13572 -0.51725,-0.12747 -0.80224,0.0593 -0.30108,0.19726 -0.32818,0.28256 -0.29396,0.93143 l 0.0379,0.71436 0.82837,0.2218 c 1.27465,0.34124 2.57392,0.2449 3.61595,-0.2681 0.93823,-0.46188 1.37662,-0.91826 1.85264,-1.92906 l 0.33006,-0.70094 0.0349,-12.02965 c 0.0345,-11.855031 0.0984,-12.536417 -0.58569,-12.521496 z m 11.54203,0.006 c -0.10465,5.82e-4 -0.22553,0.01244 -0.36515,0.01244 -0.4756,0 -0.64238,0.05541 -0.74475,0.246679 -0.0875,0.163394 -0.13192,3.350156 -0.13192,9.452419 0,8.38752 0.0186,9.22689 0.21083,9.43923 0.29715,0.32834 1.03404,0.30522 1.40585,-0.0441 l 0.29497,-0.27704 v -9.17569 c 0,-9.106065 0.0627,-9.658234 -0.66983,-9.654028 z m -82.422874,4.218048 2.644439,5.3e-4 c 4.614855,0.0013 6.758839,0.355536 8.092866,1.339651 1.382834,1.020117 1.940462,2.41531 1.935287,4.840829 -0.0065,3.034 -0.886257,4.7961 -2.941887,5.89174 -1.369586,0.72998 -2.011674,0.82443 -6.066726,0.8916 l -3.663979,0.0607 v -6.51251 z m 34.027229,5.58508 -0.0013,0.61655 c -0.0068,3.97287 -1.516324,6.44462 -4.343014,7.11091 -0.974156,0.22963 -2.629447,0.24036 -3.437718,0.0224 -2.116386,-0.57071 -3.076527,-2.67197 -2.162294,-4.73256 0.801566,-1.80666 3.259453,-2.66722 8.38285,-2.93541 z"
       id="path897"
       inkscape:connector-curvature="0"
       sodipodi:nodetypes="cccsccsccssccsccccsccccccccccscccccsccccccsccccccccccccccccccscccccccccccccccccccsscccscscccscccsscsssccccscscsccccsssssssssssccccsscscscsccscccccccsccscccsccccccsccsccssccccccscsscccssccccscsccccscscccccsccccccccsccccccccccccccccscscccsccccsssccccccccscc" />
  </g>
</svg>
