<svg xmlns="http://www.w3.org/2000/svg" width="24" height="24" version="1"><path style="marker:none" color="#bebebe" fill="none" overflow="visible" d="M-1.68-18.074h27.402V9.328H-1.68z"/><path style="marker:none" color="#bebebe" fill="none" overflow="visible" d="M24.72 3.784l-6.756 25.214-25.215-6.756L-.495-2.972z"/><path style="line-height:normal;text-indent:0;text-align:start;text-decoration-line:none;text-decoration-style:solid;text-decoration-color:#000;text-transform:none;block-progression:tb;isolation:auto;mix-blend-mode:normal;marker:none" d="M8.326.39c-2.24 0-4.068 2.071-4.068 4.609v7.384c0 2.537 1.828 4.609 4.068 4.609 2.24 0 4.069-2.072 4.069-4.61V5c0-2.538-1.829-4.61-4.069-4.61zM3.589 20.742a1.363 1.473 0 1 0 0 2.945h9.537a1.363 1.473 0 1 0 0-2.945H3.59z" color="#bebebe" font-weight="400" font-family="sans-serif" white-space="normal" overflow="visible" fill="#f2f2f2"/><path style="marker:none" color="#bebebe" overflow="visible" fill="#f2f2f2" d="M2.227 22.215h12.262v1.473H2.227z"/><path style="marker:none" d="M6.314 17.796H10.4v5.892H6.314z" color="#bebebe" overflow="visible" fill="#f2f2f2"/><path d="M13.921 8.223c-.088 5.62.303 10.135-5.569 10.11-5.872-.024-5.48-4.49-5.435-10.11" fill="none" stroke="#f2f2f2" stroke-width="1.5" stroke-linecap="round" stroke-linejoin="round"/><path class="error" d="M17.722 12.538a5.496 5.496 0 1 0 0 10.992 5.496 5.496 0 0 0 0-10.992zM13.796 17.2h7.852v1.619h-7.852v-1.62z" style="marker:none" color="#bebebe" overflow="visible" fill="#de2c2c" fill-opacity=".984"/></svg>