<svg xmlns="http://www.w3.org/2000/svg" width="24" height="24" version="1"><path style="marker:none" color="#bebebe" fill="none" overflow="visible" d="M25.687 27.125h-27.25V-.125h27.25z"/><path style="marker:none" color="#bebebe" fill="none" overflow="visible" d="M-1.68-4.353h27.358v27.358H-1.68z"/><path style="marker:none" color="#bebebe" fill="none" overflow="visible" d="M-1.68-18.074h27.402V9.328H-1.68z"/><path d="M16.03 21.424c.255-1.22-.51-2.363-1.146-3.34-.743-.979-1.569-1.994-2.708-2.519-.357-.097-.649.3-.978.42-.857.557-2.063 1.043-2.964.302-1.128-1.007-1.66-2.48-2.474-3.723-.57-.984-1.363-2.26-.59-3.351.582-.807 1.552-1.113 2.304-1.662.184-.989-.188-2.004-.467-2.948-.475-1.24-1.112-2.563-2.283-3.28-.953-.493-1.781.424-2.49.939C.604 3.586-.145 5.75.034 7.81c.263 3.311 1.845 6.346 3.585 9.112 1.594 2.393 3.57 4.8 6.361 5.799 1.964.699 4.228.21 5.876-1.007l.103-.139.07-.151z" fill="#f2f2f2"/><path style="text-indent:0;text-align:start;line-height:normal;text-transform:none;block-progression:tb;marker:none;-inkscape-font-specification:Bitstream Vera Sans" d="M18.939 9.452h1.01c.268 0 .536-.094.727-.284l3.031-3.032.285-.284v-.884l-.285-.285-3.031-3.031a1.025 1.025 0 0 0-.727-.285h-1.01v1.011c0 .268.094.536.284.726l2.305 2.306-2.305 2.305c-.19.19-.284.459-.284.727v1.01z" font-weight="400" color="#000" fill="#4b8bc5" overflow="visible" font-family="Bitstream Vera Sans"/><path d="M13.886 10.463V7.936a2.526 2.526 0 0 1 2.526-2.526h5.558" style="marker:none" color="#000" fill="none" stroke="#4b8bc5" stroke-width="2.021" overflow="visible"/></svg>