<?xml version="1.0" encoding="UTF-8" standalone="no"?>
<!-- Created with Inkscape (http://www.inkscape.org/) -->

<svg
   xmlns:dc="http://purl.org/dc/elements/1.1/"
   xmlns:cc="http://creativecommons.org/ns#"
   xmlns:rdf="http://www.w3.org/1999/02/22-rdf-syntax-ns#"
   xmlns:svg="http://www.w3.org/2000/svg"
   xmlns="http://www.w3.org/2000/svg"
   xmlns:sodipodi="http://sodipodi.sourceforge.net/DTD/sodipodi-0.dtd"
   xmlns:inkscape="http://www.inkscape.org/namespaces/inkscape"
   width="64mm"
   height="64mm"
   viewBox="0 0 226.77165 226.77165"
   id="svg2"
   version="1.1"
   inkscape:version="0.91 r13725"
   sodipodi:docname="call.svg">
  <defs
     id="defs4" />
  <sodipodi:namedview
     id="base"
     pagecolor="#000000"
     bordercolor="#666666"
     borderopacity="1.0"
     inkscape:pageopacity="0"
     inkscape:pageshadow="2"
     inkscape:zoom="1.8983854"
     inkscape:cx="21.10917"
     inkscape:cy="146.35832"
     inkscape:document-units="px"
     inkscape:current-layer="layer1"
     showgrid="false"
     inkscape:window-width="1918"
     inkscape:window-height="1032"
     inkscape:window-x="0"
     inkscape:window-y="16"
     inkscape:window-maximized="1"
     showguides="true"
     inkscape:guide-bbox="true">
    <sodipodi:guide
       position="23.17759,175.14884"
       orientation="1,0"
       id="guide5755" />
    <sodipodi:guide
       position="203.59406,171.46149"
       orientation="1,0"
       id="guide5757" />
  </sodipodi:namedview>
  <metadata
     id="metadata7">
    <rdf:RDF>
      <cc:Work
         rdf:about="">
        <dc:format>image/svg+xml</dc:format>
        <dc:type
           rdf:resource="http://purl.org/dc/dcmitype/StillImage" />
        <dc:title></dc:title>
      </cc:Work>
    </rdf:RDF>
  </metadata>
  <g
     inkscape:label="Layer 1"
     inkscape:groupmode="layer"
     id="layer1"
     transform="translate(0,-825.59055)">
    <path
       style="opacity:0.85;fill:#f2f2f2;fill-opacity:1;stroke:none"
       d="m 112.0772,1008.147 c 20.50055,20.5006 49.21148,27.152 75.30099,20.4855 l 4.52118,-4.5212 7.98212,-7.9821 c 0,0 7.98213,-7.9823 -1.1e-4,-15.9646 l -34.32112,-34.32112 c -7.98224,-7.98224 -15.96448,0 -15.96448,0 l -3.99106,3.99106 c -6.63326,6.63327 -17.31346,6.63315 -23.9466,0 L 84.109728,932.28638 c -6.633033,-6.63304 -6.633259,-17.31346 0,-23.94683 l 3.991177,-3.99107 c 0,0 7.982014,-7.98212 -1.14e-4,-15.96436 L 53.777422,854.06075 c -7.982239,-7.98213 -15.964365,0 -15.964365,0 l -7.982127,7.98213 -4.521173,4.52117 c -6.666447,26.0895 -0.01129,54.80315 20.485539,75.30088 z"
       id="rect4237"
       inkscape:connector-curvature="0"
       sodipodi:nodetypes="scccsscsssscsscccss" />
  </g>
</svg>
