<?xml version="1.0" encoding="UTF-8" standalone="no"?>
<!-- Created with Inkscape (http://www.inkscape.org/) -->

<svg
   xmlns:dc="http://purl.org/dc/elements/1.1/"
   xmlns:cc="http://creativecommons.org/ns#"
   xmlns:rdf="http://www.w3.org/1999/02/22-rdf-syntax-ns#"
   xmlns:svg="http://www.w3.org/2000/svg"
   xmlns="http://www.w3.org/2000/svg"
   xmlns:sodipodi="http://sodipodi.sourceforge.net/DTD/sodipodi-0.dtd"
   xmlns:inkscape="http://www.inkscape.org/namespaces/inkscape"
   width="48mm"
   height="48mm"
   viewBox="0 0 170.07875 170.07874"
   id="svg2"
   version="1.1"
   inkscape:version="0.91 r13725"
   sodipodi:docname="timeline.svg">
  <defs
     id="defs4" />
  <sodipodi:namedview
     id="base"
     pagecolor="#ffffff"
     bordercolor="#666666"
     borderopacity="1.0"
     inkscape:pageopacity="0.0"
     inkscape:pageshadow="2"
     inkscape:zoom="2.6504228"
     inkscape:cx="30.575742"
     inkscape:cy="68.186083"
     inkscape:document-units="px"
     inkscape:current-layer="layer1"
     showgrid="false"
     inkscape:window-width="1918"
     inkscape:window-height="1032"
     inkscape:window-x="0"
     inkscape:window-y="16"
     inkscape:window-maximized="1"
     showguides="true"
     inkscape:guide-bbox="true"
     fit-margin-top="0"
     fit-margin-left="0"
     fit-margin-right="0"
     fit-margin-bottom="0">
    <sodipodi:guide
       position="36.983335,160.47704"
       orientation="1,0"
       id="guide4356" />
    <sodipodi:guide
       position="32.644405,172.92788"
       orientation="0,1"
       id="guide4358" />
    <sodipodi:guide
       position="-7.1605661,184.71845"
       orientation="1,0"
       id="guide4360" />
    <sodipodi:guide
       position="33.399001,186.41629"
       orientation="1,0"
       id="guide4362" />
    <sodipodi:guide
       position="-10.744899,181.51142"
       orientation="1,0"
       id="guide4364" />
    <sodipodi:guide
       position="-16.215725,132.46265"
       orientation="0,1"
       id="guide4366" />
    <sodipodi:guide
       position="-17.253295,135.66968"
       orientation="0,1"
       id="guide4368" />
    <sodipodi:guide
       position="32.432174,176.32356"
       orientation="0,1"
       id="guide4370" />
    <sodipodi:guide
       position="110.74515,223.10855"
       orientation="1,0"
       id="guide4376" />
  </sodipodi:namedview>
  <metadata
     id="metadata7">
    <rdf:RDF>
      <cc:Work
         rdf:about="">
        <dc:format>image/svg+xml</dc:format>
        <dc:type
           rdf:resource="http://purl.org/dc/dcmitype/StillImage" />
        <dc:title></dc:title>
      </cc:Work>
    </rdf:RDF>
  </metadata>
  <g
     inkscape:label="Layer 1"
     inkscape:groupmode="layer"
     id="layer1"
     transform="translate(-28.477919,-872.22168)">
    <g
       id="g5003"
       transform="matrix(0.74954183,0,0,0.75,26.027021,251.14264)">
      <path
         transform="translate(0,825.59055)"
         id="path4136"
         d="m 113.97656,12.634766 a 5.0005,5.0005 0 0 0 -4.92383,5.072265 l 0,27.976563 a 15.20704,15.20704 0 0 1 5,-0.863282 15.20704,15.20704 0 0 1 5,0.865235 l 0,-27.978516 a 5.0005,5.0005 0 0 0 -5.07617,-5.072265 z m -4.92383,61.736328 0,26.138676 a 15.20704,15.20704 0 0 1 5,-0.863286 15.20704,15.20704 0 0 1 5,0.863286 l 0,-26.138676 a 15.20704,15.20704 0 0 1 -5,0.863281 15.20704,15.20704 0 0 1 -5,-0.863281 z m 0,54.824216 0,26.14063 a 15.20704,15.20704 0 0 1 5,-0.86524 15.20704,15.20704 0 0 1 5,0.86524 l 0,-26.13867 a 15.20704,15.20704 0 0 1 -5,0.86328 15.20704,15.20704 0 0 1 -5,-0.86524 z m 0,54.82617 0,27.61719 a 5.0005,5.0005 0 1 0 10,0 l 0,-27.61719 a 15.20704,15.20704 0 0 1 -5,0.86329 15.20704,15.20704 0 0 1 -5,-0.86329 z"
         style="color:#000000;font-style:normal;font-variant:normal;font-weight:normal;font-stretch:normal;font-size:medium;line-height:normal;font-family:sans-serif;text-indent:0;text-align:start;text-decoration:none;text-decoration-line:none;text-decoration-style:solid;text-decoration-color:#000000;letter-spacing:normal;word-spacing:normal;text-transform:none;direction:ltr;block-progression:tb;writing-mode:lr-tb;baseline-shift:baseline;text-anchor:start;white-space:normal;clip-rule:nonzero;display:inline;overflow:visible;visibility:visible;opacity:1;isolation:auto;mix-blend-mode:normal;color-interpolation:sRGB;color-interpolation-filters:linearRGB;solid-color:#000000;solid-opacity:1;fill:#f2f2f2;fill-opacity:1;fill-rule:evenodd;stroke:none;stroke-width:10;stroke-linecap:round;stroke-linejoin:round;stroke-miterlimit:4;stroke-dasharray:none;stroke-dashoffset:0;stroke-opacity:1;color-rendering:auto;image-rendering:auto;shape-rendering:auto;text-rendering:auto;enable-background:accumulate"
         inkscape:connector-curvature="0" />
      <path
         id="path4157"
         d="m 129.25985,885.61835 a 15.20704,15.20704 0 0 1 -15.20704,15.20704 15.20704,15.20704 0 0 1 -15.207039,-15.20704 15.20704,15.20704 0 0 1 15.207039,-15.20704 15.20704,15.20704 0 0 1 15.20704,15.20704 z"
         style="opacity:1;fill:none;fill-opacity:1;stroke:#f2f2f2;stroke-width:7;stroke-linecap:round;stroke-linejoin:round;stroke-miterlimit:4;stroke-dasharray:none;stroke-dashoffset:0;stroke-opacity:1"
         inkscape:connector-curvature="0" />
      <path
         id="circle4159"
         d="m 129.25985,940.44373 a 15.20704,15.20704 0 0 1 -15.20704,15.20704 15.20704,15.20704 0 0 1 -15.207039,-15.20704 15.20704,15.20704 0 0 1 15.207039,-15.20704 15.20704,15.20704 0 0 1 15.20704,15.20704 z"
         style="opacity:1;fill:none;fill-opacity:1;stroke:#f2f2f2;stroke-width:7;stroke-linecap:round;stroke-linejoin:round;stroke-miterlimit:4;stroke-dasharray:none;stroke-dashoffset:0;stroke-opacity:1"
         inkscape:connector-curvature="0" />
      <path
         id="circle4161"
         d="m 129.25985,995.2691 a 15.20704,15.20704 0 0 1 -15.20704,15.207 15.20704,15.20704 0 0 1 -15.207039,-15.207 15.20704,15.20704 0 0 1 15.207039,-15.20704 15.20704,15.20704 0 0 1 15.20704,15.20704 z"
         style="opacity:1;fill:none;fill-opacity:1;stroke:#f2f2f2;stroke-width:7;stroke-linecap:round;stroke-linejoin:round;stroke-miterlimit:4;stroke-dasharray:none;stroke-dashoffset:0;stroke-opacity:1"
         inkscape:connector-curvature="0" />
      <path
         sodipodi:nodetypes="ccccccccccccc"
         inkscape:connector-curvature="0"
         id="path4354"
         d="m 74.893711,925.96728 -40.559567,0 c -2.031415,0 -3.395684,1.25044 -3.395684,3.30136 l 0,37.35253 c 0,1.99839 1.531803,3.11625 3.584423,3.11625 l 40.653758,0.0402 c 1.934975,0.0506 3.490053,-1.16232 3.537214,-3.15691 l 0,-20.84569 7.970427,-6.8857 -7.992978,-6.3001 -0.01164,-3.13174 c -0.01297,-2.36927 -0.9602,-3.49066 -3.785955,-3.49066 z"
         style="fill:none;fill-rule:evenodd;stroke:#f2f2f2;stroke-width:5;stroke-linecap:round;stroke-linejoin:round;stroke-miterlimit:4;stroke-dasharray:none;stroke-opacity:1" />
      <path
         style="fill:none;fill-rule:evenodd;stroke:#f2f2f2;stroke-width:5;stroke-linecap:round;stroke-linejoin:round;stroke-miterlimit:4;stroke-dasharray:none;stroke-opacity:1"
         d="m 154.03202,1008.2631 40.55957,0 c 2.03142,0 3.39569,-1.2504 3.39569,-3.3014 l 0,-37.35248 c 0,-1.99839 -1.53181,-3.11625 -3.58443,-3.11625 l -40.65376,-0.0402 c -1.93497,-0.0506 -3.49005,1.16232 -3.53721,3.15691 l 0,20.84569 -7.97043,6.8857 7.99298,6.30013 0.0116,3.1317 c 0.013,2.3693 0.9602,3.4907 3.78596,3.4907 z"
         id="path4372"
         inkscape:connector-curvature="0"
         sodipodi:nodetypes="ccccccccccccc" />
      <path
         sodipodi:nodetypes="ccccccccccccc"
         inkscape:connector-curvature="0"
         id="path4374"
         d="m 153.27742,871.25906 40.55957,0 c 2.03142,0 3.39569,1.25044 3.39569,3.30136 l 0,37.35249 c 0,1.9984 -1.53181,3.1163 -3.58443,3.1163 l -40.65376,0.04 c -1.93497,0.051 -3.49005,-1.1623 -3.53721,-3.1569 l 0,-20.8457 -7.97043,-6.88571 7.99298,-6.3001 0.0116,-3.13174 c 0.013,-2.36927 0.9602,-3.49066 3.78596,-3.49066 z"
         style="fill:none;fill-rule:evenodd;stroke:#f2f2f2;stroke-width:5;stroke-linecap:round;stroke-linejoin:round;stroke-miterlimit:4;stroke-dasharray:none;stroke-opacity:1" />
    </g>
  </g>
</svg>
