<svg xmlns="http://www.w3.org/2000/svg" width="24" height="24" version="1"><path style="marker:none" color="#bebebe" fill="none" overflow="visible" d="M25.687 27.125h-27.25V-.125h27.25z"/><path style="marker:none" color="#bebebe" fill="none" overflow="visible" d="M-1.68-4.353h27.358v27.358H-1.68z"/><path style="marker:none" color="#bebebe" fill="none" overflow="visible" d="M-1.68-18.074h27.402V9.328H-1.68z"/><path style="marker:none" color="#bebebe" fill="none" overflow="visible" d="M24.72 3.784l-6.756 25.214-25.215-6.756L-.495-2.972z"/><path style="marker:none" color="#bebebe" fill="none" overflow="visible" d="M-1.875 2.25H26v27.875H-1.875z"/><path style="marker:none" opacity=".515" color="#bebebe" fill="none" overflow="visible" d="M.437 24.063V.188h23.875v23.875z"/><path style="marker:none" color="#bebebe" fill="none" overflow="visible" d="M4.147 7.854h9.069v9.069H4.147z"/><path style="marker:none" color="#bebebe" fill="none" overflow="visible" d="M.063-.188h24v24h-24z"/><rect style="marker:none" y="-.125" x="-.875" ry=".151" rx=".144" height="16" width="16" color="#bebebe" fill="none" overflow="visible"/><path style="marker:none" color="#bebebe" fill="none" overflow="visible" d="M3.313 1.125h16v16h-16z"/><path style="marker:none" d="M10.11.031c-2.583 0-4.711 2.129-4.711 4.711v4.711h-1.57c-.87 0-1.57.7-1.57 1.57v9.422h8.488c-.218-.672-.393-1.364-.393-2.11 0-3.832 3.136-6.968 6.968-6.968a6.87 6.87 0 0 1 3.779 1.129v-1.472c0-.87-.7-1.57-1.57-1.57h-1.57V4.741c0-2.582-2.129-4.71-4.712-4.71h-3.14zm0 3.141h3.14c.898 0 1.57.673 1.57 1.57v4.711H8.54v-4.71c0-.898.673-1.571 1.57-1.571z" color="#bebebe" fill="#545454" overflow="visible"/><path fill="none" d="M-.563-.687h25.125v25.125H-.563z"/><path style="marker:none" color="#bebebe" fill="none" overflow="visible" d="M-1.187-.25h25.312v25.313H-1.187z"/><path d="M17.664 12.352c-.19-.008-.95.71-1.137.741-.186.032-1.11-.416-1.285-.346-.176.07-.585 1.032-.742 1.137-.157.105-1.202.112-1.334.247-.133.135-.097 1.175-.198 1.335-.101.16-1.072.613-1.137.79-.066.178.373 1.099.346 1.286-.027.187-.704.998-.692 1.186.012.189.79.856.84 1.038.051.182-.285 1.168-.198 1.335.088.167 1.116.497 1.236.643.121.145.247 1.168.396 1.285.148.117 1.165-.034 1.334.05.17.083.707.99.89 1.037.183.047 1.047-.502 1.236-.494.189.008 1.05.625 1.236.593.186-.032.763-.87.939-.939.176-.07 1.227.105 1.384 0 .157-.105.362-1.1.494-1.236.132-.135 1.135-.384 1.236-.544.101-.16-.164-1.157-.099-1.334.066-.178.912-.802.94-.989.027-.187-.582-.998-.594-1.186-.012-.189.496-1.103.445-1.285-.05-.182-.95-.673-1.038-.84-.088-.168.022-1.19-.099-1.335-.12-.146-1.186-.279-1.334-.396-.149-.117-.474-1.103-.643-1.186-.17-.084-1.151.244-1.335.197-.183-.046-.898-.783-1.087-.79zm-.099 2.323l.89 2.323 2.471.198-1.928 1.582.594 2.372-2.076-1.334-2.077 1.334.594-2.422-1.879-1.582 2.472-.148.939-2.323z" fill="#55a1e9"/></svg>