<svg xmlns="http://www.w3.org/2000/svg" width="24" height="24" version="1"><path style="marker:none" color="#bebebe" fill="none" overflow="visible" d="M25.687 27.125h-27.25V-.125h27.25z"/><path style="marker:none" color="#bebebe" fill="none" overflow="visible" d="M-1.68-4.353h27.358v27.358H-1.68z"/><path style="marker:none" color="#bebebe" fill="none" overflow="visible" d="M-1.68-18.074h27.402V9.328H-1.68z"/><path style="marker:none" color="#bebebe" fill="none" overflow="visible" d="M24.72 3.784l-6.756 25.214-25.215-6.756L-.495-2.972z"/><path style="marker:none" color="#bebebe" fill="none" overflow="visible" d="M-1.875 2.25H26v27.875H-1.875z"/><path style="marker:none" opacity=".515" color="#bebebe" fill="none" overflow="visible" d="M.437 24.063V.188h23.875v23.875z"/><path style="marker:none" color="#bebebe" fill="none" overflow="visible" d="M4.147 7.854h9.069v9.069H4.147z"/><path style="marker:none" color="#bebebe" fill="none" overflow="visible" d="M.063-.188h24v24h-24z"/><rect style="marker:none" y="-.125" x="-.875" ry=".151" rx=".144" height="16" width="16" color="#bebebe" fill="none" overflow="visible"/><path style="marker:none" color="#bebebe" fill="none" overflow="visible" d="M3.313 1.125h16v16h-16z"/><path fill="none" d="M-.563-.687h25.125v25.125H-.563z"/><path style="marker:none" color="#bebebe" fill="none" overflow="visible" d="M-1.187-.25h25.312v25.313H-1.187z"/><path style="marker:none" color="#bebebe" fill="none" overflow="visible" d="M-1.562 0h25.625v25.625H-1.562z"/><path d="M6.445 0C3.811 0 1.641 2.17 1.641 4.805v4.804h3.203V4.805c0-.915.686-1.602 1.601-1.602h3.203c.915 0 1.602.687 1.602 1.602v.4c.427-.239.892-.4 1.401-.4h1.802C14.453 2.17 12.283 0 9.648 0zM1.641 14.414s-1.602 0-1.602 1.602v8.007h16.016V20.82H12.65c-1.618 0-3.003-1.384-3.003-3.003v-3.403z" style="marker:none" color="#bebebe" fill="#545454" overflow="visible"/><path d="M12.651 6.406c-.789 0-1.401.613-1.401 1.402v10.01c0 .788.612 1.4 1.401 1.4h10.01c.789 0 1.401-.612 1.401-1.4V7.807c0-.79-.612-1.402-1.401-1.402H12.65zm3.403 1.602h3.203v6.406h-3.203V8.008zm0 8.008h3.203v1.601h-3.203v-1.601z" style="marker:none" class="warning" color="#bebebe" fill="#f57900" overflow="visible"/></svg>