<svg xmlns="http://www.w3.org/2000/svg" width="24" height="24" version="1"><path style="marker:none" color="#bebebe" fill="none" overflow="visible" d="M25.687 27.125h-27.25V-.125h27.25z"/><path style="marker:none" color="#bebebe" fill="none" overflow="visible" d="M-1.68-4.353h27.358v27.358H-1.68z"/><path style="marker:none" color="#bebebe" fill="none" overflow="visible" d="M-1.68-18.074h27.402V9.328H-1.68z"/><path style="marker:none" color="#bebebe" fill="none" overflow="visible" d="M24.72 3.784l-6.756 25.214-25.215-6.756L-.495-2.972z"/><path style="marker:none" color="#bebebe" fill="none" overflow="visible" d="M-1.875 2.25H26v27.875H-1.875z"/><path style="marker:none" opacity=".515" color="#bebebe" fill="none" overflow="visible" d="M.437 24.063V.188h23.875v23.875z"/><path style="marker:none" color="#bebebe" fill="none" overflow="visible" d="M4.147 7.854h9.069v9.069H4.147z"/><path style="marker:none" color="#bebebe" fill="none" overflow="visible" d="M.063-.188h24v24h-24z"/><rect style="marker:none" y="-.125" x="-.875" ry=".151" rx=".144" height="16" width="16" color="#bebebe" fill="none" overflow="visible"/><path style="marker:none" color="#bebebe" fill="none" overflow="visible" d="M3.313 1.125h16v16h-16z"/><path style="marker:none" d="M10.11.031c-2.583 0-4.711 2.129-4.711 4.711v4.711h-1.57c-.87 0-1.57.7-1.57 1.57v9.422h8.488c-.218-.672-.393-1.364-.393-2.11 0-3.832 3.136-6.968 6.968-6.968a6.87 6.87 0 0 1 3.779 1.129v-1.472c0-.87-.7-1.57-1.57-1.57h-1.57V4.741c0-2.582-2.129-4.71-4.712-4.71h-3.14zm0 3.141h3.14c.898 0 1.57.673 1.57 1.57v4.711H8.54v-4.71c0-.898.673-1.571 1.57-1.571z" color="#bebebe" fill="#545454" overflow="visible"/><path fill="none" d="M-.563-.687h25.125v25.125H-.563z"/><path style="marker:none" color="#bebebe" fill="none" overflow="visible" d="M-1.187-.25h25.312v25.313H-1.187z"/><path style="marker:none" d="M17.401 12.924a5.537 5.537 0 1 0 0 11.074 5.537 5.537 0 0 0 0-11.074zm2.324 2.966h1.137v1.187l-3.115 3.362c.134-.186-1.087 1.087-1.087 1.087s-1.092-1.034-1.137-1.087l-.84-.84v-1.187h1.087l.89.89 3.065-3.412z" color="#bebebe" fill="#1aac36" overflow="visible"/></svg>