<?xml version="1.0" encoding="UTF-8" standalone="no"?>
<!-- Created with Inkscape (http://www.inkscape.org/) -->

<svg
   xmlns:dc="http://purl.org/dc/elements/1.1/"
   xmlns:cc="http://creativecommons.org/ns#"
   xmlns:rdf="http://www.w3.org/1999/02/22-rdf-syntax-ns#"
   xmlns:svg="http://www.w3.org/2000/svg"
   xmlns="http://www.w3.org/2000/svg"
   xmlns:sodipodi="http://sodipodi.sourceforge.net/DTD/sodipodi-0.dtd"
   xmlns:inkscape="http://www.inkscape.org/namespaces/inkscape"
   width="295.40631"
   height="159.43761"
   id="svg15622"
   version="1.1"
   inkscape:version="0.48.3.1 r9886"
   sodipodi:docname="dial_tip2.svg">
  <defs
     id="defs15624" />
  <sodipodi:namedview
     id="base"
     pagecolor="#ffffff"
     bordercolor="#666666"
     borderopacity="1.0"
     inkscape:pageopacity="0.0"
     inkscape:pageshadow="2"
     inkscape:zoom="1.979899"
     inkscape:cx="195.92694"
     inkscape:cy="86.27628"
     inkscape:document-units="px"
     inkscape:current-layer="layer1"
     showgrid="false"
     fit-margin-top="0"
     fit-margin-left="0"
     fit-margin-right="0"
     fit-margin-bottom="0"
     inkscape:window-width="1600"
     inkscape:window-height="853"
     inkscape:window-x="-2"
     inkscape:window-y="-3"
     inkscape:window-maximized="1" />
  <metadata
     id="metadata15627">
    <rdf:RDF>
      <cc:Work
         rdf:about="">
        <dc:format>image/svg+xml</dc:format>
        <dc:type
           rdf:resource="http://purl.org/dc/dcmitype/StillImage" />
        <dc:title />
      </cc:Work>
    </rdf:RDF>
  </metadata>
  <g
     inkscape:label="Calque 1"
     inkscape:groupmode="layer"
     id="layer1"
     transform="translate(-263.72542,-409.78624)">
    <path
       inkscape:connector-curvature="0"
       style="opacity:0.08870969;fill:BACKGROUD_COLOR_ROLE;fill-opacity:1;stroke:none"
       d="m 274.22542,409.78624 c -5.8074,2e-4 -10.5,4.7351 -10.5,10.625 l 0,138.1876 c 0,5.8899 4.6926,10.625 10.5,10.625 l 274.4376,0 c 5.8074,-2e-4 10.4687,-4.7351 10.4687,-10.625 l 0,-138.1876 c 0,-5.8899 -4.6613,-10.625 -10.4687,-10.625 l -274.4376,0 z m 28.9376,80.8126 a 3.8052008,3.8052008 0 0 1 0.375,0 l 32.3437,0 a 3.8052008,3.8052008 0 0 1 3.8125,3.7812 l 0,28.5625 14.4688,0 a 3.8052008,3.8052008 0 0 1 2.375,6.7813 l -34.125,26.9062 a 3.8052008,3.8052008 0 0 1 -4.6876,0 l -34.75,-26.9375 a 3.8052008,3.8052008 0 0 1 2.3126,-6.8125 l 14.4374,0 0,-28.5 a 3.8052008,3.8052008 0 0 1 3.4376,-3.7812 z m 108.4687,2.4062 114.5625,0 c 0.1027,-0.01 0.2097,0 0.3125,0 1.5417,0 3.0882,0.448 4.3437,1.3438 1.8708,1.2934 3.0757,3.519 3.125,5.8124 0.01,11.3127 0,22.6249 0,33.9376 0.068,1.6776 -0.4065,3.3705 -1.4062,4.7187 -1.3089,1.817 -3.4916,2.961 -5.75,3 l -114.6875,0 c -1.6429,0.07 -3.3168,-0.3569 -4.6563,-1.3125 -1.8705,-1.2935 -3.0755,-3.5191 -3.125,-5.8125 -0.01,-11.3125 0,-22.6249 0,-33.9375 -0.069,-1.6902 0.4227,-3.3972 1.4376,-4.75 1.328,-1.8261 3.5656,-2.99 5.8437,-3 z m 1.5313,4.4375 c -0.1956,0.042 -0.3836,0.162 -0.4376,0.375 -0.083,0.511 -0.011,1.0444 -0.031,1.5625 -0.064,0.3257 0.1387,0.68 0.4688,0.75 0.9356,0.044 1.8751,0 2.8124,0 0.3178,0.035 0.7607,-0.039 0.8438,-0.4062 0.034,-0.5096 -0.014,-1.0194 0,-1.5313 0.038,-0.2989 -0.068,-0.6598 -0.4062,-0.7187 -0.5394,-0.055 -1.0805,-0.015 -1.625,-0.031 -0.4385,0 -0.8741,-0.01 -1.3126,0 -0.036,-0.01 -0.087,0 -0.125,0 -0.066,-10e-5 -0.1224,-0.014 -0.1874,0 z m 7.25,0 c -0.1956,0.042 -0.3524,0.162 -0.4063,0.375 -0.083,0.511 -0.011,1.0444 -0.031,1.5625 -0.064,0.3257 0.1075,0.68 0.4376,0.75 0.9356,0.044 1.8751,0 2.8124,0 0.3178,0.035 0.7607,-0.039 0.8438,-0.4062 0.033,-0.5096 0.017,-1.0194 0.031,-1.5313 0.038,-0.2989 -0.099,-0.6598 -0.4374,-0.7187 -0.5394,-0.055 -1.0805,-0.015 -1.625,-0.031 -0.4385,0 -0.8741,-0.01 -1.3126,0 -0.036,-0.01 -0.087,0 -0.125,0 -0.066,-10e-5 -0.1224,-0.014 -0.1874,0 z m 7.4062,0 c -0.2492,0.011 -0.4954,0.1103 -0.5625,0.375 -0.083,0.5111 -0.011,1.0442 -0.031,1.5625 -0.074,0.3558 0.1901,0.735 0.5626,0.75 7.9303,0.017 15.8507,0.01 23.7812,0 0.3155,0.039 0.7618,-0.043 0.8438,-0.4062 0.032,-0.5405 -0.01,-1.0823 0,-1.625 0.045,-0.3093 -0.1387,-0.6433 -0.4688,-0.6563 -4.0258,-0.024 -8.0654,0.01 -12.0938,0 -3.9465,0 -7.897,-0.01 -11.8437,0 l -0.125,0 -0.062,0 z m 28.4375,0 c -0.2492,0.011 -0.5267,0.1103 -0.5937,0.375 -0.084,0.5111 -0.011,1.0442 -0.031,1.5625 -0.074,0.3558 0.19,0.735 0.5625,0.75 7.9305,0.017 15.8508,0.01 23.7812,0 0.3157,0.039 0.7618,-0.043 0.8438,-0.4062 0.032,-0.5406 -0.01,-1.0823 0,-1.625 0.045,-0.3093 -0.1386,-0.6433 -0.4688,-0.6563 -4.0256,-0.024 -8.0654,0.01 -12.0937,0 -3.9467,0 -7.8973,-0.01 -11.8437,0 l -0.125,0 -0.031,0 z m 28.3125,0 c -0.2493,0.011 -0.4954,0.1103 -0.5625,0.375 -0.083,0.5111 -0.011,1.0442 -0.031,1.5625 -0.074,0.3558 0.1588,0.735 0.5313,0.75 7.9308,0.017 15.8816,0.01 23.8125,0 0.3155,0.039 0.7305,-0.043 0.8125,-0.4062 0.032,-0.5406 0.021,-1.0823 0.031,-1.625 0.045,-0.3093 -0.1701,-0.6433 -0.5,-0.6563 -4.0263,-0.024 -8.0651,0.01 -12.0938,0 -3.9467,0 -7.8971,-0.01 -11.8438,0 l -0.125,0 -0.031,0 z m 28.2188,0 c -0.1956,0.042 -0.3836,0.162 -0.4376,0.375 -0.083,0.511 -0.011,1.0444 -0.031,1.5625 -0.064,0.3257 0.1387,0.68 0.4688,0.75 0.936,0.044 1.8746,0 2.8124,0 0.3169,0.035 0.7622,-0.039 0.8438,-0.4062 0.034,-0.5096 -0.014,-1.0194 0,-1.5313 0.037,-0.2987 -0.068,-0.6598 -0.4062,-0.7187 -0.5398,-0.055 -1.0801,-0.015 -1.625,-0.031 -0.4385,0 -0.8741,-0.01 -1.3126,0 -0.036,-0.01 -0.087,0 -0.125,0 -0.066,-10e-5 -0.1224,-0.014 -0.1874,0 z m 7.2812,0 c -0.1954,0.042 -0.3836,0.162 -0.4375,0.375 -0.083,0.511 -0.011,1.0444 -0.031,1.5625 -0.064,0.3257 0.1388,0.68 0.4688,0.75 0.9358,0.044 1.875,0 2.8125,0 0.3176,0.035 0.7294,-0.039 0.8125,-0.4062 0.033,-0.5096 0.017,-1.0194 0.031,-1.5313 0.038,-0.2989 -0.068,-0.6598 -0.4062,-0.7187 -0.5392,-0.055 -1.0804,-0.015 -1.625,-0.031 -0.4383,0 -0.9053,-0.01 -1.3438,0 -0.036,-0.01 -0.056,0 -0.094,0 -0.066,-10e-5 -0.1224,-0.014 -0.1875,0 z m -212.75,0.75 0,28.4687 a 3.8052008,3.8052008 0 0 1 -3.7812,3.8126 l -7.125,0 23.625,18.3437 23.1874,-18.2813 -7.3437,0 a 3.8052008,3.8052008 0 0 1 -3.8125,-3.7812 l 0,-28.5625 -24.75,0 z m 105.7812,5 c -0.228,0.05 -0.4445,0.2244 -0.4687,0.4687 -0.041,1.0004 0.012,2.0294 0,3.0313 -0.064,0.3242 0.1065,0.667 0.4375,0.75 0.6573,0.059 1.3393,0.021 2,0.031 0.3187,0.039 0.7224,-0.069 0.7812,-0.4376 0.015,-0.9742 -0.01,-1.9621 0,-2.9374 0.017,-0.3068 0.043,-0.7249 -0.3124,-0.8438 -0.2026,-0.044 -0.4116,-0.073 -0.625,-0.062 -0.2137,0 -0.4467,0.014 -0.6563,0 -0.3178,0 -0.6197,-0.01 -0.9375,0 -0.075,-0.01 -0.1427,-0.017 -0.2188,0 z m 6.4376,0 c -0.2701,0.01 -0.5651,0.1786 -0.5938,0.4687 -0.041,1.0004 0.012,1.9982 0,3 -0.068,0.334 0.1245,0.7093 0.4688,0.7813 1.0429,0.044 2.08,0.031 3.125,0.031 0.3216,0.042 0.7523,-0.062 0.8124,-0.4376 0.015,-1.0218 0.026,-2.0395 0.031,-3.0624 0.04,-0.2985 -0.069,-0.6922 -0.4063,-0.75 -0.5887,-0.055 -1.2182,-0.015 -1.8124,-0.031 -0.5121,0 -1.0194,0.021 -1.5313,0.031 -0.038,-0.01 -0.055,-0.031 -0.094,-0.031 z m 7.5624,0 c -0.2699,0.01 -0.5338,0.1786 -0.5624,0.4687 -0.041,1.0004 -0.02,1.9982 -0.031,3 -0.068,0.334 0.1247,0.7093 0.4687,0.7813 1.0433,0.044 2.0802,0.031 3.125,0.031 0.3219,0.042 0.7522,-0.062 0.8126,-0.4376 0.015,-1.0218 0.026,-2.0395 0.031,-3.0624 0.04,-0.2985 -0.069,-0.6922 -0.4062,-0.75 -0.589,-0.055 -1.187,-0.015 -1.7813,-0.031 -0.512,0 -1.0506,0.021 -1.5625,0.031 -0.038,-0.01 -0.055,-0.031 -0.094,-0.031 z m 7.5626,0 c -0.2701,0.01 -0.5338,0.1786 -0.5626,0.4687 -0.041,1.0004 -0.02,1.9982 -0.031,3 -0.068,0.334 0.1245,0.7093 0.4688,0.7813 1.0429,0.044 2.1114,0.031 3.1562,0.031 0.3218,0.042 0.7523,-0.062 0.8125,-0.4376 0.015,-1.0218 -0.01,-2.0395 0,-3.0624 0.039,-0.2988 -0.069,-0.6922 -0.4063,-0.75 -0.5887,-0.055 -1.1869,-0.015 -1.7812,-0.031 -0.512,0 -1.0195,0.021 -1.5312,0.031 -0.038,-0.01 -0.087,-0.031 -0.125,-0.031 z m 7.5624,0 c -0.2699,0.01 -0.5338,0.1786 -0.5624,0.4687 -0.041,1.0004 0.011,1.9982 0,3 -0.068,0.334 0.093,0.7093 0.4374,0.7813 1.0433,0.044 2.1115,0.031 3.1563,0.031 0.3218,0.042 0.7523,-0.062 0.8125,-0.4376 0.015,-1.0218 -0.01,-2.0395 0,-3.0624 0.04,-0.2985 -0.069,-0.6922 -0.4062,-0.75 -0.589,-0.055 -1.187,-0.015 -1.7813,-0.031 -0.512,0 -1.0192,0.021 -1.5313,0.031 -0.038,-0.01 -0.086,-0.031 -0.125,-0.031 z m 7.5626,0 c -0.2701,0.01 -0.5337,0.1786 -0.5626,0.4687 -0.041,1.0004 0.012,1.9982 0,3 -0.068,0.334 0.1248,0.7093 0.4688,0.7813 1.0559,0.044 2.0986,0.031 3.1562,0.031 0.3125,0.041 0.7259,-0.08 0.7813,-0.4376 0.015,-1.0218 -0.01,-2.0395 0,-3.0624 0.039,-0.2985 -0.069,-0.6922 -0.4063,-0.75 -0.5891,-0.055 -1.1865,-0.015 -1.7812,-0.031 -0.512,0 -1.0194,0.021 -1.5312,0.031 -0.038,-0.01 -0.087,-0.031 -0.125,-0.031 z m 7.5624,0 c -0.2699,0.01 -0.5337,0.1788 -0.5624,0.4687 -0.041,1.0004 0.011,1.9982 0,3 -0.068,0.3341 0.124,0.7103 0.4687,0.7813 1.043,0.044 2.0802,0.031 3.125,0.031 0.3218,0.042 0.7523,-0.062 0.8125,-0.4376 0.015,-1.0218 0.026,-2.0395 0.031,-3.0624 0.04,-0.2985 -0.069,-0.6922 -0.4062,-0.75 -0.5892,-0.055 -1.2179,-0.015 -1.8125,-0.031 -0.512,0 -1.0192,0.021 -1.5313,0.031 -0.038,-0.01 -0.086,-0.031 -0.125,-0.031 z m 7.5938,0 c -0.2697,0.01 -0.533,0.1794 -0.5625,0.4687 -0.041,1.0004 -0.02,1.9982 -0.031,3 -0.068,0.3336 0.1234,0.7083 0.4688,0.7813 1.0432,0.044 2.0802,0.031 3.125,0.031 0.3218,0.042 0.7523,-0.062 0.8125,-0.4376 0.015,-1.0218 0.026,-2.0395 0.031,-3.0624 0.039,-0.2985 -0.069,-0.6922 -0.4063,-0.75 -0.5892,-0.055 -1.2178,-0.015 -1.8125,-0.031 -0.512,0 -1.0195,0.021 -1.5312,0.031 -0.038,-0.01 -0.055,-0.031 -0.094,-0.031 z m 7.5625,0 c -0.2696,0.01 -0.5339,0.1791 -0.5625,0.4687 -0.041,1.0004 -0.02,1.9982 -0.031,3 -0.068,0.334 0.1246,0.7093 0.4687,0.7813 1.0431,0.044 2.1113,0.031 3.1563,0.031 0.3216,0.042 0.721,-0.062 0.7812,-0.4376 0.015,-1.0218 0.026,-2.0395 0.031,-3.0624 0.04,-0.2985 -0.069,-0.6922 -0.4062,-0.75 -0.5892,-0.055 -1.1867,-0.015 -1.7812,-0.031 -0.5121,0 -1.0505,0.021 -1.5626,0.031 -0.038,-0.01 -0.055,-0.031 -0.094,-0.031 z m 7.5625,0 c -0.2699,0.01 -0.5338,0.1786 -0.5625,0.4687 -0.041,1.0004 0.011,1.9982 0,3 -0.068,0.334 0.093,0.7093 0.4375,0.7813 1.0431,0.044 2.1114,0.031 3.1562,0.031 0.322,0.042 0.7523,-0.062 0.8126,-0.4376 0.014,-1.0218 -0.01,-2.0395 0,-3.0624 0.039,-0.2985 -0.069,-0.6922 -0.4063,-0.75 -0.5889,-0.055 -1.1869,-0.015 -1.7813,-0.031 -0.5118,0 -1.0192,0.021 -1.5312,0.031 -0.038,-0.01 -0.086,-0.031 -0.125,-0.031 z m 7.5,0 c -0.2699,0.01 -0.5338,0.1786 -0.5625,0.4687 -0.041,1.0004 -0.02,1.9982 -0.031,3 -0.068,0.334 0.1247,0.7093 0.4688,0.7813 1.0431,0.044 2.1114,0.031 3.1562,0.031 0.3219,0.042 0.7211,-0.062 0.7813,-0.4376 0.015,-1.0218 0.026,-2.0395 0.031,-3.0624 0.039,-0.2985 -0.069,-0.6922 -0.4063,-0.75 -0.5888,-0.055 -1.1869,-0.015 -1.7813,-0.031 -0.5119,0 -1.0193,0.021 -1.5312,0.031 -0.038,-0.01 -0.086,-0.031 -0.125,-0.031 z m 7.625,0 c -0.2699,0.01 -0.5338,0.1786 -0.5625,0.4687 -0.041,1.0004 0.012,1.9982 0,3 -0.068,0.334 0.1247,0.7093 0.4687,0.7813 1.0432,0.044 2.0802,0.031 3.125,0.031 0.3219,0.042 0.7522,-0.062 0.8126,-0.4376 0.014,-1.0218 -0.01,-2.0395 0,-3.0624 0.039,-0.2985 -0.069,-0.6922 -0.4063,-0.75 -0.5889,-0.055 -1.1869,-0.015 -1.7813,-0.031 -0.5118,0 -1.0193,0.021 -1.5312,0.031 -0.038,-0.01 -0.086,-0.031 -0.125,-0.031 z m 7.5625,0 c -0.2666,0.01 -0.5342,0.1833 -0.5625,0.4687 -0.041,1.0004 0.011,1.9982 0,3 -0.072,0.3446 0.14,0.7596 0.5,0.8126 1.8615,0.034 3.7315,-10e-5 5.5938,0 0.3156,0.041 0.7232,-0.074 0.7812,-0.4376 0.014,-1.0342 0,-2.0583 0,-3.0937 0.042,-0.299 -0.1064,-0.6737 -0.4375,-0.7187 -0.9922,-0.043 -1.9727,-0.019 -2.9687,-0.031 -0.9249,0 -1.8566,0.021 -2.7813,0.031 -0.038,-0.01 -0.087,-0.031 -0.125,-0.031 z m 10.125,0 c -0.2699,0.01 -0.5651,0.1791 -0.5937,0.4687 -0.041,1.006 0.012,2.024 0,3.0313 -0.073,0.349 0.1662,0.7451 0.5312,0.7813 3.3375,0.029 6.6623,0.01 10,0 0.3184,0.043 0.7536,-0.07 0.8125,-0.4376 0.014,-1.0466 0,-2.1085 0,-3.1562 0.043,-0.301 -0.1422,-0.6292 -0.4687,-0.6562 -1.7279,-0.031 -3.4565,-0.021 -5.1876,-0.031 -1.6653,0 -3.3345,0.021 -5,0.031 -0.038,-0.01 -0.055,-0.031 -0.094,-0.031 z m 2.625,7.3125 c -0.8389,0 -1.6611,0.021 -2.5,0.031 -0.3163,-0.048 -0.6512,0.1639 -0.6563,0.5 -0.021,3.4285 0.01,6.8839 0,10.3126 -0.065,0.3413 0.1786,0.6827 0.5313,0.7187 3.3499,0.029 6.681,0.041 10.0313,0.031 0.3201,0.047 0.7488,-0.1004 0.7812,-0.4688 10e-4,-3.4652 0,-6.9405 0,-10.4062 0.046,-0.3026 -0.1402,-0.6595 -0.4688,-0.6876 -1.7276,-0.031 -3.4565,0.01 -5.1874,0 l -2.5313,0 0,-0.031 z m -102.2187,0.031 c -0.2701,0.01 -0.5337,0.1787 -0.5626,0.4688 -0.041,1.0003 -0.02,2.0294 -0.031,3.0312 -0.068,0.3338 0.1245,0.7103 0.4688,0.7813 1.043,0.044 2.1114,0 3.1562,0 0.3218,0.042 0.7211,-0.062 0.7812,-0.4375 0.015,-1.0219 0.026,-2.0396 0.031,-3.0625 0.04,-0.2986 -0.069,-0.692 -0.4063,-0.75 -0.5887,-0.055 -1.1869,-0.015 -1.7812,-0.031 -0.512,0 -1.0505,0.021 -1.5625,0.031 -0.038,-0.01 -0.055,-0.031 -0.094,-0.031 z m 7.6562,0 c -0.2699,0.01 -0.5338,0.1787 -0.5625,0.4688 -0.041,1.0003 -0.02,2.0294 -0.031,3.0312 -0.068,0.3338 0.1247,0.7103 0.4688,0.7813 1.0431,0.044 2.1114,0 3.1562,0 0.3219,0.042 0.721,-0.062 0.7813,-0.4375 0.015,-1.0219 0.026,-2.0396 0.031,-3.0625 0.039,-0.2986 -0.069,-0.692 -0.4063,-0.75 -0.5889,-0.055 -1.1869,-0.015 -1.7813,-0.031 -0.5118,0 -1.0506,0.021 -1.5624,0.031 -0.038,-0.01 -0.055,-0.031 -0.094,-0.031 z m 7.5625,0 c -0.2699,0.01 -0.5338,0.1787 -0.5625,0.4688 -0.041,1.0003 0.012,2.0294 0,3.0312 -0.068,0.3338 0.093,0.7103 0.4375,0.7813 1.0431,0.044 2.1113,0 3.1563,0 0.3217,0.042 0.7523,-0.062 0.8124,-0.4375 0.015,-1.0219 0,-2.0396 0,-3.0625 0.04,-0.2986 -0.069,-0.692 -0.4062,-0.75 -0.5888,-0.055 -1.187,-0.015 -1.7812,-0.031 -0.5121,0 -1.0194,0.021 -1.5313,0.031 -0.038,-0.01 -0.086,-0.031 -0.125,-0.031 z m 7.5625,0 c -0.2699,0.01 -0.5338,0.1787 -0.5625,0.4688 -0.041,1.0003 0.012,2.0294 0,3.0312 -0.068,0.3338 0.1247,0.7103 0.4687,0.7813 1.0432,0.044 2.0802,0 3.125,0 0.322,0.042 0.7523,-0.062 0.8126,-0.4375 0.015,-1.0219 -0.01,-2.0396 0,-3.0625 0.039,-0.2987 -0.07,-0.692 -0.4063,-0.75 -0.5889,-0.055 -1.1869,-0.015 -1.7813,-0.031 -0.5118,0 -1.0193,0.021 -1.5312,0.031 -0.038,-0.01 -0.086,-0.031 -0.125,-0.031 z m 7.5625,0 c -0.2699,0.01 -0.5338,0.1787 -0.5625,0.4688 -0.041,1.0003 0.011,2.0294 0,3.0312 -0.068,0.3338 0.1245,0.7103 0.4688,0.7813 1.043,0.044 2.08,0 3.125,0 0.3217,0.042 0.7523,-0.062 0.8124,-0.4375 0.015,-1.0219 0,-2.0396 0,-3.0625 0.04,-0.2986 -0.069,-0.692 -0.4062,-0.75 -0.5889,-0.055 -1.1869,-0.015 -1.7812,-0.031 -0.5121,0 -1.0193,0.021 -1.5313,0.031 -0.038,-0.01 -0.086,-0.031 -0.125,-0.031 z m 7.5937,0 c -0.2699,0.01 -0.565,0.1787 -0.5937,0.4688 -0.041,1.0003 0.012,2.0294 0,3.0312 -0.068,0.3338 0.1248,0.7103 0.4687,0.7813 1.056,0.044 2.0986,0 3.1563,0 0.3123,0.041 0.7258,-0.08 0.7813,-0.4375 0.014,-1.0219 0.026,-2.0396 0.031,-3.0625 0.039,-0.2983 -0.069,-0.692 -0.4062,-0.75 -0.5894,-0.055 -1.2178,-0.015 -1.8126,-0.031 -0.5118,0 -1.0192,0.021 -1.5312,0.031 -0.038,-0.01 -0.055,-0.031 -0.094,-0.031 z m 7.5626,0 c -0.2701,0.01 -0.5337,0.1787 -0.5626,0.4688 -0.041,1.0003 -0.02,2.0294 -0.031,3.0312 -0.068,0.3341 0.1238,0.7103 0.4688,0.7813 1.0429,0.044 2.08,0 3.125,0 0.3216,0.042 0.7522,-0.062 0.8124,-0.4375 0.015,-1.0219 0.026,-2.0396 0.031,-3.0625 0.04,-0.2986 -0.069,-0.692 -0.4063,-0.75 -0.5891,-0.055 -1.1866,-0.015 -1.7812,-0.031 -0.512,0 -1.0506,0.021 -1.5625,0.031 -0.038,-0.01 -0.055,-0.031 -0.094,-0.031 z m 7.5624,0 c -0.2695,0.01 -0.5329,0.1793 -0.5624,0.4688 -0.041,1.0003 -0.02,2.0294 -0.031,3.0312 -0.068,0.3334 0.1234,0.7083 0.4687,0.7813 1.0433,0.044 2.1115,0 3.1563,0 0.3218,0.042 0.7523,-0.062 0.8125,-0.4375 0.015,-1.0219 -0.01,-2.0396 0,-3.0625 0.04,-0.2986 -0.069,-0.692 -0.4062,-0.75 -0.5894,-0.055 -1.1866,-0.015 -1.7813,-0.031 -0.512,0 -1.0194,0.021 -1.5313,0.031 -0.038,-0.01 -0.086,-0.031 -0.125,-0.031 z m 7.5626,0 c -0.2697,0.01 -0.5338,0.1792 -0.5626,0.4688 -0.041,1.0003 0.011,2.0294 0,3.0312 -0.068,0.3338 0.093,0.7103 0.4376,0.7813 1.0429,0.044 2.1114,0 3.1562,0 0.3218,0.042 0.7522,-0.062 0.8125,-0.4375 0.015,-1.0219 -0.01,-2.0396 0,-3.0625 0.04,-0.2986 -0.069,-0.692 -0.4063,-0.75 -0.5891,-0.055 -1.1865,-0.015 -1.7812,-0.031 -0.512,0 -1.0194,0.021 -1.5312,0.031 -0.038,-0.01 -0.087,-0.031 -0.125,-0.031 z m 7.5624,0 c -0.2699,0.01 -0.5338,0.1787 -0.5624,0.4688 -0.041,1.0003 0.011,2.0294 0,3.0312 -0.068,0.3338 0.1246,0.7103 0.4687,0.7813 1.0431,0.044 2.0802,0 3.125,0 0.3218,0.042 0.7523,-0.062 0.8125,-0.4375 0.015,-1.0219 -0.01,-2.0396 0,-3.0625 0.04,-0.2986 -0.069,-0.692 -0.4062,-0.75 -0.589,-0.055 -1.187,-0.015 -1.7813,-0.031 -0.512,0 -1.0192,0.021 -1.5313,0.031 -0.038,-0.01 -0.086,-0.031 -0.125,-0.031 z m 7.5626,0 c -0.2701,0.01 -0.5337,0.1787 -0.5626,0.4688 -0.041,1.0003 0.012,2.0294 0,3.0312 -0.068,0.3338 0.1247,0.7103 0.4688,0.7813 1.0431,0.044 2.0802,0 3.125,0 0.3218,0.042 0.7523,-0.062 0.8125,-0.4375 0.015,-1.0219 -0.01,-2.0396 0,-3.0625 0.04,-0.2986 -0.069,-0.692 -0.4063,-0.75 -0.5887,-0.055 -1.1869,-0.015 -1.7812,-0.031 -0.512,0 -1.0194,0.021 -1.5312,0.031 -0.038,-0.01 -0.087,-0.031 -0.125,-0.031 z m 7.5937,0 c -0.2699,0.01 -0.5338,0.1787 -0.5625,0.4688 -0.041,1.0003 -0.02,2.0294 -0.031,3.0312 -0.068,0.3338 0.1246,0.7103 0.4687,0.7813 1.0431,0.044 2.0801,0 3.125,0 0.3218,0.042 0.7522,-0.062 0.8125,-0.4375 0.015,-1.0219 0.026,-2.0396 0.031,-3.0625 0.04,-0.2986 -0.069,-0.692 -0.4062,-0.75 -0.5888,-0.055 -1.2182,-0.015 -1.8125,-0.031 -0.512,0 -1.0192,0.021 -1.5313,0.031 -0.038,-0.01 -0.055,-0.031 -0.094,-0.031 z m 7.5625,0 c -0.2736,0.01 -0.5334,0.1739 -0.5625,0.4688 -0.041,1.0003 -0.02,2.0294 -0.031,3.0312 -0.072,0.3446 0.1402,0.7273 0.5,0.7813 1.4201,0.033 2.8606,0 4.2813,0 0.3122,0.04 0.6934,-0.081 0.75,-0.4375 0.014,-1.0343 0.027,-2.0582 0.031,-3.0938 0.042,-0.2988 -0.1065,-0.6737 -0.4376,-0.7187 -0.7687,-0.043 -1.5396,-0.018 -2.3124,-0.031 -0.6943,0 -1.3997,0.021 -2.0938,0.031 -0.038,-0.01 -0.086,-0.031 -0.125,-0.031 z m -91,7.2813 c -0.2625,0.012 -0.5347,0.1888 -0.5625,0.4687 -0.041,1.0004 0.011,1.9982 0,3 -0.072,0.3444 0.14,0.7273 0.5,0.7813 1.4692,0.033 2.9363,0.031 4.4063,0.031 0.3123,0.04 0.7245,-0.081 0.7812,-0.4376 0.014,-1.0342 0,-2.0897 0,-3.125 0.042,-0.2988 -0.1064,-0.6424 -0.4375,-0.6874 -0.7937,-0.043 -1.5773,-0.019 -2.375,-0.031 -0.7306,0 -1.4882,-0.01 -2.2187,0 -0.037,-0.01 -0.056,0 -0.094,0 z m 8.8125,0 c -0.2699,0.01 -0.5338,0.1788 -0.5625,0.4687 -0.041,1.0006 0.011,1.9982 0,3 -0.068,0.3338 0.093,0.7093 0.4375,0.7813 1.0431,0.044 2.1113,0.031 3.1563,0.031 0.3217,0.041 0.7523,-0.062 0.8124,-0.4376 0.015,-1.0218 0,-2.0395 0,-3.0624 0.04,-0.2985 -0.069,-0.6922 -0.4062,-0.75 -0.5889,-0.055 -1.187,-0.015 -1.7812,-0.031 -0.5121,0 -1.0193,-0.01 -1.5313,0 -0.038,-0.01 -0.086,0 -0.125,0 z m 7.5625,0 c -0.2699,0.01 -0.5338,0.1788 -0.5625,0.4687 -0.041,1.0006 0.011,1.9982 0,3 -0.068,0.3338 0.1247,0.7093 0.4687,0.7813 1.0432,0.044 2.0802,0.031 3.125,0.031 0.3219,0.041 0.7522,-0.062 0.8126,-0.4376 0.014,-1.0218 -0.01,-2.0395 0,-3.0624 0.039,-0.2985 -0.069,-0.6922 -0.4063,-0.75 -0.5889,-0.055 -1.1869,-0.015 -1.7813,-0.031 -0.5118,0 -1.0192,-0.01 -1.5312,0 -0.038,-0.01 -0.086,0 -0.125,0 z m 7.5625,0 c -0.2699,0.01 -0.5338,0.1788 -0.5625,0.4687 -0.041,1.0006 0.011,1.9982 0,3 -0.068,0.3338 0.1245,0.7093 0.4688,0.7813 1.0429,0.044 2.08,0.031 3.125,0.031 0.3217,0.041 0.7523,-0.062 0.8124,-0.4376 0.015,-1.0218 0,-2.0395 0,-3.0624 0.039,-0.2987 -0.069,-0.6911 -0.4062,-0.75 -0.5888,-0.055 -1.187,-0.015 -1.7812,-0.031 -0.5121,0 -1.0194,-0.01 -1.5313,0 -0.038,-0.01 -0.086,0 -0.125,0 z m 7.5937,0 c -0.2699,0.01 -0.565,0.1788 -0.5937,0.4687 -0.041,1.0006 0.011,1.9982 0,3 -0.068,0.3338 0.1247,0.7093 0.4687,0.7813 1.0432,0.044 2.0802,0.031 3.125,0.031 0.322,0.041 0.7523,-0.062 0.8126,-0.4376 0.014,-1.0218 0.026,-2.0395 0.031,-3.0624 0.04,-0.2985 -0.069,-0.6922 -0.4062,-0.75 -0.589,-0.055 -1.2181,-0.015 -1.8126,-0.031 -0.5118,0 -1.0193,-0.01 -1.5312,0 -0.038,-0.01 -0.055,0 -0.094,0 z m 7.5626,0 c -0.2701,0.01 -0.5339,0.1788 -0.5626,0.4687 -0.041,1.0006 -0.02,1.9982 -0.031,3 -0.068,0.3338 0.1247,0.7093 0.4688,0.7813 1.0558,0.044 2.1298,0.031 3.1874,0.031 0.3125,0.041 0.6948,-0.08 0.75,-0.4376 0.015,-1.0218 0.026,-2.0395 0.031,-3.0624 0.039,-0.2983 -0.069,-0.6911 -0.4063,-0.75 -0.5891,-0.055 -1.1865,-0.015 -1.7812,-0.031 -0.512,0 -1.0505,-0.01 -1.5625,0 -0.038,-0.01 -0.055,0 -0.094,0 z m 7.5624,0 c -0.2699,0.01 -0.5338,0.1788 -0.5624,0.4687 -0.041,1.0006 -0.02,1.9982 -0.031,3 -0.068,0.334 0.1239,0.7103 0.4687,0.7813 1.0432,0.044 2.1115,0.031 3.1563,0.031 0.3218,0.041 0.7523,-0.062 0.8125,-0.4376 0.015,-1.0218 -0.01,-2.0395 0,-3.0624 0.04,-0.2985 -0.069,-0.6922 -0.4062,-0.75 -0.5894,-0.055 -1.1867,-0.015 -1.7813,-0.031 -0.512,0 -1.0192,-0.01 -1.5313,0 -0.038,-0.01 -0.086,0 -0.125,0 z m 7.5626,0 c -0.2698,0.01 -0.5329,0.1794 -0.5626,0.4687 -0.041,1.0006 0.011,1.9982 0,3 -0.068,0.3334 0.1234,0.7083 0.4688,0.7813 1.0432,0.044 2.0801,0.031 3.125,0.031 0.3218,0.041 0.7522,-0.062 0.8125,-0.4376 0.015,-1.0218 -0.01,-2.0395 0,-3.0624 0.04,-0.2985 -0.069,-0.6922 -0.4063,-0.75 -0.5891,-0.055 -1.1865,-0.015 -1.7812,-0.031 -0.512,0 -1.0195,-0.01 -1.5312,0 -0.038,-0.01 -0.087,0 -0.125,0 z m 7.5624,0 c -0.2694,0.01 -0.5338,0.1791 -0.5624,0.4687 -0.041,1.0006 0.011,1.9982 0,3 -0.068,0.3338 0.1246,0.7093 0.4687,0.7813 1.0431,0.044 2.0802,0.031 3.125,0.031 0.3218,0.041 0.7523,-0.062 0.8125,-0.4376 0.015,-1.0218 -0.01,-2.0395 0,-3.0624 0.04,-0.2985 -0.069,-0.6922 -0.4062,-0.75 -0.5894,-0.055 -1.1866,-0.015 -1.7813,-0.031 -0.512,0 -1.0192,-0.01 -1.5313,0 -0.038,-0.01 -0.086,0 -0.125,0 z m 7.5938,0 c -0.2699,0.01 -0.565,0.1788 -0.5938,0.4687 -0.041,1.0006 0.012,1.9982 0,3 -0.068,0.3338 0.1247,0.7093 0.4688,0.7813 1.0431,0.044 2.0802,0.031 3.125,0.031 0.3218,0.041 0.7522,-0.062 0.8125,-0.4376 0.015,-1.0218 0.026,-2.0395 0.031,-3.0624 0.039,-0.2985 -0.069,-0.6922 -0.4063,-0.75 -0.5889,-0.055 -1.2182,-0.015 -1.8125,-0.031 -0.512,0 -1.0194,-0.01 -1.5312,0 -0.038,-0.01 -0.055,0 -0.094,0 z m 7.5625,0 c -0.2699,0.01 -0.5338,0.1788 -0.5625,0.4687 -0.041,1.0006 -0.02,1.9982 -0.031,3 -0.068,0.3338 0.1246,0.7093 0.4687,0.7813 1.0431,0.044 2.0802,0.031 3.125,0.031 0.3218,0.041 0.7523,-0.062 0.8125,-0.4376 0.015,-1.0218 0.026,-2.0395 0.031,-3.0624 0.04,-0.2985 -0.069,-0.6922 -0.4062,-0.75 -0.5889,-0.055 -1.187,-0.015 -1.7812,-0.031 -0.5121,0 -1.0505,-0.01 -1.5626,0 -0.038,-0.01 -0.055,0 -0.094,0 z m 7.5625,0 c -0.2699,0.01 -0.5338,0.1788 -0.5625,0.4687 -0.041,1.0006 -0.02,1.9982 -0.031,3 -0.068,0.3338 0.1247,0.7093 0.4688,0.7813 1.0431,0.044 2.1114,0.031 3.1562,0.031 0.322,0.041 0.7522,-0.062 0.8126,-0.4376 0.014,-1.0218 -0.01,-2.0395 0,-3.0624 0.039,-0.2985 -0.069,-0.6922 -0.4063,-0.75 -0.5888,-0.055 -1.1869,-0.015 -1.7813,-0.031 -0.5118,0 -1.0193,-0.01 -1.5312,0 -0.038,-0.01 -0.086,0 -0.125,0 z m 7.5625,0 c -0.2699,0.01 -0.5338,0.1788 -0.5625,0.4687 -0.041,1.0006 0.011,1.9982 0,3 -0.068,0.3338 0.093,0.7093 0.4375,0.7813 1.0431,0.044 2.1113,0.031 3.1563,0.031 0.3216,0.041 0.7523,-0.062 0.8124,-0.4376 0.015,-1.0218 0,-2.0395 0,-3.0624 0.04,-0.2985 -0.069,-0.6922 -0.4062,-0.75 -0.5888,-0.055 -1.187,-0.015 -1.7812,-0.031 -0.5121,0 -1.0194,-0.01 -1.5313,0 -0.038,-0.01 -0.086,0 -0.125,0 z m -71.8125,7.1875 c -0.2709,6e-4 -0.543,0.056 -0.7188,0.2812 -0.2708,0.3686 -0.1167,0.8581 -0.1562,1.2813 0.01,0.8059 0.011,1.6022 0.031,2.4063 0.073,0.4063 0.4753,0.681 0.875,0.625 1.0732,9e-4 2.1476,0 3.2188,-0.031 0.3808,-0.044 0.6516,-0.4376 0.5938,-0.8125 -0.016,-1.0535 0.034,-2.1038 0,-3.1562 -0.034,-0.3905 -0.443,-0.6338 -0.8126,-0.5938 -0.8552,-0.01 -1.7072,0 -2.5624,0 -0.1481,0.011 -0.3063,0 -0.4688,0 z m 7.3438,0.094 c -0.4157,0.013 -0.644,0.3065 -0.6563,0.6562 -0.012,0.3503 0.01,2.7846 0,3.0938 -0.01,0.3089 0.294,0.6382 0.6563,0.6562 0.362,0.018 2.9931,0.01 3.2812,0 0.2974,-0.01 0.6694,-0.1876 0.6562,-0.6562 -0.013,-0.4591 0.01,-2.6234 0,-3.0938 -0.01,-0.4611 -0.3156,-0.6462 -0.6562,-0.6562 -0.1703,-2e-4 -0.8954,0 -1.625,0 -0.7296,0 -1.4486,-0.01 -1.6562,0 z m 7.5624,0 c -0.4154,0.013 -0.6125,0.3065 -0.625,0.6562 -0.012,0.3503 0.01,2.7846 0,3.0938 -0.01,0.3089 0.2628,0.6382 0.625,0.6562 0.3623,0.018 2.9931,0.01 3.2813,0 0.2974,-0.01 0.6694,-0.1876 0.6563,-0.6562 -0.013,-0.4591 0.01,-2.6234 0,-3.0938 -0.01,-0.4611 -0.3158,-0.6462 -0.6563,-0.6562 -0.1703,-2e-4 -0.8953,0 -1.625,0 -0.7296,0 -1.4484,-0.01 -1.6563,0 z m 7.5626,0 c -0.4157,0.013 -0.6129,0.3065 -0.625,0.6562 -0.012,0.3503 0.01,2.7846 0,3.0938 -0.01,0.3089 0.2627,0.6382 0.625,0.6562 0.362,0.018 2.993,0.01 3.2812,0 0.2974,-0.01 0.6694,-0.1876 0.6562,-0.6562 -0.013,-0.4591 0.01,-2.6234 0,-3.0938 -0.01,-0.4611 -0.3157,-0.6462 -0.6562,-0.6562 -0.1703,-2e-4 -0.864,0 -1.5938,0 -0.7295,0 -1.4798,-0.01 -1.6874,0 z m 7.5624,0 c -0.4154,0.013 -0.6127,0.3065 -0.625,0.6562 -0.012,0.3503 0.01,2.7846 0,3.0938 -0.01,0.3089 0.263,0.6382 0.625,0.6562 0.3623,0.018 3.0243,0.01 3.3126,0 0.2973,-0.01 0.6379,-0.1876 0.625,-0.6562 -0.013,-0.4591 0.01,-2.6234 0,-3.0938 -0.01,-0.4611 -0.2846,-0.6462 -0.625,-0.6562 -0.1703,-2e-4 -0.8954,0 -1.625,0 -0.7298,0 -1.4797,-0.01 -1.6876,0 z m 7.5626,0 c -0.4157,0.013 -0.6128,0.3065 -0.625,0.6562 -0.013,0.3503 0.01,2.7846 0,3.0938 -0.01,0.3089 0.2627,0.6382 0.625,0.6562 0.362,0.018 3.0243,0.01 3.3124,0 0.2976,-0.01 0.6384,-0.1876 0.625,-0.6562 -0.013,-0.4591 0.01,-2.6234 0,-3.0938 -0.01,-0.4611 -0.2844,-0.6462 -0.625,-0.6562 -0.1701,-2e-4 -0.8952,0 -1.625,0 -0.7295,0 -1.4798,-0.01 -1.6874,0 z m 7.5624,0 c -0.4154,0.013 -0.6127,0.3065 -0.625,0.6562 -0.012,0.3503 0.01,2.7846 0,3.0938 -0.01,0.3089 0.263,0.6382 0.625,0.6562 0.3623,0.018 3.0243,0.01 3.3126,0 0.2973,-0.01 0.6694,-0.1876 0.6562,-0.6562 -0.013,-0.4591 0.01,-2.6234 0,-3.0938 -0.01,-0.4611 -0.3158,-0.6462 -0.6562,-0.6562 -0.1703,-2e-4 -0.8954,0 -1.625,0 -0.7298,0 -1.4797,-0.01 -1.6876,0 z m 7.5938,0 c -0.4155,0.013 -0.6127,0.3065 -0.625,0.6562 -0.012,0.3503 0.01,2.7846 0,3.0938 -0.01,0.3089 0.2628,0.6382 0.625,0.6562 0.3622,0.018 2.9931,0.01 3.2812,0 0.2976,-0.01 0.6694,-0.1876 0.6563,-0.6562 -0.013,-0.4591 0.01,-2.6234 0,-3.0938 -0.01,-0.4611 -0.3157,-0.6462 -0.6563,-0.6562 -0.1701,-2e-4 -0.8952,0 -1.625,0 -0.7295,0 -1.4484,-0.01 -1.6562,0 z m 7.5625,0 c -0.4155,0.013 -0.6127,0.3065 -0.625,0.6562 -0.012,0.3503 0.01,2.7846 0,3.0938 -0.01,0.3089 0.2628,0.6382 0.625,0.6562 0.3622,0.018 2.993,0.01 3.2813,0 0.2972,-0.01 0.6693,-0.1876 0.6562,-0.6562 -0.013,-0.4591 0.01,-2.6234 0,-3.0938 -0.01,-0.4611 -0.3158,-0.6462 -0.6562,-0.6562 -0.1703,-2e-4 -0.8954,0 -1.625,0 -0.7298,0 -1.4485,-0.01 -1.6563,0 z m 7.5625,0 c -0.4155,0.013 -0.6127,0.3065 -0.625,0.6562 -0.012,0.3503 0.01,2.7846 0,3.0938 -0.01,0.3089 0.2628,0.6382 0.625,0.6562 0.3621,0.018 6.9618,0.01 7.25,0 0.2974,-0.01 0.6381,-0.1876 0.625,-0.6562 -0.013,-0.4591 0.01,-2.6234 0,-3.0938 -0.01,-0.4611 -0.2845,-0.6462 -0.625,-0.6562 -0.1703,-2e-4 -1.878,0 -3.5938,0 -1.7155,0 -3.4484,-0.01 -3.6562,0 z m 13.0938,0 c -1.1277,0.01 -2.1696,1.3565 -2.1876,1.7187 -0.018,0.3622 -0.01,1.7429 0,2.0313 0.01,0.2973 0.1878,0.6692 0.6563,0.6562 0.459,-0.013 2.6234,0.01 3.0937,0 0.4613,-0.01 0.6493,-0.3158 0.6563,-0.6562 0.01,-0.3406 0.013,-1.6158 0,-2.0313 -0.013,-0.4155 -1.082,-1.7288 -2.2187,-1.7187 z m 5.7812,0 c -0.4155,0.013 -0.6127,0.3065 -0.625,0.6562 -0.012,0.3503 0.01,2.7846 0,3.0938 -0.01,0.3089 0.2628,0.6382 0.625,0.6562 0.3622,0.018 2.6493,0.01 2.9375,0 0.2974,-0.01 0.6381,-0.1876 0.625,-0.6562 -0.013,-0.4591 0.01,-2.6234 0,-3.0938 -0.01,-0.4611 -0.2845,-0.6462 -0.625,-0.6562 -0.1703,-2e-4 -0.8009,0 -1.4375,0 -0.6366,0 -1.2922,-0.01 -1.5,0 z m -107,0.062 c -0.2681,0.01 -0.5341,0.1813 -0.5625,0.4688 -0.041,1.0057 0.012,1.9927 0,3 -0.073,0.3491 0.1661,0.7453 0.5313,0.7812 2.6502,0.029 5.2869,0.041 7.9374,0.031 0.3134,0.042 0.7244,-0.08 0.7813,-0.4375 0.014,-1.0468 0,-2.1086 0,-3.1562 0.043,-0.301 -0.1109,-0.6605 -0.4375,-0.6876 -1.3805,-0.031 -2.7726,0.01 -4.1562,0 -1.3202,0 -2.6488,-0.01 -3.9688,0 -0.038,-0.01 -0.087,10e-5 -0.125,0 z m 12.4688,0 c -0.2701,0.01 -0.5338,0.1788 -0.5626,0.4688 -0.041,1.0005 0.011,1.998 0,3 -0.068,0.3337 0.093,0.7104 0.4376,0.7812 1.0429,0.044 2.1114,0.031 3.1562,0.031 0.3218,0.042 0.7523,-0.062 0.8125,-0.4375 0.015,-1.0219 -0.01,-2.0709 0,-3.0938 0.04,-0.2986 -0.069,-0.6607 -0.4063,-0.7187 -0.5887,-0.055 -1.1869,-0.015 -1.7812,-0.031 -0.512,0 -1.0194,-0.01 -1.5312,0 -0.038,-0.01 -0.087,10e-5 -0.125,0 z m -12.4063,7.2813 c -0.4156,0.013 -0.6127,0.3064 -0.625,0.6563 -0.012,0.3501 0.01,2.7846 0,3.0937 -0.01,0.309 0.2628,0.6381 0.625,0.6563 0.3621,0.018 1.7429,0.01 2.0313,0 0.2972,-0.01 0.6694,-0.1879 0.6562,-0.6563 -0.013,-0.4592 0.01,-2.6233 0,-3.0937 -0.01,-0.4611 -0.3159,-0.6463 -0.6562,-0.6563 l -1,0 c -0.4135,0 -0.8235,-0.01 -1.0313,0 z m 6.2813,0 c -0.4157,0.013 -0.6128,0.3064 -0.625,0.6563 -0.012,0.3501 0.01,2.7846 0,3.0937 -0.01,0.309 0.2627,0.6381 0.625,0.6563 0.362,0.018 4.1805,0.01 4.4687,0 0.2974,-0.01 0.669,-0.1879 0.6563,-0.6563 -0.013,-0.4592 0.01,-2.6233 0,-3.0937 -0.01,-0.4611 -0.3158,-0.6463 -0.6563,-0.6563 l -2.2187,0 c -1.0274,0 -2.0424,-0.01 -2.25,0 z m 8.8124,0 c -0.4154,0.013 -0.6127,0.3064 -0.625,0.6563 -0.012,0.3501 0.01,2.7846 0,3.0937 -0.01,0.309 0.263,0.6381 0.625,0.6563 0.3623,0.018 4.1493,0.01 4.4376,0 0.2972,-0.01 0.6379,-0.1879 0.625,-0.6563 -0.013,-0.4592 0.01,-2.6233 0,-3.0937 -0.01,-0.4611 -0.2846,-0.6463 -0.625,-0.6563 l -2.1876,0 c -1.0085,0 -2.0421,-0.01 -2.25,0 z m 8.8438,0 c -0.4155,0.013 -0.6127,0.3064 -0.625,0.6563 -0.012,0.3501 0.01,2.7846 0,3.0937 -0.01,0.309 0.2629,0.6381 0.625,0.6563 0.3622,0.018 46.3993,0.01 46.6875,0 0.2974,-0.01 0.6692,-0.1879 0.6563,-0.6563 -0.013,-0.4592 0.01,-2.6233 0,-3.0937 -0.01,-0.4611 -0.3158,-0.6463 -0.6563,-0.6563 l -23.3125,0 c -11.5755,0 -23.1672,-0.01 -23.375,0 z m 51.1562,0 c -0.4154,0.013 -0.6127,0.3064 -0.625,0.6563 -0.012,0.3501 0.01,2.7846 0,3.0937 -0.01,0.309 0.263,0.6381 0.625,0.6563 0.3623,0.018 4.1181,0.01 4.4063,0 0.2974,-0.01 0.6693,-0.1879 0.6563,-0.6563 -0.013,-0.4592 0.01,-2.6233 0,-3.0937 -0.01,-0.4611 -0.3158,-0.6463 -0.6563,-0.6563 l -2.1563,0 c -1.0085,0 -2.0421,-0.01 -2.25,0 z m 8.6563,0 c -0.4155,0.013 -0.6127,0.3064 -0.625,0.6563 -0.012,0.3501 0.01,2.7846 0,3.0937 -0.01,0.309 0.2628,0.6381 0.625,0.6563 0.3622,0.018 4.118,0.01 4.4063,0 0.2973,-0.01 0.6693,-0.1879 0.6562,-0.6563 -0.013,-0.4592 0.01,-2.6233 0,-3.0937 -0.01,-0.4611 -0.3158,-0.6463 -0.6562,-0.6563 l -2.1563,0 c -1.0087,0 -2.0422,-0.01 -2.25,0 z m 10.6875,0 c -0.3762,0 -0.7609,0.021 -0.9688,0.031 -0.4154,0.013 -1.7277,1.0506 -1.7187,2.1874 0.01,1.1277 1.3567,2.1695 1.7187,2.1876 0.3623,0.018 1.5869,0.01 1.875,0 0.2976,-0.01 0.6694,-0.1877 0.6563,-0.6563 -0.013,-0.4591 0.01,-2.6233 0,-3.0937 -0.01,-0.4613 -0.3157,-0.6151 -0.6563,-0.625 -0.1701,0 -0.53,-0.031 -0.9062,-0.031 z m 5.1875,0 c -0.4155,0.013 -0.6127,0.3064 -0.625,0.6563 -0.012,0.3501 0.01,2.7846 0,3.0937 -0.01,0.309 0.2628,0.6381 0.625,0.6563 0.3621,0.018 2.7743,0.01 3.0625,0 0.2974,-0.01 0.6694,-0.1879 0.6562,-0.6563 -0.012,-0.4592 0.01,-2.6233 0,-3.0937 -0.01,-0.4611 -0.3157,-0.6463 -0.6562,-0.6563 l -1.5,0 c -0.6738,0 -1.3547,-0.01 -1.5625,0 z m 8.2813,0 c -0.3763,0 -0.736,0.021 -0.9063,0.031 -0.3405,0.01 -0.6472,0.1638 -0.6563,0.625 -0.01,0.4702 0.013,2.6346 0,3.0937 -0.013,0.4685 0.3589,0.6462 0.6563,0.6563 0.2882,0.01 1.5128,0.018 1.875,0 0.3622,-0.018 1.7098,-1.06 1.7187,-2.1876 0.01,-1.1367 -1.3032,-2.1746 -1.7187,-2.1874 -0.2078,-0.01 -0.5927,-0.031 -0.9687,-0.031 z"
       id="rect15570" />
    <text
       xml:space="preserve"
       style="font-size:12px;font-style:normal;font-weight:bold;line-height:125%;letter-spacing:0px;word-spacing:0px;fill:BASE_ROLE_COLOR;fill-opacity:1;stroke:none;font-family:Sans"
       x="278.7287"
       y="430.77933"
       id="text15574"
       ><tspan
         x="278.7287"
         y="430.77933"
         id="TLline1"></tspan></text>
    <text
       id="text15664"
       y="445.93161"
       x="278.7287"
       style="font-size:12px;font-style:normal;font-weight:bold;line-height:125%;letter-spacing:0px;word-spacing:0px;fill:BASE_ROLE_COLOR;fill-opacity:1;stroke:none;font-family:Sans"
       xml:space="preserve"><tspan
         y="445.93161"
         x="278.7287"
         id="TLline2"></tspan></text>
    <text
       xml:space="preserve"
       style="font-size:12px;font-style:normal;font-weight:bold;line-height:125%;letter-spacing:0px;word-spacing:0px;fill:BASE_ROLE_COLOR;fill-opacity:1;stroke:none;font-family:Sans"
       x="278.7287"
       y="461.08389"
       id="text15672"><tspan
         x="278.7287"
         y="461.08389"
         id="TLline3"></tspan></text>
    <text
       id="TLline4"
       y="476.23618"
       x="278.7287"
       style="font-size:12px;font-style:normal;font-weight:bold;line-height:125%;letter-spacing:0px;word-spacing:0px;fill:BASE_ROLE_COLOR;fill-opacity:1;stroke:none;font-family:Sans"
       xml:space="preserve"
       ><tspan
         y="476.23618"
         x="278.7287"
         id="TLline4"></tspan></text>
  </g>
</svg>
