<?xml version="1.0" encoding="UTF-8" standalone="no"?>
<!-- Created with Inkscape (http://www.inkscape.org/) -->

<svg
   xmlns:dc="http://purl.org/dc/elements/1.1/"
   xmlns:cc="http://creativecommons.org/ns#"
   xmlns:rdf="http://www.w3.org/1999/02/22-rdf-syntax-ns#"
   xmlns:svg="http://www.w3.org/2000/svg"
   xmlns="http://www.w3.org/2000/svg"
   xmlns:sodipodi="http://sodipodi.sourceforge.net/DTD/sodipodi-0.dtd"
   xmlns:inkscape="http://www.inkscape.org/namespaces/inkscape"
   width="76.470284"
   height="66.843346"
   id="svg4670"
   version="1.1"
   inkscape:version="0.48.3.1 r9886"
   sodipodi:docname="New document 5">
  <defs
     id="defs4672" />
  <sodipodi:namedview
     id="base"
     pagecolor="#ffffff"
     bordercolor="#666666"
     borderopacity="1.0"
     inkscape:pageopacity="0.0"
     inkscape:pageshadow="2"
     inkscape:zoom="2.8"
     inkscape:cx="-22.78032"
     inkscape:cy="13.588757"
     inkscape:document-units="px"
     inkscape:current-layer="layer1"
     showgrid="false"
     fit-margin-top="0"
     fit-margin-left="0"
     fit-margin-right="0"
     fit-margin-bottom="0"
     inkscape:window-width="1600"
     inkscape:window-height="853"
     inkscape:window-x="-2"
     inkscape:window-y="-3"
     inkscape:window-maximized="1" />
  <metadata
     id="metadata4675">
    <rdf:RDF>
      <cc:Work
         rdf:about="">
        <dc:format>image/svg+xml</dc:format>
        <dc:type
           rdf:resource="http://purl.org/dc/dcmitype/StillImage" />
        <dc:title></dc:title>
      </cc:Work>
    </rdf:RDF>
  </metadata>
  <g
     inkscape:label="Layer 1"
     inkscape:groupmode="layer"
     id="layer1"
     transform="translate(-344.622,-427.51194)">
    <path
       inkscape:connector-curvature="0"
       style="fill:#0000ff;fill-rule:evenodd;stroke:none"
       d="m 366.2833,427.51656 a 3.8052008,3.8052008 0 0 0 -3.4375,3.78125 l 0,28.5 -14.4375,0 a 3.8052008,3.8052008 0 0 0 -2.3125,6.8125 l 34.75,26.9375 a 3.8052008,3.8052008 0 0 0 4.6875,0 l 34.125,-26.90625 a 3.8052008,3.8052008 0 0 0 -2.375,-6.78125 l -14.46875,0 0,-28.5625 a 3.8052008,3.8052008 0 0 0 -3.8125,-3.78125 l -32.34375,0 a 3.8052008,3.8052008 0 0 0 -0.375,0 z m 4.15625,7.59375 24.75,0 0,28.5625 a 3.8052008,3.8052008 0 0 0 3.8125,3.78125 l 7.34375,0 -23.1875,18.28125 -23.625,-18.34375 7.125,0 a 3.8052008,3.8052008 0 0 0 3.78125,-3.8125 l 0,-28.46875 z"
       id="rect4655" />
  </g>
</svg>
