<?xml version="1.0" encoding="UTF-8" standalone="no"?>
<!-- Created with Inkscape (http://www.inkscape.org/) -->

<svg
   xmlns:dc="http://purl.org/dc/elements/1.1/"
   xmlns:cc="http://creativecommons.org/ns#"
   xmlns:rdf="http://www.w3.org/1999/02/22-rdf-syntax-ns#"
   xmlns:svg="http://www.w3.org/2000/svg"
   xmlns="http://www.w3.org/2000/svg"
   xmlns:sodipodi="http://sodipodi.sourceforge.net/DTD/sodipodi-0.dtd"
   xmlns:inkscape="http://www.inkscape.org/namespaces/inkscape"
   version="1.0"
   width="3146"
   height="1214"
   id="svg2"
   inkscape:version="0.48.3.1 r9886"
   sodipodi:docname="keyboard.svg">
  <metadata
     id="metadata78">
    <rdf:RDF>
      <cc:Work
         rdf:about="">
        <dc:format>image/svg+xml</dc:format>
        <dc:type
           rdf:resource="http://purl.org/dc/dcmitype/StillImage" />
        <dc:title />
      </cc:Work>
    </rdf:RDF>
  </metadata>
  <sodipodi:namedview
     pagecolor="#ffffff"
     bordercolor="#666666"
     borderopacity="1"
     objecttolerance="10"
     gridtolerance="10"
     guidetolerance="10"
     inkscape:pageopacity="0"
     inkscape:pageshadow="2"
     inkscape:window-width="640"
     inkscape:window-height="480"
     id="namedview76"
     showgrid="false"
     inkscape:zoom="0.094723458"
     inkscape:cx="1573"
     inkscape:cy="607"
     inkscape:window-x="0"
     inkscape:window-y="0"
     inkscape:window-maximized="0"
     inkscape:current-layer="svg2" />
  <defs
     id="defs5" />
  <rect
     style="fill:BACKGROUD_COLOR_ROLE;fill-rule:evenodd;stroke:#000000;stroke-width:1px;stroke-linecap:butt;stroke-linejoin:miter;stroke-opacity:1"
     id="rect2983"
     width="3103.7717"
     height="1182.3893"
     x="0"
     y="21.053692"
     rx="0"
     ry="0" />
  <path
     style="fill:BASE_ROLE_COLOR;fill-rule:evenodd;stroke:#000000;stroke-width:1px;stroke-linecap:butt;stroke-linejoin:miter;stroke-opacity:1"
     d="M 73.90625 -42.28125 C -13.822807 -42.28125 -84.46875 28.333442 -84.46875 116.0625 L -84.46875 1140.0938 C -84.46875 1227.8229 -13.822807 1298.4688 73.90625 1298.4688 L 3103.7812 1298.4688 C 3191.5104 1298.4688 3262.125 1227.8229 3262.125 1140.0938 L 3262.125 116.0625 C 3262.125 28.333442 3191.5104 -42.28125 3103.7812 -42.28125 L 73.90625 -42.28125 z M 138.03125 78.25 C 155.64121 78.269071 172.9863 78.3681 177.5625 78.46875 C 186.715 78.67004 194.7039 83.54411 194.9375 95.9375 C 195.1713 108.58045 194.5931 124.94321 194.9375 137.28125 C 195.2892 149.87328 185.556 154.82323 177.5625 155 C 169.8171 155.17678 106.70241 155.4828 96.96875 155 C 87.23495 154.5172 79.82385 145.58631 80.09375 137.28125 C 80.36365 128.97619 79.76245 105.34946 80.09375 95.9375 C 80.42465 86.53769 85.80045 78.82261 96.96875 78.46875 C 102.55288 78.291815 120.42129 78.230929 138.03125 78.25 z M 333.03125 78.25 C 350.64121 78.269071 367.9863 78.3681 372.5625 78.46875 C 381.715 78.67004 389.7039 83.54411 389.9375 95.9375 C 390.1713 108.58045 389.5931 124.94321 389.9375 137.28125 C 390.2892 149.87328 380.556 154.82323 372.5625 155 C 364.8171 155.17678 301.70241 155.4828 291.96875 155 C 282.23495 154.5172 274.82385 145.58631 275.09375 137.28125 C 275.36365 128.97619 274.76245 105.34946 275.09375 95.9375 C 275.42465 86.53769 280.80045 78.82261 291.96875 78.46875 C 297.55288 78.291815 315.42129 78.230929 333.03125 78.25 z M 811.53125 78.25 C 970.6412 78.269071 1129.4863 78.3681 1134.0625 78.46875 C 1143.215 78.67004 1151.2039 83.54411 1151.4375 95.9375 C 1151.6713 108.58045 1151.0931 124.94321 1151.4375 137.28125 C 1151.7892 149.87328 1142.056 154.82323 1134.0625 155 C 1126.3171 155.17678 497.20241 155.4828 487.46875 155 C 477.73495 154.5172 470.32385 145.58631 470.59375 137.28125 C 470.86365 128.97619 470.26245 105.34946 470.59375 95.9375 C 470.92465 86.53769 476.30045 78.82261 487.46875 78.46875 C 493.05288 78.291815 652.4213 78.230929 811.53125 78.25 z M 1575.0312 78.25 C 1734.1412 78.269071 1892.9863 78.3681 1897.5625 78.46875 C 1906.715 78.67004 1914.7039 83.54411 1914.9375 95.9375 C 1915.1713 108.58045 1914.5931 124.94321 1914.9375 137.28125 C 1915.2892 149.87328 1905.556 154.82323 1897.5625 155 C 1889.8171 155.17678 1260.7024 155.4828 1250.9688 155 C 1241.235 154.5172 1233.8238 145.58631 1234.0938 137.28125 C 1234.3637 128.97619 1233.7624 105.34946 1234.0938 95.9375 C 1234.4246 86.53769 1239.8005 78.82261 1250.9688 78.46875 C 1256.5529 78.291815 1415.9213 78.230929 1575.0312 78.25 z M 2336.2812 78.25 C 2495.3912 78.269071 2654.2676 78.3681 2658.8438 78.46875 C 2667.9963 78.67004 2675.9851 83.54411 2676.2188 95.9375 C 2676.4525 108.58044 2675.8744 124.94321 2676.2188 137.28125 C 2676.5705 149.87328 2666.8373 154.82323 2658.8438 155 C 2651.0984 155.17678 2021.9836 155.4828 2012.25 155 C 2002.5162 154.5172 1995.1051 145.58631 1995.375 137.28125 C 1995.6449 128.97619 1995.0437 105.34945 1995.375 95.9375 C 1995.7059 86.53769 2001.0817 78.82261 2012.25 78.46875 C 2017.8341 78.291815 2177.1713 78.230929 2336.2812 78.25 z M 2815.5938 78.25 C 2833.2037 78.269071 2850.5801 78.3681 2855.1562 78.46875 C 2864.3088 78.67004 2872.2976 83.54411 2872.5312 95.9375 C 2872.765 108.58045 2872.1869 124.94321 2872.5312 137.28125 C 2872.883 149.87328 2863.1498 154.82323 2855.1562 155 C 2847.4109 155.17678 2784.2649 155.4828 2774.5312 155 C 2764.7975 154.5172 2757.3863 145.58631 2757.6562 137.28125 C 2757.9261 128.97619 2757.325 105.34946 2757.6562 95.9375 C 2757.9871 86.53769 2763.363 78.82261 2774.5312 78.46875 C 2780.1154 78.291815 2797.9838 78.230929 2815.5938 78.25 z M 3011.0312 78.25 C 3028.6412 78.269071 3045.9863 78.3681 3050.5625 78.46875 C 3059.715 78.67004 3067.7039 83.54411 3067.9375 95.9375 C 3068.1713 108.58045 3067.5931 124.94321 3067.9375 137.28125 C 3068.2892 149.87328 3058.556 154.82323 3050.5625 155 C 3042.8171 155.17678 2979.7023 155.4828 2969.9688 155 C 2960.235 154.5172 2952.8239 145.58631 2953.0938 137.28125 C 2953.3636 128.97619 2952.7624 105.34946 2953.0938 95.9375 C 2953.4246 86.53769 2958.8005 78.82261 2969.9688 78.46875 C 2975.5529 78.291815 2993.4213 78.230929 3011.0312 78.25 z M 124.03125 233.25 C 135.64121 233.26907 146.9863 233.3681 151.5625 233.46875 C 160.715 233.67004 168.7039 238.54411 168.9375 250.9375 C 169.1713 263.58045 168.5931 321.94321 168.9375 334.28125 C 169.2892 346.87328 159.556 351.82323 151.5625 352 C 143.8171 352.17678 104.70241 352.4828 94.96875 352 C 85.23495 351.5172 77.82385 342.58631 78.09375 334.28125 C 78.36365 325.97619 77.76245 260.34946 78.09375 250.9375 C 78.42465 241.53769 83.80045 233.82261 94.96875 233.46875 C 100.55288 233.29181 112.42129 233.23093 124.03125 233.25 z M 309.78125 233.25 C 329.39121 233.26907 348.7363 233.3681 353.3125 233.46875 C 362.465 233.67004 370.4539 238.54411 370.6875 250.9375 C 370.9213 263.58045 370.3431 321.94321 370.6875 334.28125 C 371.0392 346.87328 361.306 351.82323 353.3125 352 C 345.5671 352.17678 274.45241 352.4828 264.71875 352 C 254.98495 351.5172 247.57385 342.58631 247.84375 334.28125 C 248.11365 325.97619 247.51245 260.34946 247.84375 250.9375 C 248.17465 241.53769 253.55045 233.82261 264.71875 233.46875 C 270.30288 233.29181 290.17129 233.23093 309.78125 233.25 z M 513.1875 233.25 C 532.79746 233.26907 552.14255 233.3681 556.71875 233.46875 C 565.87125 233.67004 573.86015 238.54411 574.09375 250.9375 C 574.32755 263.58045 573.74935 321.94321 574.09375 334.28125 C 574.44545 346.87328 564.71225 351.82323 556.71875 352 C 548.97335 352.17678 477.8587 352.4828 468.125 352 C 458.3912 351.5172 450.9801 342.58631 451.25 334.28125 C 451.5199 325.97619 450.9187 260.34946 451.25 250.9375 C 451.5809 241.53769 456.9567 233.82261 468.125 233.46875 C 473.70915 233.29181 493.57754 233.23093 513.1875 233.25 z M 716.59375 233.25 C 736.20371 233.26907 755.58005 233.3681 760.15625 233.46875 C 769.30875 233.67004 777.2664 238.54411 777.5 250.9375 C 777.7338 263.58045 777.1556 321.94321 777.5 334.28125 C 777.8517 346.87328 768.14975 351.82323 760.15625 352 C 752.41085 352.17678 681.26495 352.4828 671.53125 352 C 661.79745 351.5172 654.38635 342.58631 654.65625 334.28125 C 654.92615 325.97619 654.32495 260.34946 654.65625 250.9375 C 654.98715 241.53769 660.36295 233.82261 671.53125 233.46875 C 677.1154 233.29181 696.98379 233.23093 716.59375 233.25 z M 920 233.25 C 939.60996 233.26907 958.9863 233.3681 963.5625 233.46875 C 972.715 233.67004 980.7039 238.54411 980.9375 250.9375 C 981.1713 263.58045 980.5931 321.94321 980.9375 334.28125 C 981.2892 346.87328 971.556 351.82323 963.5625 352 C 955.8171 352.17678 884.6712 352.4828 874.9375 352 C 865.2037 351.5172 857.7926 342.58631 858.0625 334.28125 C 858.3324 325.97619 857.7312 260.34946 858.0625 250.9375 C 858.3934 241.53769 863.7692 233.82261 874.9375 233.46875 C 880.52165 233.29181 900.39004 233.23093 920 233.25 z M 1123.4062 233.25 C 1143.0162 233.26907 1162.3926 233.3681 1166.9688 233.46875 C 1176.1212 233.67004 1184.1102 238.54411 1184.3438 250.9375 C 1184.5775 263.58045 1183.9994 321.94321 1184.3438 334.28125 C 1184.6954 346.87328 1174.9622 351.82323 1166.9688 352 C 1159.2233 352.17678 1088.1087 352.4828 1078.375 352 C 1068.6412 351.5172 1061.2301 342.58631 1061.5 334.28125 C 1061.7699 325.97619 1061.1687 260.34946 1061.5 250.9375 C 1061.8309 241.53769 1067.2067 233.82261 1078.375 233.46875 C 1083.9592 233.29181 1103.7963 233.23093 1123.4062 233.25 z M 1326.8125 233.25 C 1346.4225 233.26907 1365.7988 233.3681 1370.375 233.46875 C 1379.5275 233.67004 1387.5164 238.54411 1387.75 250.9375 C 1387.9838 263.58045 1387.4056 321.94321 1387.75 334.28125 C 1388.1017 346.87328 1378.3685 351.82323 1370.375 352 C 1362.6296 352.17678 1291.5149 352.4828 1281.7812 352 C 1272.0475 351.5172 1264.6363 342.58631 1264.9062 334.28125 C 1265.1762 325.97619 1264.575 260.34946 1264.9062 250.9375 C 1265.2371 241.53769 1270.613 233.82261 1281.7812 233.46875 C 1287.3654 233.29181 1307.2025 233.23093 1326.8125 233.25 z M 1530.25 233.25 C 1549.86 233.26907 1569.205 233.3681 1573.7812 233.46875 C 1582.9337 233.67004 1590.9226 238.54411 1591.1562 250.9375 C 1591.39 263.58045 1590.8119 321.94321 1591.1562 334.28125 C 1591.5079 346.87328 1581.7748 351.82323 1573.7812 352 C 1566.0358 352.17678 1494.9212 352.4828 1485.1875 352 C 1475.4537 351.5172 1468.0426 342.58631 1468.3125 334.28125 C 1468.5824 325.97619 1467.9812 260.34946 1468.3125 250.9375 C 1468.6434 241.53769 1474.0192 233.82261 1485.1875 233.46875 C 1490.7717 233.29181 1510.64 233.23093 1530.25 233.25 z M 1733.6562 233.25 C 1753.2662 233.26907 1772.6113 233.3681 1777.1875 233.46875 C 1786.34 233.67004 1794.3289 238.54411 1794.5625 250.9375 C 1794.7963 263.58045 1794.2181 321.94321 1794.5625 334.28125 C 1794.9142 346.87328 1785.181 351.82323 1777.1875 352 C 1769.4421 352.17678 1698.3274 352.4828 1688.5938 352 C 1678.86 351.5172 1671.4488 342.58631 1671.7188 334.28125 C 1671.9887 325.97619 1671.3875 260.34946 1671.7188 250.9375 C 1672.0496 241.53769 1677.4255 233.82261 1688.5938 233.46875 C 1694.1779 233.29181 1714.0463 233.23093 1733.6562 233.25 z M 1937.0625 233.25 C 1956.6725 233.26907 1976.0176 233.3681 1980.5938 233.46875 C 1989.7462 233.67004 1997.7352 238.54411 1997.9688 250.9375 C 1998.2025 263.58045 1997.6244 321.94321 1997.9688 334.28125 C 1998.3204 346.87328 1988.5872 351.82323 1980.5938 352 C 1972.8483 352.17678 1901.7337 352.4828 1892 352 C 1882.2662 351.5172 1874.8551 342.58631 1875.125 334.28125 C 1875.3949 325.97619 1874.7937 260.34946 1875.125 250.9375 C 1875.4559 241.53769 1880.8317 233.82261 1892 233.46875 C 1897.5842 233.29181 1917.4525 233.23093 1937.0625 233.25 z M 2138.4688 233.25 C 2158.0787 233.26907 2177.4238 233.3681 2182 233.46875 C 2191.1525 233.67004 2199.1414 238.54411 2199.375 250.9375 C 2199.6088 263.58045 2199.0306 321.94321 2199.375 334.28125 C 2199.7267 346.87328 2189.9935 351.82323 2182 352 C 2174.2546 352.17678 2103.1399 352.4828 2093.4062 352 C 2083.6725 351.5172 2076.2613 342.58631 2076.5312 334.28125 C 2076.8011 325.97619 2076.2 260.34946 2076.5312 250.9375 C 2076.8621 241.53769 2082.2379 233.82261 2093.4062 233.46875 C 2098.9904 233.29181 2118.8588 233.23093 2138.4688 233.25 z M 2343.875 233.25 C 2363.485 233.26907 2382.8301 233.3681 2387.4062 233.46875 C 2396.5588 233.67004 2404.5477 238.54411 2404.7812 250.9375 C 2405.015 263.58045 2404.4369 321.94321 2404.7812 334.28125 C 2405.133 346.87328 2395.3997 351.82323 2387.4062 352 C 2379.6609 352.17678 2308.5462 352.4828 2298.8125 352 C 2289.0787 351.5172 2281.6676 342.58631 2281.9375 334.28125 C 2282.2074 325.97619 2281.6062 260.34946 2281.9375 250.9375 C 2282.2684 241.53769 2287.6442 233.82261 2298.8125 233.46875 C 2304.3966 233.29181 2324.265 233.23093 2343.875 233.25 z M 2580.2812 233.25 C 2616.3912 233.26907 2652.2363 233.3681 2656.8125 233.46875 C 2665.965 233.67004 2673.9539 238.54411 2674.1875 250.9375 C 2674.4213 263.58045 2673.8431 321.94321 2674.1875 334.28125 C 2674.5392 346.87328 2664.806 351.82323 2656.8125 352 C 2649.0671 352.17678 2511.9524 352.4828 2502.2188 352 C 2492.485 351.5172 2485.0738 342.58631 2485.3438 334.28125 C 2485.6136 325.97619 2485.0125 260.34946 2485.3438 250.9375 C 2485.6746 241.53769 2491.0504 233.82261 2502.2188 233.46875 C 2507.8029 233.29181 2544.1713 233.23093 2580.2812 233.25 z M 2911.5312 233.25 C 2977.6412 233.26907 3043.4863 233.3681 3048.0625 233.46875 C 3057.215 233.67004 3065.2039 238.54411 3065.4375 250.9375 C 3065.6713 263.58045 3065.0931 321.94321 3065.4375 334.28125 C 3065.7892 346.87328 3056.056 351.82323 3048.0625 352 C 3040.3171 352.17678 2783.2023 352.4828 2773.4688 352 C 2763.735 351.5172 2756.3239 342.58631 2756.5938 334.28125 C 2756.8636 325.97619 2756.2624 260.34946 2756.5938 250.9375 C 2756.9246 241.53769 2762.3005 233.82261 2773.4688 233.46875 C 2779.0529 233.29181 2845.4213 233.23093 2911.5312 233.25 z M 2913.0312 430.25 C 2979.1412 430.26907 3044.9863 430.3681 3049.5625 430.46875 C 3058.715 430.67004 3066.7039 435.54411 3066.9375 447.9375 C 3067.1713 460.58045 3066.5931 714.94321 3066.9375 727.28125 C 3067.2892 739.87328 3057.556 744.82323 3049.5625 745 C 3041.8171 745.17678 2784.7023 745.4828 2774.9688 745 C 2765.235 744.5172 2757.8239 735.58631 2758.0938 727.28125 C 2758.3636 718.97619 2757.7624 457.34946 2758.0938 447.9375 C 2758.4246 438.53769 2763.8005 430.82261 2774.9688 430.46875 C 2780.5529 430.29182 2846.9213 430.23093 2913.0312 430.25 z M 142.03125 430.75 C 161.64121 430.76906 180.9863 430.8681 185.5625 430.96875 C 194.715 431.17005 202.7039 436.0441 202.9375 448.4375 C 203.1713 461.0805 202.5931 519.44325 202.9375 531.78125 C 203.2892 544.37325 193.556 549.3232 185.5625 549.5 C 177.8171 549.6767 106.70245 549.9828 96.96875 549.5 C 87.23495 549.0172 79.82385 540.08635 80.09375 531.78125 C 80.36365 523.47615 79.76245 457.8495 80.09375 448.4375 C 80.42465 439.0377 85.80045 431.32265 96.96875 430.96875 C 102.5529 430.79185 122.42129 430.73094 142.03125 430.75 z M 347.78125 430.75 C 367.39121 430.76906 386.7363 430.8681 391.3125 430.96875 C 400.465 431.17005 408.4539 436.0441 408.6875 448.4375 C 408.9213 461.0805 408.3431 519.44325 408.6875 531.78125 C 409.0392 544.37325 399.306 549.3232 391.3125 549.5 C 383.5671 549.6767 312.45245 549.9828 302.71875 549.5 C 292.98495 549.0172 285.57385 540.08635 285.84375 531.78125 C 286.11365 523.47615 285.51245 457.8495 285.84375 448.4375 C 286.17465 439.0377 291.55045 431.32265 302.71875 430.96875 C 308.3029 430.79185 328.17129 430.73094 347.78125 430.75 z M 551.1875 430.75 C 570.79746 430.76906 590.14255 430.8681 594.71875 430.96875 C 603.87125 431.17005 611.86015 436.0441 612.09375 448.4375 C 612.32755 461.0805 611.74935 519.44325 612.09375 531.78125 C 612.44545 544.37325 602.71225 549.3232 594.71875 549.5 C 586.97335 549.6767 515.8587 549.9828 506.125 549.5 C 496.3912 549.0172 488.9801 540.08635 489.25 531.78125 C 489.5199 523.47615 488.9187 457.8495 489.25 448.4375 C 489.5809 439.0377 494.9567 431.32265 506.125 430.96875 C 511.70915 430.79185 531.57754 430.73094 551.1875 430.75 z M 754.59375 430.75 C 774.20371 430.76906 793.58005 430.8681 798.15625 430.96875 C 807.30875 431.17005 815.2664 436.0441 815.5 448.4375 C 815.7338 461.0805 815.1556 519.44325 815.5 531.78125 C 815.8517 544.37325 806.14975 549.3232 798.15625 549.5 C 790.41085 549.6767 719.26495 549.9828 709.53125 549.5 C 699.79745 549.0172 692.38635 540.08635 692.65625 531.78125 C 692.92615 523.47615 692.32495 457.8495 692.65625 448.4375 C 692.98715 439.0377 698.36295 431.32265 709.53125 430.96875 C 715.1154 430.79185 734.98379 430.73094 754.59375 430.75 z M 958 430.75 C 977.60996 430.76906 996.98629 430.8681 1001.5625 430.96875 C 1010.715 431.17005 1018.7039 436.0441 1018.9375 448.4375 C 1019.1713 461.0805 1018.5931 519.44325 1018.9375 531.78125 C 1019.2892 544.37325 1009.556 549.3232 1001.5625 549.5 C 993.81708 549.6767 922.6712 549.9828 912.9375 549.5 C 903.2037 549.0172 895.7926 540.08635 896.0625 531.78125 C 896.3324 523.47615 895.7312 457.8495 896.0625 448.4375 C 896.3934 439.0377 901.7692 431.32265 912.9375 430.96875 C 918.52165 430.79185 938.39004 430.73094 958 430.75 z M 1161.4062 430.75 C 1181.0162 430.76906 1200.3926 430.8681 1204.9688 430.96875 C 1214.1212 431.17005 1222.1101 436.0441 1222.3438 448.4375 C 1222.5775 461.0805 1221.9994 519.44325 1222.3438 531.78125 C 1222.6954 544.37325 1212.9623 549.3232 1204.9688 549.5 C 1197.2233 549.6767 1126.1087 549.9828 1116.375 549.5 C 1106.6412 549.0172 1099.2301 540.08635 1099.5 531.78125 C 1099.7699 523.47615 1099.1687 457.8495 1099.5 448.4375 C 1099.8309 439.0377 1105.2067 431.32265 1116.375 430.96875 C 1121.9592 430.79185 1141.7963 430.73094 1161.4062 430.75 z M 1364.8125 430.75 C 1384.4225 430.76906 1403.7988 430.8681 1408.375 430.96875 C 1417.5275 431.17005 1425.5164 436.0441 1425.75 448.4375 C 1425.9838 461.0805 1425.4056 519.44325 1425.75 531.78125 C 1426.1017 544.37325 1416.3685 549.3232 1408.375 549.5 C 1400.6296 549.6767 1329.5149 549.9828 1319.7812 549.5 C 1310.0475 549.0172 1302.6363 540.08635 1302.9062 531.78125 C 1303.1762 523.47615 1302.575 457.8495 1302.9062 448.4375 C 1303.2371 439.0377 1308.613 431.32265 1319.7812 430.96875 C 1325.3654 430.79185 1345.2025 430.73094 1364.8125 430.75 z M 1568.25 430.75 C 1587.86 430.76906 1607.205 430.8681 1611.7812 430.96875 C 1620.9337 431.17005 1628.9226 436.0441 1629.1562 448.4375 C 1629.39 461.0805 1628.8119 519.44325 1629.1562 531.78125 C 1629.5079 544.37325 1619.7748 549.3232 1611.7812 549.5 C 1604.0358 549.6767 1532.9212 549.9828 1523.1875 549.5 C 1513.4537 549.0172 1506.0426 540.08635 1506.3125 531.78125 C 1506.5824 523.47615 1505.9812 457.8495 1506.3125 448.4375 C 1506.6434 439.0377 1512.0192 431.32265 1523.1875 430.96875 C 1528.7717 430.79185 1548.64 430.73094 1568.25 430.75 z M 1771.6562 430.75 C 1791.2662 430.76906 1810.6113 430.8681 1815.1875 430.96875 C 1824.34 431.17005 1832.3289 436.0441 1832.5625 448.4375 C 1832.7963 461.0805 1832.2181 519.44325 1832.5625 531.78125 C 1832.9142 544.37325 1823.181 549.3232 1815.1875 549.5 C 1807.4421 549.6767 1736.3274 549.9828 1726.5938 549.5 C 1716.86 549.0172 1709.4488 540.08635 1709.7188 531.78125 C 1709.9887 523.47615 1709.3875 457.8495 1709.7188 448.4375 C 1710.0496 439.0377 1715.4255 431.32265 1726.5938 430.96875 C 1732.1779 430.79185 1752.0463 430.73094 1771.6562 430.75 z M 1975.0625 430.75 C 1994.6725 430.76906 2014.0176 430.8681 2018.5938 430.96875 C 2027.7462 431.17005 2035.7352 436.0441 2035.9688 448.4375 C 2036.2025 461.0805 2035.6244 519.44325 2035.9688 531.78125 C 2036.3204 544.37325 2026.5872 549.3232 2018.5938 549.5 C 2010.8483 549.6767 1939.7337 549.9828 1930 549.5 C 1920.2662 549.0172 1912.8551 540.08635 1913.125 531.78125 C 1913.3949 523.47615 1912.7937 457.8495 1913.125 448.4375 C 1913.4559 439.0377 1918.8317 431.32265 1930 430.96875 C 1935.5842 430.79185 1955.4525 430.73094 1975.0625 430.75 z M 2178.4688 430.75 C 2198.0787 430.76906 2217.4238 430.8681 2222 430.96875 C 2231.1525 431.17005 2239.1414 436.0441 2239.375 448.4375 C 2239.6088 461.0805 2239.0306 519.44325 2239.375 531.78125 C 2239.7267 544.37325 2229.9935 549.3232 2222 549.5 C 2214.2546 549.6767 2143.1399 549.9828 2133.4062 549.5 C 2123.6725 549.0172 2116.2613 540.08635 2116.5312 531.78125 C 2116.8011 523.47615 2116.2 457.8495 2116.5312 448.4375 C 2116.8621 439.0377 2122.2379 431.32265 2133.4062 430.96875 C 2138.9904 430.79185 2158.8588 430.73094 2178.4688 430.75 z M 2381.875 430.75 C 2401.485 430.76906 2420.8301 430.8681 2425.4062 430.96875 C 2434.5588 431.17005 2442.5477 436.0441 2442.7812 448.4375 C 2443.015 461.0805 2442.4369 519.44325 2442.7812 531.78125 C 2443.133 544.37325 2433.3997 549.3232 2425.4062 549.5 C 2417.6609 549.6767 2346.5462 549.9828 2336.8125 549.5 C 2327.0787 549.0172 2319.6676 540.08635 2319.9375 531.78125 C 2320.2074 523.47615 2319.6062 457.8495 2319.9375 448.4375 C 2320.2684 439.0377 2325.6442 431.32265 2336.8125 430.96875 C 2342.3966 430.79185 2362.265 430.73094 2381.875 430.75 z M 2600.2812 430.75 C 2627.3912 430.76906 2654.2363 430.8681 2658.8125 430.96875 C 2667.965 431.17005 2675.9539 436.0441 2676.1875 448.4375 C 2676.4213 461.0805 2675.8431 519.44325 2676.1875 531.78125 C 2676.5392 544.37325 2666.806 549.3232 2658.8125 549.5 C 2651.0671 549.6767 2549.9524 549.9828 2540.2188 549.5 C 2530.485 549.0172 2523.0738 540.08635 2523.3438 531.78125 C 2523.6136 523.47615 2523.0125 457.8495 2523.3438 448.4375 C 2523.6746 439.0377 2529.0504 431.32265 2540.2188 430.96875 C 2545.8029 430.79185 2573.1713 430.73094 2600.2812 430.75 z M 157.03125 626.25 C 185.14121 626.26906 212.9863 626.3681 217.5625 626.46875 C 226.715 626.67005 234.7039 631.5441 234.9375 643.9375 C 235.1713 656.5805 234.5931 714.94325 234.9375 727.28125 C 235.2892 739.87325 225.556 744.8232 217.5625 745 C 209.8171 745.1767 104.70245 745.4828 94.96875 745 C 85.234946 744.5172 77.82385 735.58635 78.09375 727.28125 C 78.36365 718.97615 77.76245 653.3495 78.09375 643.9375 C 78.42465 634.5377 83.80045 626.82265 94.96875 626.46875 C 100.5529 626.29185 128.92129 626.23094 157.03125 626.25 z M 376.53125 626.25 C 396.14121 626.26907 415.4863 626.3681 420.0625 626.46875 C 429.215 626.67004 437.2039 631.54411 437.4375 643.9375 C 437.6713 656.58045 437.0931 714.94321 437.4375 727.28125 C 437.7892 739.87328 428.056 744.82323 420.0625 745 C 412.3171 745.17678 341.20245 745.4828 331.46875 745 C 321.73495 744.5172 314.32385 735.58631 314.59375 727.28125 C 314.86365 718.97619 314.26245 653.34946 314.59375 643.9375 C 314.92465 634.53769 320.30045 626.82261 331.46875 626.46875 C 337.0529 626.29182 356.92129 626.23093 376.53125 626.25 z M 579.9375 626.25 C 599.54746 626.26907 618.89255 626.3681 623.46875 626.46875 C 632.62125 626.67004 640.61015 631.54411 640.84375 643.9375 C 641.07755 656.58045 640.49935 714.94321 640.84375 727.28125 C 641.19545 739.87328 631.46225 744.82323 623.46875 745 C 615.72335 745.17678 544.6087 745.4828 534.875 745 C 525.1412 744.5172 517.7301 735.58631 518 727.28125 C 518.2699 718.97619 517.6687 653.34946 518 643.9375 C 518.3309 634.53769 523.7067 626.82261 534.875 626.46875 C 540.45915 626.29182 560.32754 626.23093 579.9375 626.25 z M 783.34375 626.25 C 802.95371 626.26907 822.33005 626.3681 826.90625 626.46875 C 836.05875 626.67004 844.0164 631.54411 844.25 643.9375 C 844.4838 656.58045 843.9056 714.94321 844.25 727.28125 C 844.6017 739.87328 834.89975 744.82323 826.90625 745 C 819.16085 745.17678 748.01495 745.4828 738.28125 745 C 728.54745 744.5172 721.13635 735.58631 721.40625 727.28125 C 721.67615 718.97619 721.07495 653.34946 721.40625 643.9375 C 721.73715 634.53769 727.11295 626.82261 738.28125 626.46875 C 743.8654 626.29182 763.73379 626.23093 783.34375 626.25 z M 986.75 626.25 C 1006.36 626.26907 1025.7363 626.3681 1030.3125 626.46875 C 1039.465 626.67004 1047.4539 631.54411 1047.6875 643.9375 C 1047.9213 656.58045 1047.3431 714.94321 1047.6875 727.28125 C 1048.0392 739.87328 1038.306 744.82323 1030.3125 745 C 1022.5671 745.17678 951.4212 745.4828 941.6875 745 C 931.9537 744.5172 924.5426 735.58631 924.8125 727.28125 C 925.0824 718.97619 924.4812 653.34946 924.8125 643.9375 C 925.1434 634.53769 930.5192 626.82261 941.6875 626.46875 C 947.27165 626.29182 967.14004 626.23093 986.75 626.25 z M 1190.1562 626.25 C 1209.7662 626.26907 1229.1426 626.3681 1233.7188 626.46875 C 1242.8712 626.67004 1250.8601 631.54411 1251.0938 643.9375 C 1251.3275 656.58045 1250.7494 714.94321 1251.0938 727.28125 C 1251.4454 739.87328 1241.7123 744.82323 1233.7188 745 C 1225.9733 745.17678 1154.8587 745.4828 1145.125 745 C 1135.3912 744.5172 1127.9801 735.58631 1128.25 727.28125 C 1128.5199 718.97619 1127.9187 653.34946 1128.25 643.9375 C 1128.5809 634.53769 1133.9567 626.82261 1145.125 626.46875 C 1150.7092 626.29182 1170.5463 626.23093 1190.1562 626.25 z M 1393.5625 626.25 C 1413.1725 626.26907 1432.5488 626.3681 1437.125 626.46875 C 1446.2775 626.67004 1454.2664 631.54411 1454.5 643.9375 C 1454.7338 656.58045 1454.1556 714.94321 1454.5 727.28125 C 1454.8517 739.87328 1445.1185 744.82323 1437.125 745 C 1429.3796 745.17678 1358.2649 745.4828 1348.5312 745 C 1338.7975 744.5172 1331.3863 735.58631 1331.6562 727.28125 C 1331.9262 718.97619 1331.325 653.34946 1331.6562 643.9375 C 1331.9871 634.53769 1337.363 626.82261 1348.5312 626.46875 C 1354.1154 626.29182 1373.9525 626.23093 1393.5625 626.25 z M 1597 626.25 C 1616.61 626.26907 1635.955 626.3681 1640.5312 626.46875 C 1649.6837 626.67004 1657.6726 631.54411 1657.9062 643.9375 C 1658.14 656.58045 1657.5619 714.94321 1657.9062 727.28125 C 1658.2579 739.87328 1648.5248 744.82323 1640.5312 745 C 1632.7858 745.17678 1561.6712 745.4828 1551.9375 745 C 1542.2037 744.5172 1534.7926 735.58631 1535.0625 727.28125 C 1535.3324 718.97619 1534.7312 653.34946 1535.0625 643.9375 C 1535.3934 634.53769 1540.7692 626.82261 1551.9375 626.46875 C 1557.5217 626.29182 1577.39 626.23093 1597 626.25 z M 1800.4062 626.25 C 1820.0162 626.26907 1839.3613 626.3681 1843.9375 626.46875 C 1853.09 626.67004 1861.0789 631.54411 1861.3125 643.9375 C 1861.5463 656.58045 1860.9681 714.94321 1861.3125 727.28125 C 1861.6642 739.87328 1851.931 744.82323 1843.9375 745 C 1836.1921 745.17678 1765.0774 745.4828 1755.3438 745 C 1745.61 744.5172 1738.1988 735.58631 1738.4688 727.28125 C 1738.7387 718.97619 1738.1375 653.34946 1738.4688 643.9375 C 1738.7996 634.53769 1744.1755 626.82261 1755.3438 626.46875 C 1760.9279 626.29182 1780.7963 626.23093 1800.4062 626.25 z M 2003.8125 626.25 C 2023.4225 626.26907 2042.7676 626.3681 2047.3438 626.46875 C 2056.4963 626.67004 2064.4852 631.54411 2064.7188 643.9375 C 2064.9525 656.58045 2064.3744 714.94321 2064.7188 727.28125 C 2065.0705 739.87328 2055.3372 744.82323 2047.3438 745 C 2039.5983 745.17678 1968.4837 745.4828 1958.75 745 C 1949.0162 744.5172 1941.6051 735.58631 1941.875 727.28125 C 1942.1449 718.97619 1941.5437 653.34946 1941.875 643.9375 C 1942.2059 634.53769 1947.5817 626.82261 1958.75 626.46875 C 1964.3342 626.29182 1984.2025 626.23093 2003.8125 626.25 z M 2207.2188 626.25 C 2226.8287 626.26907 2246.1738 626.3681 2250.75 626.46875 C 2259.9025 626.67004 2267.8914 631.54411 2268.125 643.9375 C 2268.3588 656.58045 2267.7806 714.94321 2268.125 727.28125 C 2268.4767 739.87328 2258.7435 744.82323 2250.75 745 C 2243.0046 745.17678 2171.8899 745.4828 2162.1562 745 C 2152.4225 744.5172 2145.0113 735.58631 2145.2812 727.28125 C 2145.5511 718.97619 2144.95 653.34946 2145.2812 643.9375 C 2145.6121 634.53769 2150.9879 626.82261 2162.1562 626.46875 C 2167.7404 626.29182 2187.6088 626.23093 2207.2188 626.25 z M 2410.625 626.25 C 2430.235 626.26907 2449.5801 626.3681 2454.1562 626.46875 C 2463.3088 626.67004 2471.2977 631.54411 2471.5312 643.9375 C 2471.765 656.58045 2471.1869 714.94321 2471.5312 727.28125 C 2471.883 739.87328 2462.1497 744.82323 2454.1562 745 C 2446.4109 745.17678 2375.2962 745.4828 2365.5625 745 C 2355.8287 744.5172 2348.4176 735.58631 2348.6875 727.28125 C 2348.9574 718.97619 2348.3562 653.34946 2348.6875 643.9375 C 2349.0184 634.53769 2354.3942 626.82261 2365.5625 626.46875 C 2371.1466 626.29182 2391.015 626.23093 2410.625 626.25 z M 2614.0312 626.25 C 2633.6412 626.26907 2652.9863 626.3681 2657.5625 626.46875 C 2666.715 626.67004 2674.7039 631.54411 2674.9375 643.9375 C 2675.1713 656.58045 2674.5931 714.94321 2674.9375 727.28125 C 2675.2892 739.87328 2665.556 744.82323 2657.5625 745 C 2649.8171 745.17678 2578.7024 745.4828 2568.9688 745 C 2559.235 744.5172 2551.8238 735.58631 2552.0938 727.28125 C 2552.3636 718.97619 2551.7625 653.34946 2552.0938 643.9375 C 2552.4246 634.53769 2557.8004 626.82261 2568.9688 626.46875 C 2574.5529 626.29182 2594.4213 626.23093 2614.0312 626.25 z M 205.03125 823.5 C 257.14121 823.51906 308.9863 823.6181 313.5625 823.71875 C 322.715 823.92005 330.7039 828.7941 330.9375 841.1875 C 331.1713 853.8305 330.5931 912.19325 330.9375 924.53125 C 331.2892 937.12325 321.556 942.0732 313.5625 942.25 C 305.8171 942.4267 104.70245 942.7328 94.96875 942.25 C 85.23495 941.7672 77.82385 932.83635 78.09375 924.53125 C 78.36365 916.22615 77.76245 850.5995 78.09375 841.1875 C 78.42465 831.7877 83.80045 824.07265 94.96875 823.71875 C 100.5529 823.54185 152.92129 823.48094 205.03125 823.5 z M 474.78125 823.5 C 494.39121 823.51907 513.7363 823.6181 518.3125 823.71875 C 527.465 823.92004 535.4539 828.79411 535.6875 841.1875 C 535.9213 853.83045 535.3431 912.19321 535.6875 924.53125 C 536.0392 937.12328 526.306 942.07323 518.3125 942.25 C 510.5671 942.42678 439.45245 942.7328 429.71875 942.25 C 419.98495 941.7672 412.57385 932.83631 412.84375 924.53125 C 413.11365 916.22619 412.51245 850.59946 412.84375 841.1875 C 413.17465 831.78769 418.55045 824.07261 429.71875 823.71875 C 435.3029 823.54182 455.17129 823.48093 474.78125 823.5 z M 680.1875 823.5 C 699.79746 823.51907 719.14255 823.6181 723.71875 823.71875 C 732.87125 823.92004 740.86015 828.79411 741.09375 841.1875 C 741.32755 853.83045 740.74935 912.19321 741.09375 924.53125 C 741.44545 937.12328 731.71225 942.07323 723.71875 942.25 C 715.97335 942.42678 644.8587 942.7328 635.125 942.25 C 625.3912 941.7672 617.9801 932.83631 618.25 924.53125 C 618.5199 916.22619 617.9187 850.59946 618.25 841.1875 C 618.5809 831.78769 623.9567 824.07261 635.125 823.71875 C 640.70915 823.54182 660.57754 823.48093 680.1875 823.5 z M 881.59375 823.5 C 901.20371 823.51907 920.58005 823.6181 925.15625 823.71875 C 934.30875 823.92004 942.2664 828.79411 942.5 841.1875 C 942.7338 853.83045 942.1556 912.19321 942.5 924.53125 C 942.8517 937.12328 933.14975 942.07323 925.15625 942.25 C 917.41085 942.42678 846.26495 942.7328 836.53125 942.25 C 826.79745 941.7672 819.38635 932.83631 819.65625 924.53125 C 819.92615 916.22619 819.32495 850.59946 819.65625 841.1875 C 819.98715 831.78769 825.36295 824.07261 836.53125 823.71875 C 842.1154 823.54182 861.98379 823.48093 881.59375 823.5 z M 1085 823.5 C 1104.61 823.51907 1123.9863 823.6181 1128.5625 823.71875 C 1137.715 823.92004 1145.7039 828.79411 1145.9375 841.1875 C 1146.1713 853.83045 1145.5931 912.19321 1145.9375 924.53125 C 1146.2892 937.12328 1136.556 942.07323 1128.5625 942.25 C 1120.8171 942.42678 1049.6712 942.7328 1039.9375 942.25 C 1030.2037 941.7672 1022.7926 932.83631 1023.0625 924.53125 C 1023.3324 916.22619 1022.7312 850.59946 1023.0625 841.1875 C 1023.3934 831.78769 1028.7692 824.07261 1039.9375 823.71875 C 1045.5217 823.54182 1065.39 823.48093 1085 823.5 z M 1288.4062 823.5 C 1308.0162 823.51907 1327.3926 823.6181 1331.9688 823.71875 C 1341.1212 823.92004 1349.1102 828.79411 1349.3438 841.1875 C 1349.5775 853.83045 1348.9994 912.19321 1349.3438 924.53125 C 1349.6954 937.12328 1339.9622 942.07323 1331.9688 942.25 C 1324.2233 942.42678 1253.1087 942.7328 1243.375 942.25 C 1233.6412 941.7672 1226.2301 932.83631 1226.5 924.53125 C 1226.7699 916.22619 1226.1687 850.59946 1226.5 841.1875 C 1226.8309 831.78769 1232.2067 824.07261 1243.375 823.71875 C 1248.9592 823.54182 1268.7963 823.48093 1288.4062 823.5 z M 1491.8125 823.5 C 1511.4225 823.51907 1530.7988 823.6181 1535.375 823.71875 C 1544.5275 823.92004 1552.5164 828.79411 1552.75 841.1875 C 1552.9838 853.83045 1552.4056 912.19321 1552.75 924.53125 C 1553.1017 937.12328 1543.3685 942.07323 1535.375 942.25 C 1527.6296 942.42678 1456.5149 942.7328 1446.7812 942.25 C 1437.0475 941.7672 1429.6363 932.83631 1429.9062 924.53125 C 1430.1762 916.22619 1429.5749 850.59946 1429.9062 841.1875 C 1430.2371 831.78769 1435.6129 824.07261 1446.7812 823.71875 C 1452.3654 823.54182 1472.2025 823.48093 1491.8125 823.5 z M 1695.25 823.5 C 1714.86 823.51907 1734.205 823.6181 1738.7812 823.71875 C 1747.9337 823.92004 1755.9226 828.79411 1756.1562 841.1875 C 1756.39 853.83045 1755.8119 912.19321 1756.1562 924.53125 C 1756.5079 937.12328 1746.7748 942.07323 1738.7812 942.25 C 1731.0358 942.42678 1659.9212 942.7328 1650.1875 942.25 C 1640.4537 941.7672 1633.0426 932.83631 1633.3125 924.53125 C 1633.5824 916.22619 1632.9812 850.59946 1633.3125 841.1875 C 1633.6434 831.78769 1639.0192 824.07261 1650.1875 823.71875 C 1655.7717 823.54182 1675.64 823.48093 1695.25 823.5 z M 1898.6562 823.5 C 1918.2662 823.51907 1937.6113 823.6181 1942.1875 823.71875 C 1951.34 823.92004 1959.3289 828.79411 1959.5625 841.1875 C 1959.7963 853.83045 1959.2181 912.19321 1959.5625 924.53125 C 1959.9142 937.12328 1950.181 942.07323 1942.1875 942.25 C 1934.4421 942.42678 1863.3274 942.7328 1853.5938 942.25 C 1843.86 941.7672 1836.4488 932.83631 1836.7188 924.53125 C 1836.9887 916.22619 1836.3875 850.59946 1836.7188 841.1875 C 1837.0496 831.78769 1842.4255 824.07261 1853.5938 823.71875 C 1859.1779 823.54182 1879.0463 823.48093 1898.6562 823.5 z M 2102.0625 823.5 C 2121.6725 823.51907 2141.0176 823.6181 2145.5938 823.71875 C 2154.7463 823.92004 2162.7352 828.79411 2162.9688 841.1875 C 2163.2025 853.83045 2162.6244 912.19321 2162.9688 924.53125 C 2163.3205 937.12328 2153.5872 942.07323 2145.5938 942.25 C 2137.8484 942.42678 2066.7337 942.7328 2057 942.25 C 2047.2662 941.7672 2039.8551 932.83631 2040.125 924.53125 C 2040.3949 916.22619 2039.7937 850.59946 2040.125 841.1875 C 2040.4559 831.78769 2045.8317 824.07261 2057 823.71875 C 2062.5841 823.54182 2082.4525 823.48093 2102.0625 823.5 z M 2305.4688 823.5 C 2325.0787 823.51907 2344.4238 823.6181 2349 823.71875 C 2358.1525 823.92004 2366.1414 828.79411 2366.375 841.1875 C 2366.6088 853.83045 2366.0306 912.19321 2366.375 924.53125 C 2366.7267 937.12328 2356.9935 942.07323 2349 942.25 C 2341.2546 942.42678 2270.1399 942.7328 2260.4062 942.25 C 2250.6725 941.7672 2243.2613 932.83631 2243.5312 924.53125 C 2243.8011 916.22619 2243.2 850.59946 2243.5312 841.1875 C 2243.8621 831.78769 2249.2379 824.07261 2260.4062 823.71875 C 2265.9904 823.54182 2285.8588 823.48093 2305.4688 823.5 z M 2561.875 823.5 C 2607.985 823.51907 2653.8301 823.6181 2658.4062 823.71875 C 2667.5588 823.92004 2675.5477 828.79411 2675.7812 841.1875 C 2676.015 853.83045 2675.4369 912.19321 2675.7812 924.53125 C 2676.133 937.12328 2666.3997 942.07323 2658.4062 942.25 C 2650.6609 942.42678 2473.5462 942.7328 2463.8125 942.25 C 2454.0787 941.7672 2446.6676 932.83631 2446.9375 924.53125 C 2447.2074 916.22619 2446.6062 850.59946 2446.9375 841.1875 C 2447.2684 831.78769 2452.6442 824.07261 2463.8125 823.71875 C 2469.3966 823.54182 2515.765 823.48093 2561.875 823.5 z M 3011.2812 823.5 C 3028.3912 823.51907 3045.2363 823.6181 3049.8125 823.71875 C 3058.965 823.92004 3066.9539 828.79411 3067.1875 841.1875 C 3067.4213 853.83045 3066.8431 912.19321 3067.1875 924.53125 C 3067.5392 937.12328 3057.806 942.07323 3049.8125 942.25 C 3042.0671 942.42678 2980.9524 942.7328 2971.2188 942.25 C 2961.485 941.7672 2954.0739 932.83631 2954.3438 924.53125 C 2954.6136 916.22619 2954.0124 850.59946 2954.3438 841.1875 C 2954.6746 831.78769 2960.0505 824.07261 2971.2188 823.71875 C 2976.8029 823.54182 2994.1713 823.48093 3011.2812 823.5 z M 2816.0312 824.09375 C 2846.5864 823.86365 2874.8024 859.30045 2875.1562 870.46875 C 2875.51 881.63705 2875.3576 915.9101 2875.1562 925.0625 C 2874.9549 934.215 2870.3309 942.2039 2857.9375 942.4375 C 2845.2945 942.6713 2786.9318 942.0931 2774.5938 942.4375 C 2762.0017 942.7892 2757.0518 933.056 2756.875 925.0625 C 2756.6983 917.3171 2756.3922 880.20245 2756.875 870.46875 C 2757.3578 860.73495 2785.7262 824.32385 2816.0312 824.09375 z M 125.03125 1021.25 C 136.14121 1021.2691 146.9863 1021.3681 151.5625 1021.4688 C 160.715 1021.67 168.7039 1026.5441 168.9375 1038.9375 C 169.1713 1051.5805 168.5931 1109.9432 168.9375 1122.2812 C 169.2892 1134.8733 159.556 1139.8232 151.5625 1140 C 143.8171 1140.1767 106.70245 1140.4828 96.96875 1140 C 87.23495 1139.5172 79.82385 1130.5864 80.09375 1122.2812 C 80.36365 1113.9761 79.76245 1048.3495 80.09375 1038.9375 C 80.42465 1029.5377 85.80045 1021.8227 96.96875 1021.4688 C 102.5529 1021.2919 113.92129 1021.2309 125.03125 1021.25 z M 326.53125 1021.25 C 354.14121 1021.2691 381.4863 1021.3681 386.0625 1021.4688 C 395.215 1021.67 403.2039 1026.5441 403.4375 1038.9375 C 403.6713 1051.5805 403.0931 1109.9432 403.4375 1122.2812 C 403.7892 1134.8733 394.056 1139.8232 386.0625 1140 C 378.3171 1140.1767 275.20245 1140.4828 265.46875 1140 C 255.73495 1139.5172 248.32385 1130.5864 248.59375 1122.2812 C 248.86365 1113.9761 248.26245 1048.3495 248.59375 1038.9375 C 248.92465 1029.5377 254.30045 1021.8227 265.46875 1021.4688 C 271.0529 1021.2919 298.92129 1021.2309 326.53125 1021.25 z M 563.03125 1021.25 C 590.14121 1021.2691 616.9863 1021.3681 621.5625 1021.4688 C 630.715 1021.67 638.7039 1026.5441 638.9375 1038.9375 C 639.1713 1051.5805 638.5931 1109.9432 638.9375 1122.2812 C 639.2892 1134.8733 629.556 1139.8232 621.5625 1140 C 613.8171 1140.1767 512.70245 1140.4828 502.96875 1140 C 493.23495 1139.5172 485.82385 1130.5864 486.09375 1122.2812 C 486.36365 1113.9761 485.76245 1048.3495 486.09375 1038.9375 C 486.42465 1029.5377 491.80045 1021.8227 502.96875 1021.4688 C 508.5529 1021.2919 535.92129 1021.2309 563.03125 1021.25 z M 1368.5312 1021.25 C 1679.6412 1021.2691 1990.4863 1021.3681 1995.0625 1021.4688 C 2004.215 1021.67 2012.2039 1026.5441 2012.4375 1038.9375 C 2012.6713 1051.5805 2012.0931 1109.9432 2012.4375 1122.2812 C 2012.7892 1134.8733 2003.056 1139.8232 1995.0625 1140 C 1987.3171 1140.1767 750.20245 1140.4828 740.46875 1140 C 730.73495 1139.5172 723.32385 1130.5864 723.59375 1122.2812 C 723.86365 1113.9761 723.26245 1048.3495 723.59375 1038.9375 C 723.92465 1029.5377 729.30045 1021.8227 740.46875 1021.4688 C 746.0529 1021.2919 1057.4213 1021.2309 1368.5312 1021.25 z M 2175.5312 1021.25 C 2202.6412 1021.2691 2229.4863 1021.3681 2234.0625 1021.4688 C 2243.215 1021.67 2251.2039 1026.5441 2251.4375 1038.9375 C 2251.6713 1051.5805 2251.0931 1109.9432 2251.4375 1122.2812 C 2251.7892 1134.8733 2242.056 1139.8232 2234.0625 1140 C 2226.3171 1140.1767 2125.2024 1140.4828 2115.4688 1140 C 2105.735 1139.5172 2098.3238 1130.5864 2098.5938 1122.2812 C 2098.8636 1113.9761 2098.2625 1048.3495 2098.5938 1038.9375 C 2098.9246 1029.5377 2104.3004 1021.8227 2115.4688 1021.4688 C 2121.0529 1021.2919 2148.4213 1021.2309 2175.5312 1021.25 z M 2408.0312 1021.25 C 2435.1412 1021.2691 2461.9863 1021.3681 2466.5625 1021.4688 C 2475.715 1021.67 2483.7039 1026.5441 2483.9375 1038.9375 C 2484.1713 1051.5805 2483.5931 1109.9432 2483.9375 1122.2812 C 2484.2892 1134.8733 2474.556 1139.8232 2466.5625 1140 C 2458.8171 1140.1767 2357.7024 1140.4828 2347.9688 1140 C 2338.235 1139.5172 2330.8238 1130.5864 2331.0938 1122.2812 C 2331.3636 1113.9761 2330.7625 1048.3495 2331.0938 1038.9375 C 2331.4246 1029.5377 2336.8004 1021.8227 2347.9688 1021.4688 C 2353.5529 1021.2919 2380.9213 1021.2309 2408.0312 1021.25 z M 2816.5312 1021.25 C 2834.6412 1021.2691 2852.4863 1021.3681 2857.0625 1021.4688 C 2866.215 1021.67 2874.2039 1026.5441 2874.4375 1038.9375 C 2874.6713 1051.5805 2874.0931 1109.9432 2874.4375 1122.2812 C 2874.7892 1134.8733 2865.056 1139.8232 2857.0625 1140 C 2849.3171 1140.1767 2784.2024 1140.4828 2774.4688 1140 C 2764.735 1139.5172 2757.3239 1130.5864 2757.5938 1122.2812 C 2757.8636 1113.9761 2757.2624 1048.3495 2757.5938 1038.9375 C 2757.9246 1029.5377 2763.3005 1021.8227 2774.4688 1021.4688 C 2780.0529 1021.2919 2798.4213 1021.2309 2816.5312 1021.25 z M 2635.2812 1021.5 C 2645.3912 1021.5191 2655.2363 1021.6181 2659.8125 1021.7188 C 2668.965 1021.92 2676.9539 1026.5441 2677.1875 1038.9375 C 2677.4213 1051.5805 2676.8431 1109.9433 2677.1875 1122.2812 C 2677.5392 1134.8733 2667.806 1139.8232 2659.8125 1140 C 2652.0671 1140.1767 2618.9524 1140.4828 2609.2188 1140 C 2599.485 1139.5172 2563.0738 1111.1488 2562.8438 1080.8438 C 2562.6136 1050.2886 2598.0504 1022.0727 2609.2188 1021.7188 C 2614.8029 1021.5419 2625.1713 1021.4809 2635.2812 1021.5 z M 2997.0312 1021.5 C 3007.1412 1021.4809 3017.4784 1021.5419 3023.0625 1021.7188 C 3034.2308 1022.0727 3069.6676 1050.2886 3069.4375 1080.8438 C 3069.2074 1111.1488 3032.7963 1139.5172 3023.0625 1140 C 3013.3288 1140.4828 2980.2141 1140.1767 2972.4688 1140 C 2964.4752 1139.8232 2954.742 1134.8733 2955.0938 1122.2812 C 2955.4381 1109.9433 2954.86 1051.5805 2955.0938 1038.9375 C 2955.3274 1026.5441 2963.3162 1021.92 2972.4688 1021.7188 C 2977.0449 1021.6181 2986.9213 1021.5191 2997.0312 1021.5 z "
     id="rect3055" />
  <g
     id="g4296" />
</svg>
