<?xml version="1.0" encoding="UTF-8" standalone="no"?>
<!-- Created with Inkscape (http://www.inkscape.org/) -->

<svg
   xmlns:dc="http://purl.org/dc/elements/1.1/"
   xmlns:cc="http://creativecommons.org/ns#"
   xmlns:rdf="http://www.w3.org/1999/02/22-rdf-syntax-ns#"
   xmlns:svg="http://www.w3.org/2000/svg"
   xmlns="http://www.w3.org/2000/svg"
   xmlns:sodipodi="http://sodipodi.sourceforge.net/DTD/sodipodi-0.dtd"
   xmlns:inkscape="http://www.inkscape.org/namespaces/inkscape"
   width="270.57162"
   height="389.35431"
   id="svg9632"
   version="1.1"
   inkscape:version="0.48.3.1 r9886"
   sodipodi:docname="New document 21">
  <defs
     id="defs9634" />
  <sodipodi:namedview
     id="base"
     pagecolor="#ffffff"
     bordercolor="#666666"
     borderopacity="1.0"
     inkscape:pageopacity="0.0"
     inkscape:pageshadow="2"
     inkscape:zoom="0.35"
     inkscape:cx="180.28582"
     inkscape:cy="228.96288"
     inkscape:document-units="px"
     inkscape:current-layer="layer1"
     showgrid="false"
     fit-margin-top="0"
     fit-margin-left="0"
     fit-margin-right="0"
     fit-margin-bottom="0"
     inkscape:window-width="786"
     inkscape:window-height="404"
     inkscape:window-x="0"
     inkscape:window-y="0"
     inkscape:window-maximized="0" />
  <metadata
     id="metadata9637">
    <rdf:RDF>
      <cc:Work
         rdf:about="">
        <dc:format>image/svg+xml</dc:format>
        <dc:type
           rdf:resource="http://purl.org/dc/dcmitype/StillImage" />
        <dc:title></dc:title>
      </cc:Work>
    </rdf:RDF>
  </metadata>
  <g
     inkscape:label="Layer 1"
     inkscape:groupmode="layer"
     id="layer1"
     transform="translate(-64.714185,-143.39931)">
    <path
       sodipodi:nodetypes="cccccccccccccccsscc"
       inkscape:connector-curvature="0"
       id="path6851-0"
       d="m 320.41452,532.75343 -134.4906,-0.08 c -39.0696,0 -48.7156,-10.4135 -48.7156,-45.146 l 0,-44.9221 0,-188.6522 -67.359102,0 c -3.7789,-0.2705 -7.2309,-2.1353 -3.5918,-5.9506 L 173.95062,144.50663 c 1.427,-1.3601 3.6107,-1.5923 5.4438,0.011 l 108.8929,104.7424 c 2.37,2.453 1.5358,4.8291 -1.7604,4.9184 l -63.6043,0 0,160.3316 c 0,29.9366 5.0345,41.0089 42.1584,41.0093 l 54.9546,0 c 9.98,0.2729 15.2502,3.1906 15.2502,14.0607 l 0,45.3135 c 0,12.5813 -6.4064,17.5523 -14.8713,17.8601 z"
       style="fill:BASE_ROLE_COLOR;stroke:none" />
  </g>
</svg>
