<svg xmlns="http://www.w3.org/2000/svg" width="590.4" height="216"><linearGradient id="a" gradientUnits="userSpaceOnUse" x1="23.376" y1="901.826" x2="15.36" y2="892.474" gradientTransform="translate(90 -791)"><stop offset="0" stop-color="#0b5463"/><stop offset="1" stop-color="#0b5463"/></linearGradient><path fill="url(#a)" d="M102.813 103.89l12.328-.424-6.165 11.647z"/><linearGradient id="b" gradientUnits="userSpaceOnUse" x1="92.376" y1="905.86" x2="92.376" y2="970.14" gradientTransform="translate(90 -791)"><stop offset="0" stop-color="#0b5463"/><stop offset=".07" stop-color="#0b6070"/><stop offset=".216" stop-color="#0b7285"/><stop offset=".361" stop-color="#0a7d91"/><stop offset=".5" stop-color="#0a8195"/><stop offset=".639" stop-color="#0a7d91"/><stop offset=".783" stop-color="#0b7285"/><stop offset=".93" stop-color="#0b6070"/><stop offset="1" stop-color="#0b5463"/></linearGradient><path fill="url(#b)" d="M156.308 106.82c45.552 7.381 52.088 18.776 52.088 18.776 0-.002.111 1.146 0 2.107-.055.482-.242.842-.372 1.141-.261.604-4.765 10.004-34.201 16.201l-17.515-38.225z"/><linearGradient id="c" gradientUnits="userSpaceOnUse" x1="-50.446" y1="975.021" x2="-29.59" y2="937.888" gradientTransform="translate(90 -791)"><stop offset="0" stop-color="#014251"/><stop offset=".086" stop-color="#025262"/><stop offset=".227" stop-color="#046676"/><stop offset=".366" stop-color="#057183"/><stop offset=".5" stop-color="#057587"/><stop offset=".634" stop-color="#057183"/><stop offset=".773" stop-color="#046676"/><stop offset=".914" stop-color="#025262"/><stop offset="1" stop-color="#014251"/></linearGradient><path fill="url(#c)" d="M41.516 143.514c-10.369 27.344-5.049 36.055-4.692 36.596.181.271.349.668.755.934.157.104 2.143-.377 2.143-.377s18.623-.938 40.443-31.939l-38.649-5.214z"/><linearGradient id="d" gradientUnits="userSpaceOnUse" x1="9.086" y1="848.944" x2="-25.438" y2="808.665" gradientTransform="translate(90 -791)"><stop offset="0" stop-color="#0d283a"/><stop offset=".028" stop-color="#0c3042"/><stop offset=".135" stop-color="#0b495a"/><stop offset=".247" stop-color="#0a5b6c"/><stop offset=".365" stop-color="#0a6676"/><stop offset=".5" stop-color="#0a697a"/><stop offset=".618" stop-color="#0a6070"/><stop offset=".813" stop-color="#0b4758"/><stop offset="1" stop-color="#0d283a"/></linearGradient><path fill="url(#d)" d="M109.549 38.875C84.568 11.5 72.487 13.07 71.788 13.185c-.35.059-.69.072-1.158.311-.832.426-1.77 3.182-1.77 3.182s-5.283 15.117 15.867 55.791l24.822-33.594z"/><linearGradient id="e" gradientUnits="userSpaceOnUse" x1="77.418" y1="979.431" x2="50.748" y2="893.516" gradientTransform="translate(90 -791)"><stop offset="0" stop-color="#0d283a"/><stop offset=".028" stop-color="#0c3042"/><stop offset=".135" stop-color="#0b495a"/><stop offset=".247" stop-color="#0a5b6c"/><stop offset=".365" stop-color="#0a6676"/><stop offset=".5" stop-color="#0a697a"/><stop offset=".618" stop-color="#0a6070"/><stop offset=".813" stop-color="#0b4758"/><stop offset="1" stop-color="#0d283a"/></linearGradient><path fill="url(#e)" d="M131.342 144.072c33.872 38.717 45.761 36.561 45.761 36.561s2.182.508 2.332.41c.405-.266.572-.662.753-.934.482-.73 10.052-16.422-22.444-72.979l-26.402 36.942z"/><linearGradient id="f" gradientUnits="userSpaceOnUse" x1="-41.932" y1="905.86" x2="-41.932" y2="970.138" gradientTransform="translate(90 -791)"><stop offset="0" stop-color="#0b5463"/><stop offset=".07" stop-color="#0b6070"/><stop offset=".216" stop-color="#0b7285"/><stop offset=".361" stop-color="#0a7d91"/><stop offset=".5" stop-color="#0a8195"/><stop offset=".639" stop-color="#0a7d91"/><stop offset=".783" stop-color="#0b7285"/><stop offset=".93" stop-color="#0b6070"/><stop offset="1" stop-color="#0b5463"/></linearGradient><path fill="url(#f)" d="M87.52 150.014c-69.822-2.938-78.172-20.346-78.529-21.17-.109-.25-.417-.746-.371-1.141.145-1.238 2.695-3.439 2.695-3.439s18.578-11.404 49.362-17.545l26.843 43.295z"/><linearGradient id="g" gradientUnits="userSpaceOnUse" x1="-6.566" y1="842.787" x2="18.668" y2="842.787" gradientTransform="translate(90 -791)"><stop offset="0" stop-color="#0b5463"/><stop offset="1" stop-color="#0b5463"/></linearGradient><path opacity=".4" fill="url(#g)" d="M107.614 36.783c-6.985 7.438-15.034 17.199-24.18 30.008h1.784c5.405-6.887 18.892-23.848 23.45-28.838l-1.054-1.17z"/><linearGradient id="h" gradientUnits="userSpaceOnUse" x1="26.762" y1="869.471" x2="26.762" y2="808.843" gradientTransform="translate(90 -791)"><stop offset="0" stop-color="#014251"/><stop offset=".5" stop-color="#057587"/><stop offset=".693" stop-color="#057384"/><stop offset=".804" stop-color="#056b7c"/><stop offset=".893" stop-color="#035e6e"/><stop offset=".971" stop-color="#024b5b"/><stop offset="1" stop-color="#014251"/></linearGradient><path fill="url(#h)" d="M135.817 68.23c18.261-43.152 11.11-53.051 11.11-53.051s-.377-1.594-.542-1.684c-.308-.168-.917-.268-1.159-.309-.884-.148-19.868-2.605-60.008 53.604l50.599 1.44z"/><linearGradient id="i" gradientUnits="userSpaceOnUse" x1="-28.619" y1="987.141" x2="82.142" y2="819.717" gradientTransform="translate(90 -791)"><stop offset="0" stop-color="#0b879a"/><stop offset=".082" stop-color="#379fb2"/><stop offset=".168" stop-color="#5cb4c7"/><stop offset=".253" stop-color="#79c5d7"/><stop offset=".337" stop-color="#8dd1e3"/><stop offset=".42" stop-color="#9ad8ea"/><stop offset=".5" stop-color="#9edaec"/><stop offset=".58" stop-color="#9ad8ea"/><stop offset=".663" stop-color="#8dd1e3"/><stop offset=".747" stop-color="#79c5d7"/><stop offset=".833" stop-color="#5cb4c7"/><stop offset=".918" stop-color="#379fb2"/><stop offset="1" stop-color="#0b879a"/></linearGradient><path fill="url(#i)" d="M108.172 176.496c-24.74 26.969-36.709 25.414-37.406 25.299-.967-.162-2.927-1.459-2.927-1.459l-30.261-19.295C50.32 178.332 66 163.186 82.504 143.922l25.668 32.574z"/><linearGradient id="j" gradientUnits="userSpaceOnUse" x1="-38.57" y1="990.498" x2="5.3" y2="951.219" gradientTransform="translate(90 -791)"><stop offset="0" stop-color="#057b8f"/><stop offset=".082" stop-color="#038da1"/><stop offset=".181" stop-color="#029ab0"/><stop offset=".301" stop-color="#01a2b8"/><stop offset=".5" stop-color="#01a4bb"/><stop offset=".699" stop-color="#01a2b8"/><stop offset=".819" stop-color="#029ab0"/><stop offset=".918" stop-color="#038da1"/><stop offset="1" stop-color="#057b8f"/></linearGradient><path fill="url(#j)" d="M109.192 177.518c-24.74 26.967-36.708 25.412-37.404 25.297-.969-.162-2.928-1.459-2.928-1.459l-31.281-20.312c12.742-2.709 29.441-16.834 45.945-36.1l25.668 32.574z"/><linearGradient id="k" gradientUnits="userSpaceOnUse" x1="-42.494" y1="818.572" x2="59.365" y2="988.337" gradientTransform="translate(90 -791)"><stop offset="0" stop-color="#057b8f"/><stop offset=".018" stop-color="#0a8093"/><stop offset=".141" stop-color="#279aad"/><stop offset=".263" stop-color="#3baebf"/><stop offset=".384" stop-color="#48b9ca"/><stop offset=".5" stop-color="#4cbdce"/><stop offset=".616" stop-color="#48b9ca"/><stop offset=".737" stop-color="#3baebf"/><stop offset=".859" stop-color="#279aad"/><stop offset=".982" stop-color="#0a8093"/><stop offset="1" stop-color="#057b8f"/></linearGradient><path fill="url(#k)" d="M43 72.677C32.01 44.38 37.481 35.419 37.844 34.87c.541-.818 2.524-2.08 2.524-2.08l30.261-19.295c-2.627 12.354 4.059 31.447 14.324 53.541L43 72.677z"/><linearGradient id="l" gradientUnits="userSpaceOnUse" x1="67.689" y1="987.313" x2="2.19" y2="904.814" gradientTransform="translate(90 -791)"><stop offset="0" stop-color="#057b8f"/><stop offset=".026" stop-color="#0a8093"/><stop offset=".205" stop-color="#279aad"/><stop offset=".384" stop-color="#3baebf"/><stop offset=".56" stop-color="#48b9ca"/><stop offset=".73" stop-color="#4cbdce"/><stop offset=".792" stop-color="#48b9ca"/><stop offset=".858" stop-color="#3baebf"/><stop offset=".924" stop-color="#279aad"/><stop offset=".991" stop-color="#0a8093"/><stop offset="1" stop-color="#057b8f"/></linearGradient><path fill="url(#l)" d="M106.755 106.365c-15.667.17-31.37 1.221-45.417 3.326.451.944 7.535 12.603 12.601 20.399 48.579 74.806 71.339 71.863 72.307 71.701.968-.16 2.928-1.457 2.928-1.457l30.262-19.293c-20.617-4.381-49.277-37.979-72.681-74.676z"/><linearGradient id="m" gradientUnits="userSpaceOnUse" x1="-26.956" y1="860.165" x2="-39.709" y2="814.255" gradientTransform="translate(90 -791)"><stop offset="0" stop-color="#057b8f"/><stop offset=".082" stop-color="#038da1"/><stop offset=".181" stop-color="#029ab0"/><stop offset=".301" stop-color="#01a2b8"/><stop offset=".5" stop-color="#01a4bb"/><stop offset=".699" stop-color="#01a2b8"/><stop offset=".819" stop-color="#029ab0"/><stop offset=".918" stop-color="#038da1"/><stop offset="1" stop-color="#057b8f"/></linearGradient><path fill="url(#m)" d="M41.981 73.699c-10.99-28.299-5.519-37.26-5.157-37.809.542-.816 2.524-2.08 2.524-2.08l31.281-20.314c-2.627 12.354 3.038 32.469 13.303 54.561l-41.951 5.642z"/><linearGradient id="n" gradientUnits="userSpaceOnUse" x1="117.473" y1="891.126" x2="-81.229" y2="891.126" gradientTransform="translate(90 -791)"><stop offset="0" stop-color="#0b879a"/><stop offset=".013" stop-color="#118b9e"/><stop offset=".112" stop-color="#36a5ba"/><stop offset=".211" stop-color="#53bad0"/><stop offset=".31" stop-color="#67c8e0"/><stop offset=".407" stop-color="#74d1e9"/><stop offset=".5" stop-color="#78d4ec"/><stop offset=".593" stop-color="#74d1e9"/><stop offset=".69" stop-color="#67c8e0"/><stop offset=".788" stop-color="#53bad0"/><stop offset=".888" stop-color="#36a5ba"/><stop offset=".987" stop-color="#118b9e"/><stop offset="1" stop-color="#0b879a"/></linearGradient><path fill="url(#n)" d="M156.279 110.549c23.614 3.406 43.153 8.193 52.116 17.154V91.777s.02-2.35-.372-3.25c-.259-.594-4.659-9.783-33.169-15.98l-18.575 38.002z"/><linearGradient id="o" gradientUnits="userSpaceOnUse" x1="60.517" y1="888.225" x2="117.308" y2="891.285" gradientTransform="translate(90 -791)"><stop offset="0" stop-color="#096f80"/><stop offset=".006" stop-color="#097181"/><stop offset=".091" stop-color="#0b8395"/><stop offset=".188" stop-color="#0c8fa4"/><stop offset=".305" stop-color="#0d97ac"/><stop offset=".5" stop-color="#0d99af"/><stop offset=".695" stop-color="#0d97ac"/><stop offset=".812" stop-color="#0c8fa4"/><stop offset=".909" stop-color="#0b8395"/><stop offset=".994" stop-color="#097181"/><stop offset="1" stop-color="#096f80"/></linearGradient><path fill="url(#o)" d="M156.279 109.178c23.614 3.406 43.153 9.564 52.116 18.525V90.406s.02-2.35-.372-3.25c-.259-.594-4.659-9.783-33.169-15.98l-18.575 38.002z"/><linearGradient id="p" gradientUnits="userSpaceOnUse" x1="-81.38" y1="888.32" x2="21.085" y2="888.32" gradientTransform="translate(90 -791)"><stop offset="0" stop-color="#0b879a"/><stop offset=".022" stop-color="#118b9e"/><stop offset=".197" stop-color="#36a5ba"/><stop offset=".372" stop-color="#53bad0"/><stop offset=".545" stop-color="#67c8e0"/><stop offset=".715" stop-color="#74d1e9"/><stop offset=".879" stop-color="#78d4ec"/><stop offset=".901" stop-color="#74d1e9"/><stop offset=".925" stop-color="#67c8e0"/><stop offset=".949" stop-color="#53bad0"/><stop offset=".973" stop-color="#36a5ba"/><stop offset=".997" stop-color="#118b9e"/><stop offset="1" stop-color="#0b879a"/></linearGradient><path fill="url(#p)" d="M134.862 67.619c-5.318-.258-16.663-.682-26.354-.682-89.197 0-99.124 20.689-99.517 21.59-.391.9-.371 3.25-.371 3.25v35.926c8.678-8.678 27.775-13.406 50.98-16.885 14.048-2.105 29.596-3.254 45.263-3.424 2.771-.029 5.546-.029 8.315 0 0 0 27.002-39.518 21.684-39.775z"/><linearGradient id="q" gradientUnits="userSpaceOnUse" x1="-9.324" y1="861.803" x2="-47.833" y2="856.388" gradientTransform="translate(90 -791)"><stop offset="0" stop-color="#0b5463"/><stop offset="1" stop-color="#0b5463"/></linearGradient><path opacity=".2" fill="url(#q)" d="M83.947 64.845c-18.644.945-32.06 2.318-43.277 5.354l.536 1.471c1.021-.166 2.295-.514 3.332-.67 12.669-1.9 26.317-3.637 40.416-3.963l-1.007-2.192z"/><linearGradient id="r" gradientUnits="userSpaceOnUse" x1="29.86" y1="894.74" x2="-78.964" y2="879.437" gradientTransform="translate(90 -791)"><stop offset="0" stop-color="#0b879a"/><stop offset=".038" stop-color="#1694a7"/><stop offset=".118" stop-color="#26a8ba"/><stop offset=".208" stop-color="#32b6c8"/><stop offset=".318" stop-color="#39bed1"/><stop offset=".5" stop-color="#3bc1d3"/><stop offset=".682" stop-color="#39bed1"/><stop offset=".792" stop-color="#32b6c8"/><stop offset=".882" stop-color="#26a8ba"/><stop offset=".962" stop-color="#1694a7"/><stop offset="1" stop-color="#0b879a"/></linearGradient><path fill="url(#r)" d="M134.862 66.248c-5.318-.258-16.663-.682-26.354-.682-89.197 0-99.124 20.689-99.517 21.59-.391.9-.371 3.25-.371 3.25v37.297c8.678-8.678 27.775-14.775 50.98-18.256 14.048-2.106 29.596-3.254 45.263-3.424 2.771-.029 5.546-.029 8.315.002 0 0 27.002-39.52 21.684-39.777z"/><linearGradient id="s" gradientUnits="userSpaceOnUse" x1="80.297" y1="819.396" x2="28.548" y2="908.521" gradientTransform="translate(90 -791)"><stop offset="0" stop-color="#0b879a"/><stop offset=".124" stop-color="#379fb2"/><stop offset=".252" stop-color="#5cb4c7"/><stop offset=".38" stop-color="#79c5d7"/><stop offset=".506" stop-color="#8dd1e3"/><stop offset=".631" stop-color="#9ad8ea"/><stop offset=".751" stop-color="#9edaec"/><stop offset=".791" stop-color="#9ad8ea"/><stop offset=".832" stop-color="#8dd1e3"/><stop offset=".874" stop-color="#79c5d7"/><stop offset=".917" stop-color="#5cb4c7"/><stop offset=".959" stop-color="#379fb2"/><stop offset="1" stop-color="#0b879a"/></linearGradient><path fill="url(#s)" d="M108.502 109.08c24.314-36.528 42.304-74.786 37.882-95.584l30.262 19.293s1.98 1.264 2.521 2.082c.542.818 12.487 20.414-36.094 95.221-3.575 5.504-6.885 11.99-8.103 12.592-8.289-8.106-26.468-33.604-26.468-33.604z"/><linearGradient id="t" gradientUnits="userSpaceOnUse" x1="86.801" y1="864.229" x2="67.959" y2="899.587" gradientTransform="translate(90 -791)"><stop offset="0" stop-color="#0b5463"/><stop offset="1" stop-color="#0b5463"/></linearGradient><path opacity=".25" fill="url(#t)" d="M175.734 71.333c-5.28 12.918-11.025 25.32-19.455 39.147l2.229.424c9.653-16.59 15.203-28.776 18.983-39.131l-1.757-.44z"/><linearGradient id="u" gradientUnits="userSpaceOnUse" x1="78.6" y1="821.354" x2="26.685" y2="918.776" gradientTransform="translate(90 -791)"><stop offset="0" stop-color="#0b879a"/><stop offset=".038" stop-color="#1694a7"/><stop offset=".118" stop-color="#26a8ba"/><stop offset=".208" stop-color="#32b6c8"/><stop offset=".318" stop-color="#39bed1"/><stop offset=".5" stop-color="#3bc1d3"/><stop offset=".682" stop-color="#39bed1"/><stop offset=".792" stop-color="#32b6c8"/><stop offset=".882" stop-color="#26a8ba"/><stop offset=".962" stop-color="#1694a7"/><stop offset="1" stop-color="#0b879a"/></linearGradient><path fill="url(#u)" d="M144.094 131.111c48.582-74.807 36.636-94.401 36.094-95.221-.541-.816-2.521-2.08-2.521-2.08l-31.282-20.314c4.396 20.678-12.935 60.498-37.042 96.872 8.118 12.356 16.496 24.437 25.324 34.678 1.759-1.845 6.167-8.917 9.427-13.935z"/><linearGradient id="v" gradientUnits="userSpaceOnUse" x1="82.629" y1="823.549" x2="30.257" y2="921.83" gradientTransform="translate(90 -791)"><stop offset="0" stop-color="#0b879a"/><stop offset=".038" stop-color="#1694a7"/><stop offset=".118" stop-color="#26a8ba"/><stop offset=".208" stop-color="#32b6c8"/><stop offset=".318" stop-color="#39bed1"/><stop offset=".5" stop-color="#3bc1d3"/><stop offset=".682" stop-color="#39bed1"/><stop offset=".792" stop-color="#32b6c8"/><stop offset=".882" stop-color="#26a8ba"/><stop offset=".962" stop-color="#1694a7"/><stop offset="1" stop-color="#0b879a"/></linearGradient><path fill="url(#v)" d="M133.788 146.396c.107-.057.26-.195.43-.375-8.828-10.242-17.602-22.018-25.719-34.373-.14.209-.276.422-.416.633 0 0 16.919 26.723 25.705 34.115z"/><linearGradient id="w" gradientUnits="userSpaceOnUse" x1="-1.897" y1="935.297" x2="11.535" y2="971.688" gradientTransform="translate(90 -791)"><stop offset="0" stop-color="#0b5463"/><stop offset="1" stop-color="#0b5463"/></linearGradient><path opacity=".2" fill="url(#w)" d="M108.506 178.262c-.398-.457-18.246-21.541-26.364-33.9l-1.325 1.512c10.186 14.547 19.059 25.396 26.666 33.479l1.023-1.091z"/><linearGradient id="x" gradientUnits="userSpaceOnUse" x1="23.611" y1="897.869" x2="39.425" y2="996.322" gradientTransform="translate(90 -791)"><stop offset="0" stop-color="#096f80"/><stop offset=".024" stop-color="#107b8c"/><stop offset=".089" stop-color="#2095a6"/><stop offset=".16" stop-color="#2ca8ba"/><stop offset=".24" stop-color="#34b6c8"/><stop offset=".338" stop-color="#39bfd0"/><stop offset=".5" stop-color="#3bc1d3"/><stop offset=".672" stop-color="#39bed1"/><stop offset=".775" stop-color="#33b6c8"/><stop offset=".86" stop-color="#28a8ba"/><stop offset=".935" stop-color="#1894a7"/><stop offset="1" stop-color="#057b8f"/></linearGradient><path fill="url(#x)" d="M134.217 146.021c-8.828-10.242-17.602-22.018-25.719-34.373a365.281 365.281 0 0 1-2.763-4.264c-15.667.17-31.37 1.221-45.418 3.325.451.947 7.536 12.603 12.601 20.399 48.58 74.808 71.339 71.865 72.308 71.703.968-.162 2.927-1.459 2.927-1.459l31.282-20.312c-12.802-2.72-29.097-16.317-45.218-35.019z"/><g fill="#fff"><path d="M343.781 154.282h22.16l-33.586-46.504 2.139-.639c4.254-1.265 7.98-3.055 11.08-5.32 3.074-2.248 5.531-4.83 7.293-7.666 1.795-2.877 3.125-5.902 3.955-8.993.832-3.106 1.254-6.431 1.254-9.878 0-4.01-.484-7.669-1.447-10.873-.945-3.176-2.166-5.828-3.621-7.88-1.453-2.038-3.299-3.849-5.498-5.38-2.252-1.566-4.438-2.762-6.498-3.557-2.09-.805-4.531-1.46-7.26-1.945-2.752-.492-5.131-.804-7.061-.934a97.984 97.984 0 0 0-6.449-.195h-46.498v109.764h16.861v-43.787h21.547l31.629 43.787zm-53.176-59.061V59.71h23.754c17.24 0 25.98 5.853 25.98 17.397 0 3.053-.605 5.762-1.812 8.047-1.199 2.288-2.759 4.109-4.627 5.412-1.812 1.27-4.143 2.271-6.91 2.976a48.25 48.25 0 0 1-7.809 1.356c-2.465.215-5.344.322-8.559.322h-20.021v.001h.004zM378.113 44.518v18.369h18.768V44.518zM379.307 78.931h16.383v75.351h-16.383zM461.748 93.69c2.494.852 4.33 1.846 5.615 3.04 1.285 1.192 2.297 2.726 3.018 4.558.689 1.75 1.098 3.199 1.252 4.435.141 1.169.209 2.528.209 4.05v44.51h16.383v-44.748c0-3.497-.182-6.69-.541-9.495-.35-2.707-1.137-5.615-2.326-8.641-1.16-2.93-2.73-5.377-4.682-7.275-1.949-1.9-4.705-3.521-8.188-4.814-3.52-1.307-7.771-1.967-12.643-1.967-9.117 0-19.146 2.309-29.812 6.865l-1.373.584-2.93-5.86h-11.107v75.351h16.379V97.319l1.014-.391c7.73-2.971 14.875-4.475 21.238-4.475 3.226.001 6.084.413 8.494 1.237zM570.332 187.288c2.246-2.07 4.096-4.261 5.494-6.511a36.022 36.022 0 0 0 3.498-7.461c.92-2.702 1.562-5.347 1.92-7.856.355-2.537.541-5.201.541-7.924V78.931h-11.994l-1.371 3.942-1.555-.646c-7.771-3.243-15.076-4.886-21.725-4.886a51.51 51.51 0 0 0-10.91 1.197c-3.633.785-7.42 2.182-11.254 4.15-3.811 1.955-7.219 4.412-10.141 7.306-2.877 2.854-5.271 6.629-7.113 11.226-1.852 4.606-2.789 9.864-2.789 15.624 0 5.572.801 10.664 2.373 15.131 1.566 4.443 3.666 8.156 6.242 11.033 2.602 2.9 5.709 5.369 9.248 7.342 3.561 1.982 7.264 3.41 11.021 4.25 9.814 2.188 20.922 1.555 31.471-2.211l2.115-.756v2.963c0 2.865-.184 5.523-.537 7.902-.365 2.445-1.17 5.014-2.396 7.627-1.252 2.682-2.967 4.961-5.094 6.775-2.115 1.799-5.016 3.291-8.613 4.438-3.561 1.129-7.803 1.703-12.604 1.703-6.861 0-13.92-1.176-20.996-3.498l-1.848-.674-4.854 12.545 1.545.668c8.832 3.439 18.32 5.195 28.143 5.195 5.01 0 9.648-.434 13.785-1.279 4.111-.844 7.688-2.002 10.629-3.447 2.921-1.433 5.537-3.206 7.769-5.263zm-5.977-48.447c-5.449 1.959-10.977 2.955-16.434 2.955-8.879 0-15.84-2.502-20.682-7.432-4.834-4.916-7.287-11.27-7.287-18.869 0-7.321 2.432-13.26 7.229-17.661 4.762-4.361 11.119-6.574 18.914-6.574 5.055 0 11.164 1.037 18.168 3.084l1.141.333v43.787l-1.049.377z"/></g><text style="line-height:125%" x="412.77" y="58.018" font-weight="400" font-size="40" font-family="sans-serif" letter-spacing="0" word-spacing="0" fill="#ccc"><tspan x="412.77" y="58.018" style="-inkscape-font-specification:'Swiss921 BT Condensed'" font-stretch="condensed" font-family="Swiss921 BT">Version</tspan></text><text style="line-height:125%" x="548.567" y="58.69" font-weight="400" font-size="60" font-family="sans-serif" letter-spacing="0" word-spacing="0" fill="red"><tspan x="548.567" y="58.69" style="-inkscape-font-specification:'Arial Black, '" font-family="Arial Black">3</tspan></text><g fill="#fff"><text transform="matrix(1 0 0 1 -10.756 0)" y="196.177" x="320.005" style="line-height:125%" font-weight="400" font-size="50.44" font-family="sans-serif" letter-spacing="0" word-spacing="0" stroke="#fff" stroke-width="1.4"><tspan y="196.177" x="320.005" font-weight="700">DE</tspan></text><path d="M293.653 179.247l14.037 20.216-11.12-.096-12.15-17.787v17.802l-9.038.1V160.44l9.135.05-.097 16.523 12.388-16.386 10.895-.034z"/><path d="M297.17 201.73l-.79.249a.273.273 0 0 1-.307-.107l-3.568-5.221c-2.403 4.704-7.293 7.926-12.94 7.926-8.022 0-14.527-6.504-14.527-14.527 0-5.902 3.52-10.978 8.574-13.252v-3.747c-.92.321-1.808.71-2.653 1.17l-.004-.004-6.843-4.488a.463.463 0 0 0-.582.06l-3.586 3.585a.465.465 0 0 0-.068.57l4.198 6.912a17.943 17.943 0 0 0-1.767 4.025l-7.707 1.603a.464.464 0 0 0-.369.454v5.07c0 .214.147.4.353.45l7.48 1.828a17.921 17.921 0 0 0 1.834 4.649l-4.33 6.602a.464.464 0 0 0 .061.583l3.585 3.584c.15.15.386.18.57.07l6.784-4.12a17.938 17.938 0 0 0 4.288 1.784l1.583 7.61c.045.216.236.37.454.37h5.07a.463.463 0 0 0 .45-.355l1.865-7.626a17.866 17.866 0 0 0 4.412-1.857l6.685 4.384a.463.463 0 0 0 .583-.06l3.585-3.584a.462.462 0 0 0 .068-.568l-2.44-4.023z"/></g></svg>