<?xml version="1.0" encoding="UTF-8" standalone="no"?>
<svg
   xmlns:dc="http://purl.org/dc/elements/1.1/"
   xmlns:cc="http://creativecommons.org/ns#"
   xmlns:rdf="http://www.w3.org/1999/02/22-rdf-syntax-ns#"
   xmlns:svg="http://www.w3.org/2000/svg"
   xmlns="http://www.w3.org/2000/svg"
   xmlns:xlink="http://www.w3.org/1999/xlink"
   xmlns:sodipodi="http://sodipodi.sourceforge.net/DTD/sodipodi-0.dtd"
   xmlns:inkscape="http://www.inkscape.org/namespaces/inkscape"
   width="590.4"
   height="216"
   version="1.1"
   id="svg3093"
   sodipodi:docname="beta_logo.svg"
   inkscape:version="0.92.2 2405546, 2018-03-11">
  <metadata
     id="metadata3099">
    <rdf:RDF>
      <cc:Work
         rdf:about="">
        <dc:format>image/svg+xml</dc:format>
        <dc:type
           rdf:resource="http://purl.org/dc/dcmitype/StillImage" />
        <dc:title></dc:title>
      </cc:Work>
    </rdf:RDF>
  </metadata>
  <defs
     id="defs3097">
    <linearGradient
       id="a-6">
      <stop
         id="stop3661"
         stop-color="#ffffff" />
      <stop
         id="stop3663"
         stop-opacity="0"
         stop-color="#ffffff"
         offset="1" />
    </linearGradient>
    <linearGradient
       x2="0"
       gradientUnits="userSpaceOnUse"
       y2="4"
       y1="44"
       id="b-9">
      <stop
         id="stop3666"
         stop-color="#0d4687" />
      <stop
         id="stop3668"
         stop-color="#0b60c2"
         offset=".051" />
      <stop
         id="stop3670"
         stop-color="#1b88f4"
         offset=".275" />
      <stop
         id="stop3672"
         stop-color="#1b90f4"
         offset=".725" />
      <stop
         id="stop3674"
         stop-color="#0d6ad6"
         offset=".962" />
      <stop
         id="stop3676"
         stop-color="#115fbc"
         offset="1" />
    </linearGradient>
    <linearGradient
       x2="41.821"
       gradientUnits="userSpaceOnUse"
       y2="14.867"
       x1="7.18"
       y1="34.867"
       id="c-2">
      <stop
         id="stop3679"
         stop-color="#440d7f" />
      <stop
         id="stop3681"
         stop-color="#500e9a"
         offset="1" />
    </linearGradient>
    <linearGradient
       x2="5.47"
       gradientUnits="userSpaceOnUse"
       y2="14.217"
       x1="40.82"
       y1="34.867"
       id="d-9">
      <stop
         id="stop3684"
         stop-color="#1a7c69" />
      <stop
         id="stop3686"
         stop-color="#218b7b"
         offset=".05" />
      <stop
         id="stop3688"
         stop-color="#208c7a"
         offset=".157" />
      <stop
         id="stop3690"
         stop-color="#124a45"
         offset=".312" />
      <stop
         id="stop3692"
         stop-color="#1bcaa3"
         offset=".952" />
      <stop
         id="stop3694"
         stop-color="#20a386"
         offset="1" />
    </linearGradient>
    <linearGradient
       gradientUnits="userSpaceOnUse"
       x2="36.526"
       y2="23.462"
       x1="26.967"
       y1="15.587"
       id="e-0">
      <stop
         id="stop3697" />
      <stop
         id="stop3699"
         stop-opacity="0"
         offset="1" />
    </linearGradient>
    <linearGradient
       x2="18.13"
       gradientUnits="userSpaceOnUse"
       y2="20.699"
       x1="23.708"
       y1="30.889"
       id="f-3">
      <stop
         id="stop3702"
         stop-opacity=".309" />
      <stop
         id="stop3704"
         stop-opacity="0"
         stop-color="#ffffff"
         offset="1" />
    </linearGradient>
    <linearGradient
       x2="15.379"
       gradientUnits="userSpaceOnUse"
       y2="9.313"
       x1="40.839"
       y1="37.972"
       id="g-0"
       xlink:href="#f-3" />
    <radialGradient
       gradientTransform="matrix(-0.92086,0.01412,-0.23425,-15.27373,39.23,385.35)"
       gradientUnits="userSpaceOnUse"
       r="1.656"
       id="h-3"
       xlink:href="#a-6"
       cy="24.836"
       cx="16.09" />
    <radialGradient
       gradientTransform="matrix(0.44045,-0.23427,0.13081,0.24593,6.648,19.865)"
       gradientUnits="userSpaceOnUse"
       r="17.37"
       id="i-3"
       xlink:href="#a-6"
       cy="26.579"
       cx="11.182" />
    <path
       d="m39.821 11.402l3 5.196c2 3.464-32.641 23.464-34.641 20l-3-5.196c-2-3.464 32.641-23.464 34.641-20"
       color="#000000"
       id="j-7" />
    <path
       d="m21 4h6c4 0 4 40 0 40h-6c-4 0-4-40 0-40"
       color="#000000"
       id="k-9" />
    <linearGradient
       inkscape:collect="always"
       xlink:href="#f-3"
       id="linearGradient3777"
       gradientUnits="userSpaceOnUse"
       x1="23.708"
       y1="30.889"
       x2="18.13"
       y2="20.699" />
  </defs>
  <sodipodi:namedview
     pagecolor="#ffffff"
     bordercolor="#666666"
     borderopacity="1"
     objecttolerance="10"
     gridtolerance="10"
     guidetolerance="10"
     inkscape:pageopacity="0"
     inkscape:pageshadow="2"
     inkscape:window-width="1918"
     inkscape:window-height="1032"
     id="namedview3095"
     showgrid="false"
     inkscape:zoom="2.6157201"
     inkscape:cx="206.0609"
     inkscape:cy="79.008161"
     inkscape:window-x="0"
     inkscape:window-y="16"
     inkscape:window-maximized="1"
     inkscape:current-layer="svg3093" />
  <linearGradient
     id="a"
     gradientUnits="userSpaceOnUse"
     x1="23.376"
     y1="901.826"
     x2="15.36"
     y2="892.474"
     gradientTransform="translate(90 -791)">
    <stop
       offset="0"
       stop-color="#0b5463"
       id="stop2579" />
    <stop
       offset="1"
       stop-color="#0b5463"
       id="stop2581" />
  </linearGradient>
  <linearGradient
     id="b"
     gradientUnits="userSpaceOnUse"
     x1="92.376"
     y1="905.86"
     x2="92.376"
     y2="970.14"
     gradientTransform="translate(90 -791)">
    <stop
       offset="0"
       stop-color="#0b5463"
       id="stop2586" />
    <stop
       offset=".07"
       stop-color="#0b6070"
       id="stop2588" />
    <stop
       offset=".216"
       stop-color="#0b7285"
       id="stop2590" />
    <stop
       offset=".361"
       stop-color="#0a7d91"
       id="stop2592" />
    <stop
       offset=".5"
       stop-color="#0a8195"
       id="stop2594" />
    <stop
       offset=".639"
       stop-color="#0a7d91"
       id="stop2596" />
    <stop
       offset=".783"
       stop-color="#0b7285"
       id="stop2598" />
    <stop
       offset=".93"
       stop-color="#0b6070"
       id="stop2600" />
    <stop
       offset="1"
       stop-color="#0b5463"
       id="stop2602" />
  </linearGradient>
  <linearGradient
     id="c"
     gradientUnits="userSpaceOnUse"
     x1="-50.446"
     y1="975.021"
     x2="-29.59"
     y2="937.888"
     gradientTransform="translate(90 -791)">
    <stop
       offset="0"
       stop-color="#014251"
       id="stop2607" />
    <stop
       offset=".086"
       stop-color="#025262"
       id="stop2609" />
    <stop
       offset=".227"
       stop-color="#046676"
       id="stop2611" />
    <stop
       offset=".366"
       stop-color="#057183"
       id="stop2613" />
    <stop
       offset=".5"
       stop-color="#057587"
       id="stop2615" />
    <stop
       offset=".634"
       stop-color="#057183"
       id="stop2617" />
    <stop
       offset=".773"
       stop-color="#046676"
       id="stop2619" />
    <stop
       offset=".914"
       stop-color="#025262"
       id="stop2621" />
    <stop
       offset="1"
       stop-color="#014251"
       id="stop2623" />
  </linearGradient>
  <linearGradient
     id="d"
     gradientUnits="userSpaceOnUse"
     x1="9.086"
     y1="848.944"
     x2="-25.438"
     y2="808.665"
     gradientTransform="translate(90 -791)">
    <stop
       offset="0"
       stop-color="#0d283a"
       id="stop2628" />
    <stop
       offset=".028"
       stop-color="#0c3042"
       id="stop2630" />
    <stop
       offset=".135"
       stop-color="#0b495a"
       id="stop2632" />
    <stop
       offset=".247"
       stop-color="#0a5b6c"
       id="stop2634" />
    <stop
       offset=".365"
       stop-color="#0a6676"
       id="stop2636" />
    <stop
       offset=".5"
       stop-color="#0a697a"
       id="stop2638" />
    <stop
       offset=".618"
       stop-color="#0a6070"
       id="stop2640" />
    <stop
       offset=".813"
       stop-color="#0b4758"
       id="stop2642" />
    <stop
       offset="1"
       stop-color="#0d283a"
       id="stop2644" />
  </linearGradient>
  <linearGradient
     id="e"
     gradientUnits="userSpaceOnUse"
     x1="77.418"
     y1="979.431"
     x2="50.748"
     y2="893.516"
     gradientTransform="translate(90 -791)">
    <stop
       offset="0"
       stop-color="#0d283a"
       id="stop2649" />
    <stop
       offset=".028"
       stop-color="#0c3042"
       id="stop2651" />
    <stop
       offset=".135"
       stop-color="#0b495a"
       id="stop2653" />
    <stop
       offset=".247"
       stop-color="#0a5b6c"
       id="stop2655" />
    <stop
       offset=".365"
       stop-color="#0a6676"
       id="stop2657" />
    <stop
       offset=".5"
       stop-color="#0a697a"
       id="stop2659" />
    <stop
       offset=".618"
       stop-color="#0a6070"
       id="stop2661" />
    <stop
       offset=".813"
       stop-color="#0b4758"
       id="stop2663" />
    <stop
       offset="1"
       stop-color="#0d283a"
       id="stop2665" />
  </linearGradient>
  <linearGradient
     id="f"
     gradientUnits="userSpaceOnUse"
     x1="-41.932"
     y1="905.86"
     x2="-41.932"
     y2="970.138"
     gradientTransform="translate(90 -791)">
    <stop
       offset="0"
       stop-color="#0b5463"
       id="stop2670" />
    <stop
       offset=".07"
       stop-color="#0b6070"
       id="stop2672" />
    <stop
       offset=".216"
       stop-color="#0b7285"
       id="stop2674" />
    <stop
       offset=".361"
       stop-color="#0a7d91"
       id="stop2676" />
    <stop
       offset=".5"
       stop-color="#0a8195"
       id="stop2678" />
    <stop
       offset=".639"
       stop-color="#0a7d91"
       id="stop2680" />
    <stop
       offset=".783"
       stop-color="#0b7285"
       id="stop2682" />
    <stop
       offset=".93"
       stop-color="#0b6070"
       id="stop2684" />
    <stop
       offset="1"
       stop-color="#0b5463"
       id="stop2686" />
  </linearGradient>
  <linearGradient
     id="g"
     gradientUnits="userSpaceOnUse"
     x1="-6.566"
     y1="842.787"
     x2="18.668"
     y2="842.787"
     gradientTransform="translate(90 -791)">
    <stop
       offset="0"
       stop-color="#0b5463"
       id="stop2691" />
    <stop
       offset="1"
       stop-color="#0b5463"
       id="stop2693" />
  </linearGradient>
  <linearGradient
     id="h"
     gradientUnits="userSpaceOnUse"
     x1="26.762"
     y1="869.471"
     x2="26.762"
     y2="808.843"
     gradientTransform="translate(90 -791)">
    <stop
       offset="0"
       stop-color="#014251"
       id="stop2698" />
    <stop
       offset=".5"
       stop-color="#057587"
       id="stop2700" />
    <stop
       offset=".693"
       stop-color="#057384"
       id="stop2702" />
    <stop
       offset=".804"
       stop-color="#056b7c"
       id="stop2704" />
    <stop
       offset=".893"
       stop-color="#035e6e"
       id="stop2706" />
    <stop
       offset=".971"
       stop-color="#024b5b"
       id="stop2708" />
    <stop
       offset="1"
       stop-color="#014251"
       id="stop2710" />
  </linearGradient>
  <linearGradient
     id="i"
     gradientUnits="userSpaceOnUse"
     x1="-28.619"
     y1="987.141"
     x2="82.142"
     y2="819.717"
     gradientTransform="translate(90 -791)">
    <stop
       offset="0"
       stop-color="#0b879a"
       id="stop2715" />
    <stop
       offset=".082"
       stop-color="#379fb2"
       id="stop2717" />
    <stop
       offset=".168"
       stop-color="#5cb4c7"
       id="stop2719" />
    <stop
       offset=".253"
       stop-color="#79c5d7"
       id="stop2721" />
    <stop
       offset=".337"
       stop-color="#8dd1e3"
       id="stop2723" />
    <stop
       offset=".42"
       stop-color="#9ad8ea"
       id="stop2725" />
    <stop
       offset=".5"
       stop-color="#9edaec"
       id="stop2727" />
    <stop
       offset=".58"
       stop-color="#9ad8ea"
       id="stop2729" />
    <stop
       offset=".663"
       stop-color="#8dd1e3"
       id="stop2731" />
    <stop
       offset=".747"
       stop-color="#79c5d7"
       id="stop2733" />
    <stop
       offset=".833"
       stop-color="#5cb4c7"
       id="stop2735" />
    <stop
       offset=".918"
       stop-color="#379fb2"
       id="stop2737" />
    <stop
       offset="1"
       stop-color="#0b879a"
       id="stop2739" />
  </linearGradient>
  <linearGradient
     id="j"
     gradientUnits="userSpaceOnUse"
     x1="-38.57"
     y1="990.498"
     x2="5.3"
     y2="951.219"
     gradientTransform="translate(90 -791)">
    <stop
       offset="0"
       stop-color="#057b8f"
       id="stop2744" />
    <stop
       offset=".082"
       stop-color="#038da1"
       id="stop2746" />
    <stop
       offset=".181"
       stop-color="#029ab0"
       id="stop2748" />
    <stop
       offset=".301"
       stop-color="#01a2b8"
       id="stop2750" />
    <stop
       offset=".5"
       stop-color="#01a4bb"
       id="stop2752" />
    <stop
       offset=".699"
       stop-color="#01a2b8"
       id="stop2754" />
    <stop
       offset=".819"
       stop-color="#029ab0"
       id="stop2756" />
    <stop
       offset=".918"
       stop-color="#038da1"
       id="stop2758" />
    <stop
       offset="1"
       stop-color="#057b8f"
       id="stop2760" />
  </linearGradient>
  <linearGradient
     id="k"
     gradientUnits="userSpaceOnUse"
     x1="-42.494"
     y1="818.572"
     x2="59.365"
     y2="988.337"
     gradientTransform="translate(90 -791)">
    <stop
       offset="0"
       stop-color="#057b8f"
       id="stop2765" />
    <stop
       offset=".018"
       stop-color="#0a8093"
       id="stop2767" />
    <stop
       offset=".141"
       stop-color="#279aad"
       id="stop2769" />
    <stop
       offset=".263"
       stop-color="#3baebf"
       id="stop2771" />
    <stop
       offset=".384"
       stop-color="#48b9ca"
       id="stop2773" />
    <stop
       offset=".5"
       stop-color="#4cbdce"
       id="stop2775" />
    <stop
       offset=".616"
       stop-color="#48b9ca"
       id="stop2777" />
    <stop
       offset=".737"
       stop-color="#3baebf"
       id="stop2779" />
    <stop
       offset=".859"
       stop-color="#279aad"
       id="stop2781" />
    <stop
       offset=".982"
       stop-color="#0a8093"
       id="stop2783" />
    <stop
       offset="1"
       stop-color="#057b8f"
       id="stop2785" />
  </linearGradient>
  <linearGradient
     id="l"
     gradientUnits="userSpaceOnUse"
     x1="67.689"
     y1="987.313"
     x2="2.19"
     y2="904.814"
     gradientTransform="translate(90 -791)">
    <stop
       offset="0"
       stop-color="#057b8f"
       id="stop2790" />
    <stop
       offset=".026"
       stop-color="#0a8093"
       id="stop2792" />
    <stop
       offset=".205"
       stop-color="#279aad"
       id="stop2794" />
    <stop
       offset=".384"
       stop-color="#3baebf"
       id="stop2796" />
    <stop
       offset=".56"
       stop-color="#48b9ca"
       id="stop2798" />
    <stop
       offset=".73"
       stop-color="#4cbdce"
       id="stop2800" />
    <stop
       offset=".792"
       stop-color="#48b9ca"
       id="stop2802" />
    <stop
       offset=".858"
       stop-color="#3baebf"
       id="stop2804" />
    <stop
       offset=".924"
       stop-color="#279aad"
       id="stop2806" />
    <stop
       offset=".991"
       stop-color="#0a8093"
       id="stop2808" />
    <stop
       offset="1"
       stop-color="#057b8f"
       id="stop2810" />
  </linearGradient>
  <linearGradient
     id="m"
     gradientUnits="userSpaceOnUse"
     x1="-26.956"
     y1="860.165"
     x2="-39.709"
     y2="814.255"
     gradientTransform="translate(90 -791)">
    <stop
       offset="0"
       stop-color="#057b8f"
       id="stop2815" />
    <stop
       offset=".082"
       stop-color="#038da1"
       id="stop2817" />
    <stop
       offset=".181"
       stop-color="#029ab0"
       id="stop2819" />
    <stop
       offset=".301"
       stop-color="#01a2b8"
       id="stop2821" />
    <stop
       offset=".5"
       stop-color="#01a4bb"
       id="stop2823" />
    <stop
       offset=".699"
       stop-color="#01a2b8"
       id="stop2825" />
    <stop
       offset=".819"
       stop-color="#029ab0"
       id="stop2827" />
    <stop
       offset=".918"
       stop-color="#038da1"
       id="stop2829" />
    <stop
       offset="1"
       stop-color="#057b8f"
       id="stop2831" />
  </linearGradient>
  <linearGradient
     id="n"
     gradientUnits="userSpaceOnUse"
     x1="117.473"
     y1="891.126"
     x2="-81.229"
     y2="891.126"
     gradientTransform="translate(90 -791)">
    <stop
       offset="0"
       stop-color="#0b879a"
       id="stop2836" />
    <stop
       offset=".013"
       stop-color="#118b9e"
       id="stop2838" />
    <stop
       offset=".112"
       stop-color="#36a5ba"
       id="stop2840" />
    <stop
       offset=".211"
       stop-color="#53bad0"
       id="stop2842" />
    <stop
       offset=".31"
       stop-color="#67c8e0"
       id="stop2844" />
    <stop
       offset=".407"
       stop-color="#74d1e9"
       id="stop2846" />
    <stop
       offset=".5"
       stop-color="#78d4ec"
       id="stop2848" />
    <stop
       offset=".593"
       stop-color="#74d1e9"
       id="stop2850" />
    <stop
       offset=".69"
       stop-color="#67c8e0"
       id="stop2852" />
    <stop
       offset=".788"
       stop-color="#53bad0"
       id="stop2854" />
    <stop
       offset=".888"
       stop-color="#36a5ba"
       id="stop2856" />
    <stop
       offset=".987"
       stop-color="#118b9e"
       id="stop2858" />
    <stop
       offset="1"
       stop-color="#0b879a"
       id="stop2860" />
  </linearGradient>
  <linearGradient
     id="o"
     gradientUnits="userSpaceOnUse"
     x1="60.517"
     y1="888.225"
     x2="117.308"
     y2="891.285"
     gradientTransform="translate(90 -791)">
    <stop
       offset="0"
       stop-color="#096f80"
       id="stop2865" />
    <stop
       offset=".006"
       stop-color="#097181"
       id="stop2867" />
    <stop
       offset=".091"
       stop-color="#0b8395"
       id="stop2869" />
    <stop
       offset=".188"
       stop-color="#0c8fa4"
       id="stop2871" />
    <stop
       offset=".305"
       stop-color="#0d97ac"
       id="stop2873" />
    <stop
       offset=".5"
       stop-color="#0d99af"
       id="stop2875" />
    <stop
       offset=".695"
       stop-color="#0d97ac"
       id="stop2877" />
    <stop
       offset=".812"
       stop-color="#0c8fa4"
       id="stop2879" />
    <stop
       offset=".909"
       stop-color="#0b8395"
       id="stop2881" />
    <stop
       offset=".994"
       stop-color="#097181"
       id="stop2883" />
    <stop
       offset="1"
       stop-color="#096f80"
       id="stop2885" />
  </linearGradient>
  <linearGradient
     id="p"
     gradientUnits="userSpaceOnUse"
     x1="-81.38"
     y1="888.32"
     x2="21.085"
     y2="888.32"
     gradientTransform="translate(90 -791)">
    <stop
       offset="0"
       stop-color="#0b879a"
       id="stop2890" />
    <stop
       offset=".022"
       stop-color="#118b9e"
       id="stop2892" />
    <stop
       offset=".197"
       stop-color="#36a5ba"
       id="stop2894" />
    <stop
       offset=".372"
       stop-color="#53bad0"
       id="stop2896" />
    <stop
       offset=".545"
       stop-color="#67c8e0"
       id="stop2898" />
    <stop
       offset=".715"
       stop-color="#74d1e9"
       id="stop2900" />
    <stop
       offset=".879"
       stop-color="#78d4ec"
       id="stop2902" />
    <stop
       offset=".901"
       stop-color="#74d1e9"
       id="stop2904" />
    <stop
       offset=".925"
       stop-color="#67c8e0"
       id="stop2906" />
    <stop
       offset=".949"
       stop-color="#53bad0"
       id="stop2908" />
    <stop
       offset=".973"
       stop-color="#36a5ba"
       id="stop2910" />
    <stop
       offset=".997"
       stop-color="#118b9e"
       id="stop2912" />
    <stop
       offset="1"
       stop-color="#0b879a"
       id="stop2914" />
  </linearGradient>
  <linearGradient
     id="q"
     gradientUnits="userSpaceOnUse"
     x1="-9.324"
     y1="861.803"
     x2="-47.833"
     y2="856.388"
     gradientTransform="translate(90 -791)">
    <stop
       offset="0"
       stop-color="#0b5463"
       id="stop2919" />
    <stop
       offset="1"
       stop-color="#0b5463"
       id="stop2921" />
  </linearGradient>
  <linearGradient
     id="r"
     gradientUnits="userSpaceOnUse"
     x1="29.86"
     y1="894.74"
     x2="-78.964"
     y2="879.437"
     gradientTransform="translate(90 -791)">
    <stop
       offset="0"
       stop-color="#0b879a"
       id="stop2926" />
    <stop
       offset=".038"
       stop-color="#1694a7"
       id="stop2928" />
    <stop
       offset=".118"
       stop-color="#26a8ba"
       id="stop2930" />
    <stop
       offset=".208"
       stop-color="#32b6c8"
       id="stop2932" />
    <stop
       offset=".318"
       stop-color="#39bed1"
       id="stop2934" />
    <stop
       offset=".5"
       stop-color="#3bc1d3"
       id="stop2936" />
    <stop
       offset=".682"
       stop-color="#39bed1"
       id="stop2938" />
    <stop
       offset=".792"
       stop-color="#32b6c8"
       id="stop2940" />
    <stop
       offset=".882"
       stop-color="#26a8ba"
       id="stop2942" />
    <stop
       offset=".962"
       stop-color="#1694a7"
       id="stop2944" />
    <stop
       offset="1"
       stop-color="#0b879a"
       id="stop2946" />
  </linearGradient>
  <linearGradient
     id="s"
     gradientUnits="userSpaceOnUse"
     x1="80.297"
     y1="819.396"
     x2="28.548"
     y2="908.521"
     gradientTransform="translate(90 -791)">
    <stop
       offset="0"
       stop-color="#0b879a"
       id="stop2951" />
    <stop
       offset=".124"
       stop-color="#379fb2"
       id="stop2953" />
    <stop
       offset=".252"
       stop-color="#5cb4c7"
       id="stop2955" />
    <stop
       offset=".38"
       stop-color="#79c5d7"
       id="stop2957" />
    <stop
       offset=".506"
       stop-color="#8dd1e3"
       id="stop2959" />
    <stop
       offset=".631"
       stop-color="#9ad8ea"
       id="stop2961" />
    <stop
       offset=".751"
       stop-color="#9edaec"
       id="stop2963" />
    <stop
       offset=".791"
       stop-color="#9ad8ea"
       id="stop2965" />
    <stop
       offset=".832"
       stop-color="#8dd1e3"
       id="stop2967" />
    <stop
       offset=".874"
       stop-color="#79c5d7"
       id="stop2969" />
    <stop
       offset=".917"
       stop-color="#5cb4c7"
       id="stop2971" />
    <stop
       offset=".959"
       stop-color="#379fb2"
       id="stop2973" />
    <stop
       offset="1"
       stop-color="#0b879a"
       id="stop2975" />
  </linearGradient>
  <linearGradient
     id="t"
     gradientUnits="userSpaceOnUse"
     x1="86.801"
     y1="864.229"
     x2="67.959"
     y2="899.587"
     gradientTransform="translate(90 -791)">
    <stop
       offset="0"
       stop-color="#0b5463"
       id="stop2980" />
    <stop
       offset="1"
       stop-color="#0b5463"
       id="stop2982" />
  </linearGradient>
  <linearGradient
     id="u"
     gradientUnits="userSpaceOnUse"
     x1="78.6"
     y1="821.354"
     x2="26.685"
     y2="918.776"
     gradientTransform="translate(90 -791)">
    <stop
       offset="0"
       stop-color="#0b879a"
       id="stop2987" />
    <stop
       offset=".038"
       stop-color="#1694a7"
       id="stop2989" />
    <stop
       offset=".118"
       stop-color="#26a8ba"
       id="stop2991" />
    <stop
       offset=".208"
       stop-color="#32b6c8"
       id="stop2993" />
    <stop
       offset=".318"
       stop-color="#39bed1"
       id="stop2995" />
    <stop
       offset=".5"
       stop-color="#3bc1d3"
       id="stop2997" />
    <stop
       offset=".682"
       stop-color="#39bed1"
       id="stop2999" />
    <stop
       offset=".792"
       stop-color="#32b6c8"
       id="stop3001" />
    <stop
       offset=".882"
       stop-color="#26a8ba"
       id="stop3003" />
    <stop
       offset=".962"
       stop-color="#1694a7"
       id="stop3005" />
    <stop
       offset="1"
       stop-color="#0b879a"
       id="stop3007" />
  </linearGradient>
  <linearGradient
     id="v"
     gradientUnits="userSpaceOnUse"
     x1="82.629"
     y1="823.549"
     x2="30.257"
     y2="921.83"
     gradientTransform="translate(90 -791)">
    <stop
       offset="0"
       stop-color="#0b879a"
       id="stop3012" />
    <stop
       offset=".038"
       stop-color="#1694a7"
       id="stop3014" />
    <stop
       offset=".118"
       stop-color="#26a8ba"
       id="stop3016" />
    <stop
       offset=".208"
       stop-color="#32b6c8"
       id="stop3018" />
    <stop
       offset=".318"
       stop-color="#39bed1"
       id="stop3020" />
    <stop
       offset=".5"
       stop-color="#3bc1d3"
       id="stop3022" />
    <stop
       offset=".682"
       stop-color="#39bed1"
       id="stop3024" />
    <stop
       offset=".792"
       stop-color="#32b6c8"
       id="stop3026" />
    <stop
       offset=".882"
       stop-color="#26a8ba"
       id="stop3028" />
    <stop
       offset=".962"
       stop-color="#1694a7"
       id="stop3030" />
    <stop
       offset="1"
       stop-color="#0b879a"
       id="stop3032" />
  </linearGradient>
  <linearGradient
     id="w"
     gradientUnits="userSpaceOnUse"
     x1="-1.897"
     y1="935.297"
     x2="11.535"
     y2="971.688"
     gradientTransform="translate(90 -791)">
    <stop
       offset="0"
       stop-color="#0b5463"
       id="stop3037" />
    <stop
       offset="1"
       stop-color="#0b5463"
       id="stop3039" />
  </linearGradient>
  <linearGradient
     id="x"
     gradientUnits="userSpaceOnUse"
     x1="23.611"
     y1="897.869"
     x2="39.425"
     y2="996.322"
     gradientTransform="translate(90 -791)">
    <stop
       offset="0"
       stop-color="#096f80"
       id="stop3044" />
    <stop
       offset=".024"
       stop-color="#107b8c"
       id="stop3046" />
    <stop
       offset=".089"
       stop-color="#2095a6"
       id="stop3048" />
    <stop
       offset=".16"
       stop-color="#2ca8ba"
       id="stop3050" />
    <stop
       offset=".24"
       stop-color="#34b6c8"
       id="stop3052" />
    <stop
       offset=".338"
       stop-color="#39bfd0"
       id="stop3054" />
    <stop
       offset=".5"
       stop-color="#3bc1d3"
       id="stop3056" />
    <stop
       offset=".672"
       stop-color="#39bed1"
       id="stop3058" />
    <stop
       offset=".775"
       stop-color="#33b6c8"
       id="stop3060" />
    <stop
       offset=".86"
       stop-color="#28a8ba"
       id="stop3062" />
    <stop
       offset=".935"
       stop-color="#1894a7"
       id="stop3064" />
    <stop
       offset="1"
       stop-color="#057b8f"
       id="stop3066" />
  </linearGradient>
  <path
     style="fill:#f9f9f9;fill-rule:evenodd;stroke:none;stroke-width:0.48167348px;stroke-linecap:butt;stroke-linejoin:miter;stroke-opacity:1"
     d="m 513.72074,33.256732 c -3.73334,0.01093 -7.489,1.288476 -10.34282,3.794153 -1.94806,1.710413 -4.62207,5.945764 -4.62951,7.332317 -0.005,0.790474 -1.37968,0.842925 -22.0996,0.842925 h -22.09489 l -1.10259,-1.608686 c -2.04154,-2.979442 -4.01895,-3.930543 -8.17338,-3.930543 -4.15444,0 -6.13186,0.951101 -8.1734,3.930543 l -1.10258,1.608686 h -13.90644 c -8.92308,0 -13.90645,-0.171487 -13.90645,-0.479798 0,-0.896532 -3.6052,-4.480664 -5.16293,-5.132802 -1.9892,-0.832769 -5.98945,-0.832769 -7.97867,0 -1.55772,0.652138 -5.162,4.23627 -5.162,5.132802 0,0.30722 -4.4707,0.474936 -12.40309,0.466658 l -12.40309,-0.01275 -1.1101,-1.802509 c -0.61047,-0.991094 -1.8956,-2.33974 -2.85524,-2.997325 -1.48363,-1.016563 -2.29547,-1.195701 -5.42728,-1.195701 -3.13185,0 -3.94462,0.179138 -5.42824,1.195701 -0.95964,0.657585 -2.24382,2.006285 -2.8543,2.997325 l -1.11011,1.802509 -8.5497,0.01275 -8.5497,0.01275 v 3.612561 3.61254 h 8.60803 8.60802 l 1.1026,1.608762 c 2.04154,2.979388 4.01892,3.930489 8.1734,3.930489 4.15445,0 6.13184,-0.951101 8.17338,-3.930489 l 1.10258,-1.608762 h 12.27987 12.28079 l 1.96527,2.233389 c 2.33187,2.649153 4.24253,3.546701 7.54871,3.546701 3.30618,0 5.21593,-0.897548 7.5478,-3.546701 l 1.96619,-2.233389 13.66655,0.01275 13.66749,0.01275 1.1101,1.801558 c 0.61048,0.991106 1.89467,2.340692 2.85431,2.998223 1.48361,1.016584 2.29638,1.195722 5.42823,1.195722 3.13184,0 3.94365,-0.179138 5.4273,-1.195722 0.95964,-0.657586 2.24476,-2.007117 2.85523,-2.998223 l 1.11009,-1.801558 21.91615,-0.01091 21.91614,-0.01091 0.86551,2.105439 c 1.66671,4.053479 6.06539,7.968667 10.13209,9.019161 0.83926,0.216773 3.19073,0.3161 5.22596,0.220167 2.93184,-0.138173 4.21801,-0.456144 6.19215,-1.53068 2.97982,-1.621794 5.84147,-4.736912 7.04917,-7.673811 l 0.88056,-2.140276 6.55715,-0.0022 6.55812,-0.0022 0.81187,2.128045 c 1.10362,2.889742 3.98387,6.039373 7.09528,7.760375 2.35673,1.303608 2.97488,1.426005 7.15549,1.415901 3.8117,-0.0086 4.92134,-0.193304 6.64464,-1.102609 3.00857,-1.587454 5.50047,-4.014071 7.11033,-6.924064 1.28478,-2.322342 1.41398,-2.971109 1.41398,-7.131015 0,-4.159874 -0.12924,-4.807745 -1.41398,-7.130077 -1.60986,-2.909981 -4.10176,-5.33752 -7.11033,-6.925012 -1.7233,-0.909321 -2.83294,-1.093355 -6.64464,-1.102567 -4.18061,-0.01093 -4.79876,0.112143 -7.15549,1.415838 -3.22568,1.78427 -6.09491,4.998765 -7.17432,8.037919 l -0.8288,2.332164 h -6.56939 -6.57032 l -0.26907,-1.341503 c -0.40438,-2.021899 -3.2024,-5.893442 -5.54301,-7.669141 -2.62416,-1.990807 -5.90096,-2.968251 -9.19507,-2.95873 z m -0.0461,5.954118 c 2.30036,-1.95e-4 4.60076,0.957185 6.51577,2.872173 5.60232,5.602345 2.44385,14.596394 -5.55148,15.807742 -0.92722,0.140549 -2.22978,0.09119 -2.89379,-0.10995 -7.49483,-2.27284 -9.87227,-10.410705 -4.58626,-15.696745 1.91541,-1.915365 4.21542,-2.872885 6.51576,-2.873122 z m 43.35158,0.02442 c 2.30839,0 4.61634,0.949232 6.51482,2.847697 6.67701,6.677011 0.54417,17.576171 -8.76422,15.575408 -3.02221,-0.649632 -5.87047,-3.415638 -6.65874,-6.465944 -0.95019,-3.676801 -0.20632,-6.510742 2.39237,-9.109464 1.89848,-1.898465 4.20736,-2.847697 6.51577,-2.847697 z m -205.67459,4.064123 h 1.20416 c 1.09538,0 1.20395,0.185017 1.20513,2.047109 l 0.002,2.04712 1.80724,-2.096015 c 1.35286,-1.568857 2.09137,-2.053474 2.93518,-1.92669 1.11839,0.16803 1.11406,0.186745 -0.55317,2.287948 l -1.68114,2.117638 1.63411,2.55512 c 0.8988,1.405344 1.63504,2.674297 1.63504,2.819484 0,0.145088 -0.53955,0.263422 -1.19854,0.263422 -0.87398,0 -1.52677,-0.521205 -2.414,-1.926689 -0.66896,-1.059689 -1.43085,-1.926701 -1.69244,-1.926701 -0.26161,0 -0.47509,0.867012 -0.47509,1.926701 0,1.734033 -0.12053,1.926689 -1.20419,1.926689 h -1.20428 v -5.057584 z m 43.83227,0 h 2.92674 c 2.59298,0 3.08781,0.161115 4.33505,1.40837 1.15279,1.152781 1.40834,1.813866 1.40834,3.649204 0,1.835359 -0.25555,2.497385 -1.40834,3.650155 -1.24724,1.247298 -1.74207,1.407407 -4.33505,1.407407 h -2.92674 v -5.057584 z m 47.20402,0 h 2.89004 c 2.56893,0 2.89005,0.107086 2.89005,0.963345 0,0.779874 -0.32115,0.963334 -1.68588,0.963334 -1.36474,0 -1.68586,0.183525 -1.68586,0.963356 0,0.779884 0.32112,0.963355 1.68586,0.963355 1.36473,0 1.68588,0.183504 1.68588,0.963334 0,0.779885 -0.32115,0.963356 -1.68588,0.963356 -1.47714,0 -1.68586,0.149097 -1.68586,1.204183 0,1.055107 0.20872,1.204184 1.68586,1.204184 1.36473,0 1.68588,0.183514 1.68588,0.963345 0,0.856324 -0.32112,0.963344 -2.89005,0.963344 h -2.89004 v -5.057584 z m -44.79563,1.926679 v 3.130895 c 0,2.892098 0.0789,3.130873 1.04518,3.130873 0.5752,0 1.44222,-0.358362 1.92669,-0.796828 1.86976,-1.692075 0.80417,-5.46494 -1.54381,-5.46494 z m -148.09581,0.03771 c -7.34986,-0.03328 -8.32669,0.138897 -8.96741,0.718745 -0.90395,0.818083 -0.92571,2.206937 -0.92571,57.574093 v 56.73493 l 1.07059,0.74983 c 0.91249,0.63914 3.25402,0.74977 15.86043,0.74977 8.1344,0 16.48529,-0.23125 18.55759,-0.51456 5.07717,-0.69425 11.85555,-3.00035 15.0871,-5.13189 8.81876,-5.81699 12.99151,-14.94802 13.00144,-28.4517 0.008,-12.44987 -4.56802,-21.95603 -12.45673,-25.87019 -1.6018,-0.79478 -2.92208,-1.59253 -2.93331,-1.77334 -0.0112,-0.180779 0.44062,-0.475129 1.0038,-0.653834 1.90983,-0.606181 6.86174,-6.114065 8.50171,-9.456643 2.53795,-5.172697 3.06011,-7.392158 3.32468,-14.126559 0.53346,-13.578567 -3.69964,-22.251501 -13.03435,-26.705583 -6.9244,-3.304046 -8.46771,-3.508501 -28.3924,-3.748952 -4.08993,-0.04938 -7.24749,-0.08299 -9.69744,-0.09412 z m -2.18635,8.053957 13.84811,0.216364 c 12.24956,0.191575 14.28826,0.335876 17.66012,1.25308 8.27787,2.251683 11.94761,5.903534 13.55553,13.489689 1.23388,5.821466 0.53585,13.003841 -1.71502,17.65355 -1.41323,2.919307 -4.59452,5.918803 -7.98807,7.531785 -5.06152,2.405736 -8.23988,2.803616 -22.4759,2.812871 l -12.88477,0.0083 V 74.799387 Z m 201.58132,33.830969 c -8.69456,0 -15.13485,2.353949 -20.34226,7.434868 l -3.01985,2.945584 v -1.515582 c 0,-0.833536 -0.13835,-2.847807 -0.30857,-4.476193 l -0.30951,-2.96062 h -2.42248 c -4.55565,0 -4.18454,-3.223252 -4.18454,36.290165 v 34.69461 l 1.04801,1.11484 c 1.38155,1.47058 4.01629,1.50285 5.54396,0.0677 l 1.1148,-1.04706 0.008,-22.43452 c 0.007,-17.39493 0.16057,-23.15054 0.6849,-25.62376 1.82978,-8.63248 7.61061,-14.512326 16.27717,-16.555641 9.16214,-2.160146 18.67971,0.939943 21.8804,7.126361 2.166,4.18647 2.243,5.15993 2.53537,32.16201 0.3128,28.88737 0.1116,27.41967 3.7499,27.41967 3.67856,0 3.51473,1.28174 3.50529,-27.34061 -0.008,-27.81034 -0.12998,-29.30685 -2.8317,-35.080339 -1.89752,-4.054866 -4.68472,-6.953005 -8.72938,-9.078384 -4.13022,-2.170381 -8.52387,-3.143116 -14.19996,-3.143116 z m -88.9318,0.10341 c -6.38076,-0.06959 -13.68081,1.340596 -20.57556,4.150679 -1.94636,0.79326 -3.66907,1.572081 -3.82798,1.731043 -0.15891,0.158926 0.10998,1.464626 0.59832,2.90131 1.2518,3.682685 2.51103,4.0709 6.83751,2.109189 5.08612,-2.306158 9.88262,-3.36623 15.58479,-3.444144 5.86612,-0.08006 8.29251,0.505077 11.17912,2.699056 3.81358,2.898509 5.35023,7.083479 5.9786,16.282829 l 0.3161,4.63519 -5.72646,0.32643 c -14.76571,0.84249 -22.23384,2.27657 -28.87218,5.54585 -5.11498,2.519 -8.00304,5.12004 -9.84891,8.86952 -2.9999,6.09366 -3.00399,13.3113 -0.0109,19.39209 2.31885,4.71023 6.977,8.2236 12.77469,9.63535 3.9719,0.96716 12.98393,0.81826 17.29886,-0.28506 4.79015,-1.22522 7.96832,-2.97145 11.41246,-6.2721 l 2.76397,-2.64922 0.32269,4.45548 0.32269,4.45548 h 2.21173 c 1.60814,0 2.51703,-0.28563 3.32751,-1.04705 l 1.11482,-1.04705 -0.0165,-25.32458 c -0.0189,-28.49182 -0.19832,-30.59804 -3.10545,-36.480177 -1.98827,-4.023028 -4.4277,-6.382845 -8.67861,-8.394514 -3.0808,-1.457871 -7.01561,-2.198012 -11.3814,-2.245601 z m 155.24657,1.254993 c -0.36935,0.0075 -0.79653,0.06959 -1.28978,0.06959 -3.86728,0 -3.56729,-3.718718 -3.71886,46.021449 l -0.13455,44.29234 -1.20418,2.40087 c -1.63119,3.25143 -3.60256,4.35331 -7.70678,4.3087 -1.72199,-0.0187 -3.932,-0.30216 -4.91081,-0.63032 -1.53007,-0.51298 -1.95499,-0.4818 -3.0321,0.22395 -1.13794,0.74555 -1.24037,1.06795 -1.11104,3.52034 l 0.1431,2.69997 3.13087,0.83827 c 4.81757,1.28973 9.7282,0.92563 13.66656,-1.01326 3.54607,-1.74572 5.20297,-3.4706 7.00212,-7.29095 l 1.24747,-2.64921 0.1318,-45.4664 c 0.13053,-44.806427 0.37185,-47.381745 -2.21364,-47.325349 z m 43.62344,0.02258 c -0.39553,0.0022 -0.85242,0.047 -1.3801,0.047 -1.79756,0 -2.42791,0.209426 -2.81479,0.932332 -0.33051,0.61755 -0.4986,12.662007 -0.4986,35.725677 0,31.70087 0.0704,34.8733 0.79684,35.67583 1.12306,1.24099 3.90818,1.15361 5.31345,-0.16657 l 1.11482,-1.04707 v -34.67964 c 0,-34.416651 0.23706,-36.503589 -2.53162,-36.487694 z m -311.51953,15.942229 9.99473,0.002 c 17.44197,0.005 25.54522,1.34376 30.58721,5.06325 5.22646,3.85556 7.33403,9.12873 7.31447,18.29605 -0.0245,11.46709 -3.34963,18.12701 -11.11894,22.26799 -5.17639,2.75898 -7.60318,3.11595 -22.92936,3.36985 l -13.84811,0.22951 v -24.61423 z m 128.60685,21.10896 -0.005,2.33028 c -0.0256,15.01556 -5.73099,24.35761 -16.41454,26.87589 -3.68185,0.86789 -9.93807,0.90845 -12.99295,0.0846 -7.99894,-2.15704 -11.62782,-10.09878 -8.17245,-17.88685 3.02954,-6.82832 12.31919,-10.08082 31.68321,-11.09448 z"
     id="path897"
     inkscape:connector-curvature="0"
     sodipodi:nodetypes="cccsccsccssccsccccsccccccccccscccccsccccccsccccccccccccccccccscccccccccccccccccccsscccscscccscccsscsssccccscscsccccsssssssssssccccsscscscsccscccccccsccscccsccccccsccsccssccccccscsscccssccccscsccccscscccccsccccccccsccccccccccccccccscscccsccccsssccccccccscc" />
  <g
     id="g3775"
     transform="matrix(4.8614119,0,0,4.8614119,-6.9584605,-9.1224685)">
    <path
       style="color:#000000;fill:url(#d-9)"
       id="path3714"
       d="m 8.179,11.402 -3,5.196 c -2,3.464 32.641,23.464 34.641,20 l 3,-5.196 c 2,-3.464 -32.641,-23.464 -34.641,-20"
       inkscape:connector-curvature="0" />
    <use
       style="fill:url(#c-2)"
       id="use3716"
       xlink:href="#j-7"
       x="0"
       y="0"
       width="100%"
       height="100%" />
    <use
       style="fill:url(#linearGradient3777)"
       id="use3718"
       xlink:href="#j-7"
       x="0"
       y="0"
       width="100%"
       height="100%" />
    <path
       style="opacity:0.39800002;fill:url(#e-0)"
       id="path3720"
       d="m 29.654,14.236 8.06,8.06 -7.807,5.143 z"
       inkscape:connector-curvature="0" />
    <path
       style="color:#000000;opacity:0.41100003;fill:url(#i-3)"
       id="path3722"
       d="M 38.469,11 C 31.662,11.529 3.379,28.267 5.189,31.406 l 0.125,0.219 C 3.345,28.215 36.889,8.771 39.845,11.465 l -0.031,-0.063 c -0.188,-0.325 -0.64,-0.461 -1.344,-0.406"
       inkscape:connector-curvature="0" />
    <use
       style="fill:url(#b-9)"
       id="use3724"
       xlink:href="#k-9"
       x="0"
       y="0"
       width="100%"
       height="100%" />
    <use
       style="fill:url(#g-0)"
       id="use3726"
       xlink:href="#k-9"
       x="0"
       y="0"
       width="100%"
       height="100%" />
    <path
       style="color:#000000;opacity:0.56400003;fill:url(#h-3)"
       id="path3728"
       d="m 21,4 c -4,0 -4,40 0,40 h 0.313 c -4,0 -4,-40 0,-40 z"
       inkscape:connector-curvature="0" />
  </g>
</svg>
