<?xml version="1.0" encoding="UTF-8" standalone="no"?>
<!-- Generator: Adobe Illustrator 16.0.4, SVG Export Plug-In . SVG Version: 6.00 Build 0)  -->

<svg
   xmlns:dc="http://purl.org/dc/elements/1.1/"
   xmlns:cc="http://creativecommons.org/ns#"
   xmlns:rdf="http://www.w3.org/1999/02/22-rdf-syntax-ns#"
   xmlns:svg="http://www.w3.org/2000/svg"
   xmlns="http://www.w3.org/2000/svg"
   xmlns:sodipodi="http://sodipodi.sourceforge.net/DTD/sodipodi-0.dtd"
   xmlns:inkscape="http://www.inkscape.org/namespaces/inkscape"
   version="1.1"
   id="Calque_1"
   x="0px"
   y="0px"
   width="590.4px"
   height="216px"
   viewBox="0 0 590.4 216"
   enable-background="new 0 0 590.4 216"
   xml:space="preserve"
   inkscape:version="0.91 r13725"
   sodipodi:docname="beta_logo.svg"><metadata
     id="metadata5274"><rdf:RDF><cc:Work
         rdf:about=""><dc:format>image/svg+xml</dc:format><dc:type
           rdf:resource="http://purl.org/dc/dcmitype/StillImage" /><dc:title></dc:title></cc:Work></rdf:RDF></metadata><defs
     id="defs5272" /><sodipodi:namedview
     pagecolor="#ffffff"
     bordercolor="#666666"
     borderopacity="1"
     objecttolerance="10"
     gridtolerance="10"
     guidetolerance="10"
     inkscape:pageopacity="0"
     inkscape:pageshadow="2"
     inkscape:window-width="1918"
     inkscape:window-height="1032"
     id="namedview5270"
     showgrid="false"
     inkscape:zoom="0.74375558"
     inkscape:cx="262.08186"
     inkscape:cy="252.83764"
     inkscape:window-x="0"
     inkscape:window-y="16"
     inkscape:window-maximized="1"
     inkscape:current-layer="Calque_1" /><g
     id="g4726"><g
       id="g4728"><linearGradient
         id="SVGID_1_"
         gradientUnits="userSpaceOnUse"
         x1="23.376"
         y1="901.8262"
         x2="15.3598"
         y2="892.4739"
         gradientTransform="matrix(1 0 0 1 90 -791)"><stop
           offset="0"
           style="stop-color:#0B5463"
           id="stop4731" /><stop
           offset="1"
           style="stop-color:#0B5463"
           id="stop4733" /></linearGradient><polygon
         fill="url(#SVGID_1_)"
         points="102.813,103.89 115.141,103.466 108.976,115.113   "
         id="polygon4735" /><linearGradient
         id="SVGID_2_"
         gradientUnits="userSpaceOnUse"
         x1="92.3765"
         y1="905.8604"
         x2="92.3765"
         y2="970.1398"
         gradientTransform="matrix(1 0 0 1 90 -791)"><stop
           offset="0"
           style="stop-color:#0B5463"
           id="stop4738" /><stop
           offset="0.0704"
           style="stop-color:#0B6070"
           id="stop4740" /><stop
           offset="0.2165"
           style="stop-color:#0B7285"
           id="stop4742" /><stop
           offset="0.3608"
           style="stop-color:#0A7D91"
           id="stop4744" /><stop
           offset="0.5"
           style="stop-color:#0A8195"
           id="stop4746" /><stop
           offset="0.6392"
           style="stop-color:#0A7D91"
           id="stop4748" /><stop
           offset="0.7835"
           style="stop-color:#0B7285"
           id="stop4750" /><stop
           offset="0.9296"
           style="stop-color:#0B6070"
           id="stop4752" /><stop
           offset="1"
           style="stop-color:#0B5463"
           id="stop4754" /></linearGradient><path
         fill="url(#SVGID_2_)"
         d="M156.308,106.82c45.552,7.381,52.088,18.776,52.088,18.776c0-0.002,0.111,1.146,0,2.107    c-0.055,0.482-0.242,0.842-0.372,1.141c-0.261,0.604-4.765,10.004-34.201,16.201L156.308,106.82z"
         id="path4756" /><linearGradient
         id="SVGID_3_"
         gradientUnits="userSpaceOnUse"
         x1="-50.4458"
         y1="975.0215"
         x2="-29.5898"
         y2="937.8878"
         gradientTransform="matrix(1 0 0 1 90 -791)"><stop
           offset="0"
           style="stop-color:#014251"
           id="stop4759" /><stop
           offset="0.0859"
           style="stop-color:#025262"
           id="stop4761" /><stop
           offset="0.2267"
           style="stop-color:#046676"
           id="stop4763" /><stop
           offset="0.3658"
           style="stop-color:#057183"
           id="stop4765" /><stop
           offset="0.5"
           style="stop-color:#057587"
           id="stop4767" /><stop
           offset="0.6342"
           style="stop-color:#057183"
           id="stop4769" /><stop
           offset="0.7733"
           style="stop-color:#046676"
           id="stop4771" /><stop
           offset="0.9141"
           style="stop-color:#025262"
           id="stop4773" /><stop
           offset="1"
           style="stop-color:#014251"
           id="stop4775" /></linearGradient><path
         fill="url(#SVGID_3_)"
         d="M41.516,143.514c-10.369,27.344-5.049,36.055-4.692,36.596c0.181,0.271,0.349,0.668,0.755,0.934    c0.157,0.104,2.143-0.377,2.143-0.377s18.623-0.938,40.443-31.939L41.516,143.514z"
         id="path4777" /><linearGradient
         id="SVGID_4_"
         gradientUnits="userSpaceOnUse"
         x1="9.0864"
         y1="848.9443"
         x2="-25.4381"
         y2="808.6652"
         gradientTransform="matrix(1 0 0 1 90 -791)"><stop
           offset="0"
           style="stop-color:#0D283A"
           id="stop4780" /><stop
           offset="0.0284"
           style="stop-color:#0C3042"
           id="stop4782" /><stop
           offset="0.1353"
           style="stop-color:#0B495A"
           id="stop4784" /><stop
           offset="0.2468"
           style="stop-color:#0A5B6C"
           id="stop4786" /><stop
           offset="0.3647"
           style="stop-color:#0A6676"
           id="stop4788" /><stop
           offset="0.5"
           style="stop-color:#0A697A"
           id="stop4790" /><stop
           offset="0.6177"
           style="stop-color:#0A6070"
           id="stop4792" /><stop
           offset="0.8125"
           style="stop-color:#0B4758"
           id="stop4794" /><stop
           offset="1"
           style="stop-color:#0D283A"
           id="stop4796" /></linearGradient><path
         fill="url(#SVGID_4_)"
         d="M109.549,38.875C84.568,11.5,72.487,13.07,71.788,13.185c-0.35,0.059-0.69,0.072-1.158,0.311    c-0.832,0.426-1.77,3.182-1.77,3.182s-5.283,15.117,15.867,55.791L109.549,38.875z"
         id="path4798" /><linearGradient
         id="SVGID_5_"
         gradientUnits="userSpaceOnUse"
         x1="77.418"
         y1="979.4307"
         x2="50.7482"
         y2="893.5159"
         gradientTransform="matrix(1 0 0 1 90 -791)"><stop
           offset="0"
           style="stop-color:#0D283A"
           id="stop4801" /><stop
           offset="0.0284"
           style="stop-color:#0C3042"
           id="stop4803" /><stop
           offset="0.1353"
           style="stop-color:#0B495A"
           id="stop4805" /><stop
           offset="0.2468"
           style="stop-color:#0A5B6C"
           id="stop4807" /><stop
           offset="0.3647"
           style="stop-color:#0A6676"
           id="stop4809" /><stop
           offset="0.5"
           style="stop-color:#0A697A"
           id="stop4811" /><stop
           offset="0.6177"
           style="stop-color:#0A6070"
           id="stop4813" /><stop
           offset="0.8125"
           style="stop-color:#0B4758"
           id="stop4815" /><stop
           offset="1"
           style="stop-color:#0D283A"
           id="stop4817" /></linearGradient><path
         fill="url(#SVGID_5_)"
         d="M131.342,144.072c33.872,38.717,45.761,36.561,45.761,36.561s2.182,0.508,2.332,0.41    c0.405-0.266,0.572-0.662,0.753-0.934c0.482-0.73,10.052-16.422-22.444-72.979L131.342,144.072z"
         id="path4819" /><linearGradient
         id="SVGID_6_"
         gradientUnits="userSpaceOnUse"
         x1="-41.9321"
         y1="905.8604"
         x2="-41.9321"
         y2="970.1382"
         gradientTransform="matrix(1 0 0 1 90 -791)"><stop
           offset="0"
           style="stop-color:#0B5463"
           id="stop4822" /><stop
           offset="0.0704"
           style="stop-color:#0B6070"
           id="stop4824" /><stop
           offset="0.2165"
           style="stop-color:#0B7285"
           id="stop4826" /><stop
           offset="0.3608"
           style="stop-color:#0A7D91"
           id="stop4828" /><stop
           offset="0.5"
           style="stop-color:#0A8195"
           id="stop4830" /><stop
           offset="0.6392"
           style="stop-color:#0A7D91"
           id="stop4832" /><stop
           offset="0.7835"
           style="stop-color:#0B7285"
           id="stop4834" /><stop
           offset="0.9296"
           style="stop-color:#0B6070"
           id="stop4836" /><stop
           offset="1"
           style="stop-color:#0B5463"
           id="stop4838" /></linearGradient><path
         fill="url(#SVGID_6_)"
         d="M87.52,150.014c-69.822-2.938-78.172-20.346-78.529-21.17c-0.109-0.25-0.417-0.746-0.371-1.141    c0.145-1.238,2.695-3.439,2.695-3.439s18.578-11.404,49.362-17.545L87.52,150.014z"
         id="path4840" /><linearGradient
         id="SVGID_7_"
         gradientUnits="userSpaceOnUse"
         x1="-6.5659"
         y1="842.7871"
         x2="18.668"
         y2="842.7871"
         gradientTransform="matrix(1 0 0 1 90 -791)"><stop
           offset="0"
           style="stop-color:#0B5463"
           id="stop4843" /><stop
           offset="1"
           style="stop-color:#0B5463"
           id="stop4845" /></linearGradient><path
         opacity="0.4"
         fill="url(#SVGID_7_)"
         enable-background="new    "
         d="M107.614,36.783    c-6.985,7.438-15.034,17.199-24.18,30.008h1.784c5.405-6.887,18.892-23.848,23.45-28.838L107.614,36.783z"
         id="path4847" /><linearGradient
         id="SVGID_8_"
         gradientUnits="userSpaceOnUse"
         x1="26.7622"
         y1="869.4707"
         x2="26.7622"
         y2="808.8428"
         gradientTransform="matrix(1 0 0 1 90 -791)"><stop
           offset="0"
           style="stop-color:#014251"
           id="stop4850" /><stop
           offset="0.5"
           style="stop-color:#057587"
           id="stop4852" /><stop
           offset="0.6934"
           style="stop-color:#057384"
           id="stop4854" /><stop
           offset="0.8038"
           style="stop-color:#056B7C"
           id="stop4856" /><stop
           offset="0.8932"
           style="stop-color:#035E6E"
           id="stop4858" /><stop
           offset="0.971"
           style="stop-color:#024B5B"
           id="stop4860" /><stop
           offset="1"
           style="stop-color:#014251"
           id="stop4862" /></linearGradient><path
         fill="url(#SVGID_8_)"
         d="M135.817,68.23c18.261-43.152,11.11-53.051,11.11-53.051s-0.377-1.594-0.542-1.684    c-0.308-0.168-0.917-0.268-1.159-0.309c-0.884-0.148-19.868-2.605-60.008,53.604L135.817,68.23z"
         id="path4864" /><linearGradient
         id="SVGID_9_"
         gradientUnits="userSpaceOnUse"
         x1="-28.6187"
         y1="987.1406"
         x2="82.1423"
         y2="819.7172"
         gradientTransform="matrix(1 0 0 1 90 -791)"><stop
           offset="0"
           style="stop-color:#0B879A"
           id="stop4867" /><stop
           offset="0.0824"
           style="stop-color:#379FB2"
           id="stop4869" /><stop
           offset="0.1675"
           style="stop-color:#5CB4C7"
           id="stop4871" /><stop
           offset="0.2527"
           style="stop-color:#79C5D7"
           id="stop4873" /><stop
           offset="0.337"
           style="stop-color:#8DD1E3"
           id="stop4875" /><stop
           offset="0.42"
           style="stop-color:#9AD8EA"
           id="stop4877" /><stop
           offset="0.5"
           style="stop-color:#9EDAEC"
           id="stop4879" /><stop
           offset="0.58"
           style="stop-color:#9AD8EA"
           id="stop4881" /><stop
           offset="0.663"
           style="stop-color:#8DD1E3"
           id="stop4883" /><stop
           offset="0.7473"
           style="stop-color:#79C5D7"
           id="stop4885" /><stop
           offset="0.8325"
           style="stop-color:#5CB4C7"
           id="stop4887" /><stop
           offset="0.9176"
           style="stop-color:#379FB2"
           id="stop4889" /><stop
           offset="1"
           style="stop-color:#0B879A"
           id="stop4891" /></linearGradient><path
         fill="url(#SVGID_9_)"
         d="M108.172,176.496c-24.74,26.969-36.709,25.414-37.406,25.299c-0.967-0.162-2.927-1.459-2.927-1.459    l-30.261-19.295C50.32,178.332,66,163.186,82.504,143.922L108.172,176.496z"
         id="path4893" /><linearGradient
         id="SVGID_10_"
         gradientUnits="userSpaceOnUse"
         x1="-38.5698"
         y1="990.498"
         x2="5.3"
         y2="951.2192"
         gradientTransform="matrix(1 0 0 1 90 -791)"><stop
           offset="0"
           style="stop-color:#057B8F"
           id="stop4896" /><stop
           offset="0.0822"
           style="stop-color:#038DA1"
           id="stop4898" /><stop
           offset="0.1808"
           style="stop-color:#029AB0"
           id="stop4900" /><stop
           offset="0.3007"
           style="stop-color:#01A2B8"
           id="stop4902" /><stop
           offset="0.5"
           style="stop-color:#01A4BB"
           id="stop4904" /><stop
           offset="0.6993"
           style="stop-color:#01A2B8"
           id="stop4906" /><stop
           offset="0.8192"
           style="stop-color:#029AB0"
           id="stop4908" /><stop
           offset="0.9178"
           style="stop-color:#038DA1"
           id="stop4910" /><stop
           offset="1"
           style="stop-color:#057B8F"
           id="stop4912" /></linearGradient><path
         fill="url(#SVGID_10_)"
         d="M109.192,177.518c-24.74,26.967-36.708,25.412-37.404,25.297    c-0.969-0.162-2.928-1.459-2.928-1.459l-31.281-20.312c12.742-2.709,29.441-16.834,45.945-36.1L109.192,177.518z"
         id="path4914" /><linearGradient
         id="SVGID_11_"
         gradientUnits="userSpaceOnUse"
         x1="-42.4941"
         y1="818.5723"
         x2="59.365"
         y2="988.3375"
         gradientTransform="matrix(1 0 0 1 90 -791)"><stop
           offset="0"
           style="stop-color:#057B8F"
           id="stop4917" /><stop
           offset="0.0176"
           style="stop-color:#0A8093"
           id="stop4919" /><stop
           offset="0.1407"
           style="stop-color:#279AAD"
           id="stop4921" /><stop
           offset="0.2631"
           style="stop-color:#3BAEBF"
           id="stop4923" /><stop
           offset="0.3837"
           style="stop-color:#48B9CA"
           id="stop4925" /><stop
           offset="0.5"
           style="stop-color:#4CBDCE"
           id="stop4927" /><stop
           offset="0.6163"
           style="stop-color:#48B9CA"
           id="stop4929" /><stop
           offset="0.7369"
           style="stop-color:#3BAEBF"
           id="stop4931" /><stop
           offset="0.8593"
           style="stop-color:#279AAD"
           id="stop4933" /><stop
           offset="0.9824"
           style="stop-color:#0A8093"
           id="stop4935" /><stop
           offset="1"
           style="stop-color:#057B8F"
           id="stop4937" /></linearGradient><path
         fill="url(#SVGID_11_)"
         d="M43,72.677C32.01,44.38,37.481,35.419,37.844,34.87c0.541-0.818,2.524-2.08,2.524-2.08    l30.261-19.295c-2.627,12.354,4.059,31.447,14.324,53.541L43,72.677z"
         id="path4939" /><linearGradient
         id="SVGID_12_"
         gradientUnits="userSpaceOnUse"
         x1="67.6885"
         y1="987.3125"
         x2="2.19"
         y2="904.8143"
         gradientTransform="matrix(1 0 0 1 90 -791)"><stop
           offset="0"
           style="stop-color:#057B8F"
           id="stop4942" /><stop
           offset="0.0257"
           style="stop-color:#0A8093"
           id="stop4944" /><stop
           offset="0.2053"
           style="stop-color:#279AAD"
           id="stop4946" /><stop
           offset="0.384"
           style="stop-color:#3BAEBF"
           id="stop4948" /><stop
           offset="0.5599"
           style="stop-color:#48B9CA"
           id="stop4950" /><stop
           offset="0.7296"
           style="stop-color:#4CBDCE"
           id="stop4952" /><stop
           offset="0.7925"
           style="stop-color:#48B9CA"
           id="stop4954" /><stop
           offset="0.8577"
           style="stop-color:#3BAEBF"
           id="stop4956" /><stop
           offset="0.9239"
           style="stop-color:#279AAD"
           id="stop4958" /><stop
           offset="0.9905"
           style="stop-color:#0A8093"
           id="stop4960" /><stop
           offset="1"
           style="stop-color:#057B8F"
           id="stop4962" /></linearGradient><path
         fill="url(#SVGID_12_)"
         d="M106.755,106.365c-15.667,0.17-31.37,1.221-45.417,3.326c0.451,0.944,7.535,12.603,12.601,20.399    c48.579,74.806,71.339,71.863,72.307,71.701c0.968-0.16,2.928-1.457,2.928-1.457l30.262-19.293    C158.819,176.66,130.159,143.062,106.755,106.365z"
         id="path4964" /><linearGradient
         id="SVGID_13_"
         gradientUnits="userSpaceOnUse"
         x1="-26.9561"
         y1="860.165"
         x2="-39.709"
         y2="814.2545"
         gradientTransform="matrix(1 0 0 1 90 -791)"><stop
           offset="0"
           style="stop-color:#057B8F"
           id="stop4967" /><stop
           offset="0.0822"
           style="stop-color:#038DA1"
           id="stop4969" /><stop
           offset="0.1808"
           style="stop-color:#029AB0"
           id="stop4971" /><stop
           offset="0.3007"
           style="stop-color:#01A2B8"
           id="stop4973" /><stop
           offset="0.5"
           style="stop-color:#01A4BB"
           id="stop4975" /><stop
           offset="0.6993"
           style="stop-color:#01A2B8"
           id="stop4977" /><stop
           offset="0.8192"
           style="stop-color:#029AB0"
           id="stop4979" /><stop
           offset="0.9178"
           style="stop-color:#038DA1"
           id="stop4981" /><stop
           offset="1"
           style="stop-color:#057B8F"
           id="stop4983" /></linearGradient><path
         fill="url(#SVGID_13_)"
         d="M41.981,73.699c-10.99-28.299-5.519-37.26-5.157-37.809c0.542-0.816,2.524-2.08,2.524-2.08    l31.281-20.314c-2.627,12.354,3.038,32.469,13.303,54.561L41.981,73.699z"
         id="path4985" /><linearGradient
         id="SVGID_14_"
         gradientUnits="userSpaceOnUse"
         x1="117.4731"
         y1="891.126"
         x2="-81.2289"
         y2="891.126"
         gradientTransform="matrix(1 0 0 1 90 -791)"><stop
           offset="0"
           style="stop-color:#0B879A"
           id="stop4988" /><stop
           offset="0.0128"
           style="stop-color:#118B9E"
           id="stop4990" /><stop
           offset="0.1121"
           style="stop-color:#36A5BA"
           id="stop4992" /><stop
           offset="0.2115"
           style="stop-color:#53BAD0"
           id="stop4994" /><stop
           offset="0.3099"
           style="stop-color:#67C8E0"
           id="stop4996" /><stop
           offset="0.4066"
           style="stop-color:#74D1E9"
           id="stop4998" /><stop
           offset="0.5"
           style="stop-color:#78D4EC"
           id="stop5000" /><stop
           offset="0.5934"
           style="stop-color:#74D1E9"
           id="stop5002" /><stop
           offset="0.6901"
           style="stop-color:#67C8E0"
           id="stop5004" /><stop
           offset="0.7885"
           style="stop-color:#53BAD0"
           id="stop5006" /><stop
           offset="0.8879"
           style="stop-color:#36A5BA"
           id="stop5008" /><stop
           offset="0.9872"
           style="stop-color:#118B9E"
           id="stop5010" /><stop
           offset="1"
           style="stop-color:#0B879A"
           id="stop5012" /></linearGradient><path
         fill="url(#SVGID_14_)"
         d="M156.279,110.549c23.614,3.406,43.153,8.193,52.116,17.154V91.777c0,0,0.02-2.35-0.372-3.25    c-0.259-0.594-4.659-9.783-33.169-15.98L156.279,110.549z"
         id="path5014" /><linearGradient
         id="SVGID_15_"
         gradientUnits="userSpaceOnUse"
         x1="60.5166"
         y1="888.2246"
         x2="117.3075"
         y2="891.2853"
         gradientTransform="matrix(1 0 0 1 90 -791)"><stop
           offset="0"
           style="stop-color:#096F80"
           id="stop5017" /><stop
           offset="0.0061"
           style="stop-color:#097181"
           id="stop5019" /><stop
           offset="0.0912"
           style="stop-color:#0B8395"
           id="stop5021" /><stop
           offset="0.1876"
           style="stop-color:#0C8FA4"
           id="stop5023" /><stop
           offset="0.3049"
           style="stop-color:#0D97AC"
           id="stop5025" /><stop
           offset="0.5"
           style="stop-color:#0D99AF"
           id="stop5027" /><stop
           offset="0.6951"
           style="stop-color:#0D97AC"
           id="stop5029" /><stop
           offset="0.8124"
           style="stop-color:#0C8FA4"
           id="stop5031" /><stop
           offset="0.9088"
           style="stop-color:#0B8395"
           id="stop5033" /><stop
           offset="0.9939"
           style="stop-color:#097181"
           id="stop5035" /><stop
           offset="1"
           style="stop-color:#096F80"
           id="stop5037" /></linearGradient><path
         fill="url(#SVGID_15_)"
         d="M156.279,109.178c23.614,3.406,43.153,9.564,52.116,18.525V90.406c0,0,0.02-2.35-0.372-3.25    c-0.259-0.594-4.659-9.783-33.169-15.98L156.279,109.178z"
         id="path5039" /><linearGradient
         id="SVGID_16_"
         gradientUnits="userSpaceOnUse"
         x1="-81.3799"
         y1="888.3203"
         x2="21.0851"
         y2="888.3203"
         gradientTransform="matrix(1 0 0 1 90 -791)"><stop
           offset="0"
           style="stop-color:#0B879A"
           id="stop5042" /><stop
           offset="0.0225"
           style="stop-color:#118B9E"
           id="stop5044" /><stop
           offset="0.1971"
           style="stop-color:#36A5BA"
           id="stop5046" /><stop
           offset="0.3718"
           style="stop-color:#53BAD0"
           id="stop5048" /><stop
           offset="0.5447"
           style="stop-color:#67C8E0"
           id="stop5050" /><stop
           offset="0.7147"
           style="stop-color:#74D1E9"
           id="stop5052" /><stop
           offset="0.8788"
           style="stop-color:#78D4EC"
           id="stop5054" /><stop
           offset="0.9015"
           style="stop-color:#74D1E9"
           id="stop5056" /><stop
           offset="0.9249"
           style="stop-color:#67C8E0"
           id="stop5058" /><stop
           offset="0.9487"
           style="stop-color:#53BAD0"
           id="stop5060" /><stop
           offset="0.9728"
           style="stop-color:#36A5BA"
           id="stop5062" /><stop
           offset="0.9969"
           style="stop-color:#118B9E"
           id="stop5064" /><stop
           offset="1"
           style="stop-color:#0B879A"
           id="stop5066" /></linearGradient><path
         fill="url(#SVGID_16_)"
         d="M134.862,67.619c-5.318-0.258-16.663-0.682-26.354-0.682c-89.197,0-99.124,20.689-99.517,21.59    c-0.391,0.9-0.371,3.25-0.371,3.25v35.926c8.678-8.678,27.775-13.406,50.98-16.885c14.048-2.105,29.596-3.254,45.263-3.424    c2.771-0.029,5.546-0.029,8.315,0C113.178,107.394,140.18,67.876,134.862,67.619z"
         id="path5068" /><linearGradient
         id="SVGID_17_"
         gradientUnits="userSpaceOnUse"
         x1="-9.3242"
         y1="861.8027"
         x2="-47.8329"
         y2="856.3875"
         gradientTransform="matrix(1 0 0 1 90 -791)"><stop
           offset="0"
           style="stop-color:#0B5463"
           id="stop5071" /><stop
           offset="1"
           style="stop-color:#0B5463"
           id="stop5073" /></linearGradient><path
         opacity="0.2"
         fill="url(#SVGID_17_)"
         enable-background="new    "
         d="M83.947,64.845    c-18.644,0.945-32.06,2.318-43.277,5.354l0.536,1.471c1.021-0.166,2.295-0.514,3.332-0.67c12.669-1.9,26.317-3.637,40.416-3.963    L83.947,64.845z"
         id="path5075" /><linearGradient
         id="SVGID_18_"
         gradientUnits="userSpaceOnUse"
         x1="29.8599"
         y1="894.7402"
         x2="-78.9636"
         y2="879.4369"
         gradientTransform="matrix(1 0 0 1 90 -791)"><stop
           offset="0"
           style="stop-color:#0B879A"
           id="stop5078" /><stop
           offset="0.0382"
           style="stop-color:#1694A7"
           id="stop5080" /><stop
           offset="0.1177"
           style="stop-color:#26A8BA"
           id="stop5082" /><stop
           offset="0.2081"
           style="stop-color:#32B6C8"
           id="stop5084" /><stop
           offset="0.3177"
           style="stop-color:#39BED1"
           id="stop5086" /><stop
           offset="0.5"
           style="stop-color:#3BC1D3"
           id="stop5088" /><stop
           offset="0.6823"
           style="stop-color:#39BED1"
           id="stop5090" /><stop
           offset="0.7919"
           style="stop-color:#32B6C8"
           id="stop5092" /><stop
           offset="0.8823"
           style="stop-color:#26A8BA"
           id="stop5094" /><stop
           offset="0.9618"
           style="stop-color:#1694A7"
           id="stop5096" /><stop
           offset="1"
           style="stop-color:#0B879A"
           id="stop5098" /></linearGradient><path
         fill="url(#SVGID_18_)"
         d="M134.862,66.248c-5.318-0.258-16.663-0.682-26.354-0.682c-89.197,0-99.124,20.689-99.517,21.59    c-0.391,0.9-0.371,3.25-0.371,3.25v37.297c8.678-8.678,27.775-14.775,50.98-18.256c14.048-2.106,29.596-3.254,45.263-3.424    c2.771-0.029,5.546-0.029,8.315,0.002C113.178,106.025,140.18,66.505,134.862,66.248z"
         id="path5100" /><linearGradient
         id="SVGID_19_"
         gradientUnits="userSpaceOnUse"
         x1="80.2974"
         y1="819.3965"
         x2="28.5478"
         y2="908.5208"
         gradientTransform="matrix(1 0 0 1 90 -791)"><stop
           offset="0"
           style="stop-color:#0B879A"
           id="stop5103" /><stop
           offset="0.1238"
           style="stop-color:#379FB2"
           id="stop5105" /><stop
           offset="0.2516"
           style="stop-color:#5CB4C7"
           id="stop5107" /><stop
           offset="0.3797"
           style="stop-color:#79C5D7"
           id="stop5109" /><stop
           offset="0.5064"
           style="stop-color:#8DD1E3"
           id="stop5111" /><stop
           offset="0.631"
           style="stop-color:#9AD8EA"
           id="stop5113" /><stop
           offset="0.7513"
           style="stop-color:#9EDAEC"
           id="stop5115" /><stop
           offset="0.7911"
           style="stop-color:#9AD8EA"
           id="stop5117" /><stop
           offset="0.8324"
           style="stop-color:#8DD1E3"
           id="stop5119" /><stop
           offset="0.8743"
           style="stop-color:#79C5D7"
           id="stop5121" /><stop
           offset="0.9167"
           style="stop-color:#5CB4C7"
           id="stop5123" /><stop
           offset="0.959"
           style="stop-color:#379FB2"
           id="stop5125" /><stop
           offset="1"
           style="stop-color:#0B879A"
           id="stop5127" /></linearGradient><path
         fill="url(#SVGID_19_)"
         d="M108.502,109.08c24.314-36.528,42.304-74.786,37.882-95.584l30.262,19.293    c0,0,1.98,1.264,2.521,2.082c0.542,0.818,12.487,20.414-36.094,95.221c-3.575,5.504-6.885,11.99-8.103,12.592    C126.681,134.578,108.502,109.08,108.502,109.08z"
         id="path5129" /><linearGradient
         id="SVGID_20_"
         gradientUnits="userSpaceOnUse"
         x1="86.8013"
         y1="864.2285"
         x2="67.9593"
         y2="899.5872"
         gradientTransform="matrix(1 0 0 1 90 -791)"><stop
           offset="0"
           style="stop-color:#0B5463"
           id="stop5132" /><stop
           offset="1"
           style="stop-color:#0B5463"
           id="stop5134" /></linearGradient><path
         opacity="0.25"
         fill="url(#SVGID_20_)"
         enable-background="new    "
         d="M175.734,71.333    c-5.28,12.918-11.025,25.32-19.455,39.147l2.229,0.424c9.653-16.59,15.203-28.776,18.983-39.131L175.734,71.333z"
         id="path5136" /><linearGradient
         id="SVGID_21_"
         gradientUnits="userSpaceOnUse"
         x1="78.5996"
         y1="821.3535"
         x2="26.6853"
         y2="918.7758"
         gradientTransform="matrix(1 0 0 1 90 -791)"><stop
           offset="0"
           style="stop-color:#0B879A"
           id="stop5139" /><stop
           offset="0.0382"
           style="stop-color:#1694A7"
           id="stop5141" /><stop
           offset="0.1177"
           style="stop-color:#26A8BA"
           id="stop5143" /><stop
           offset="0.2081"
           style="stop-color:#32B6C8"
           id="stop5145" /><stop
           offset="0.3177"
           style="stop-color:#39BED1"
           id="stop5147" /><stop
           offset="0.5"
           style="stop-color:#3BC1D3"
           id="stop5149" /><stop
           offset="0.6823"
           style="stop-color:#39BED1"
           id="stop5151" /><stop
           offset="0.7919"
           style="stop-color:#32B6C8"
           id="stop5153" /><stop
           offset="0.8823"
           style="stop-color:#26A8BA"
           id="stop5155" /><stop
           offset="0.9618"
           style="stop-color:#1694A7"
           id="stop5157" /><stop
           offset="1"
           style="stop-color:#0B879A"
           id="stop5159" /></linearGradient><path
         fill="url(#SVGID_21_)"
         d="M144.094,131.111c48.582-74.807,36.636-94.401,36.094-95.221c-0.541-0.816-2.521-2.08-2.521-2.08    l-31.282-20.314c4.396,20.678-12.935,60.498-37.042,96.872c8.118,12.356,16.496,24.437,25.324,34.678    C136.426,143.201,140.834,136.129,144.094,131.111z"
         id="path5161" /><linearGradient
         id="SVGID_22_"
         gradientUnits="userSpaceOnUse"
         x1="82.6289"
         y1="823.5488"
         x2="30.2568"
         y2="921.8301"
         gradientTransform="matrix(1 0 0 1 90 -791)"><stop
           offset="0"
           style="stop-color:#0B879A"
           id="stop5164" /><stop
           offset="0.0382"
           style="stop-color:#1694A7"
           id="stop5166" /><stop
           offset="0.1177"
           style="stop-color:#26A8BA"
           id="stop5168" /><stop
           offset="0.2081"
           style="stop-color:#32B6C8"
           id="stop5170" /><stop
           offset="0.3177"
           style="stop-color:#39BED1"
           id="stop5172" /><stop
           offset="0.5"
           style="stop-color:#3BC1D3"
           id="stop5174" /><stop
           offset="0.6823"
           style="stop-color:#39BED1"
           id="stop5176" /><stop
           offset="0.7919"
           style="stop-color:#32B6C8"
           id="stop5178" /><stop
           offset="0.8823"
           style="stop-color:#26A8BA"
           id="stop5180" /><stop
           offset="0.9618"
           style="stop-color:#1694A7"
           id="stop5182" /><stop
           offset="1"
           style="stop-color:#0B879A"
           id="stop5184" /></linearGradient><path
         fill="url(#SVGID_22_)"
         d="M133.788,146.396c0.107-0.057,0.26-0.195,0.43-0.375c-8.828-10.242-17.602-22.018-25.719-34.373    c-0.14,0.209-0.276,0.422-0.416,0.633C108.083,112.281,125.002,139.004,133.788,146.396z"
         id="path5186" /><linearGradient
         id="SVGID_23_"
         gradientUnits="userSpaceOnUse"
         x1="-1.8975"
         y1="935.2969"
         x2="11.5351"
         y2="971.6878"
         gradientTransform="matrix(1 0 0 1 90 -791)"><stop
           offset="0"
           style="stop-color:#0B5463"
           id="stop5189" /><stop
           offset="1"
           style="stop-color:#0B5463"
           id="stop5191" /></linearGradient><path
         opacity="0.2"
         fill="url(#SVGID_23_)"
         enable-background="new    "
         d="M108.506,178.262    c-0.398-0.457-18.246-21.541-26.364-33.9l-1.325,1.512c10.186,14.547,19.059,25.396,26.666,33.479L108.506,178.262z"
         id="path5193" /><linearGradient
         id="SVGID_24_"
         gradientUnits="userSpaceOnUse"
         x1="23.6108"
         y1="897.8691"
         x2="39.4245"
         y2="996.3225"
         gradientTransform="matrix(1 0 0 1 90 -791)"><stop
           offset="0"
           style="stop-color:#096F80"
           id="stop5196" /><stop
           offset="0.0244"
           style="stop-color:#107B8C"
           id="stop5198" /><stop
           offset="0.0888"
           style="stop-color:#2095A6"
           id="stop5200" /><stop
           offset="0.1599"
           style="stop-color:#2CA8BA"
           id="stop5202" /><stop
           offset="0.2403"
           style="stop-color:#34B6C8"
           id="stop5204" /><stop
           offset="0.3378"
           style="stop-color:#39BFD0"
           id="stop5206" /><stop
           offset="0.5"
           style="stop-color:#3BC1D3"
           id="stop5208" /><stop
           offset="0.6718"
           style="stop-color:#39BED1"
           id="stop5210" /><stop
           offset="0.7751"
           style="stop-color:#33B6C8"
           id="stop5212" /><stop
           offset="0.8603"
           style="stop-color:#28A8BA"
           id="stop5214" /><stop
           offset="0.9351"
           style="stop-color:#1894A7"
           id="stop5216" /><stop
           offset="1"
           style="stop-color:#057B8F"
           id="stop5218" /></linearGradient><path
         fill="url(#SVGID_24_)"
         d="M134.217,146.021c-8.828-10.242-17.602-22.018-25.719-34.373    c-0.929-1.416-1.853-2.834-2.763-4.264c-15.667,0.17-31.37,1.221-45.418,3.325c0.451,0.947,7.536,12.603,12.601,20.399    c48.58,74.808,71.339,71.865,72.308,71.703c0.968-0.162,2.927-1.459,2.927-1.459l31.282-20.312    C166.633,178.32,150.338,164.723,134.217,146.021z"
         id="path5220" /></g><g
       id="g5222"><path
         fill="#535E5E"
         d="M343.781,154.282h22.16l-33.586-46.504l2.139-0.639c4.254-1.265,7.98-3.055,11.08-5.32    c3.074-2.248,5.531-4.83,7.293-7.666c1.795-2.877,3.125-5.902,3.955-8.993c0.832-3.106,1.254-6.431,1.254-9.878    c0-4.01-0.484-7.669-1.447-10.873c-0.945-3.176-2.166-5.828-3.621-7.88c-1.453-2.038-3.299-3.849-5.498-5.38    c-2.252-1.566-4.438-2.762-6.498-3.557c-2.09-0.805-4.531-1.46-7.26-1.945c-2.752-0.492-5.131-0.804-7.061-0.934    c-1.965-0.131-4.137-0.195-6.449-0.195h-46.498v109.764h16.861v-43.787h21.547L343.781,154.282z M290.605,95.221V59.71h23.754    c17.24,0,25.98,5.853,25.98,17.397c0,3.053-0.605,5.762-1.812,8.047c-1.199,2.288-2.759,4.109-4.627,5.412    c-1.812,1.27-4.143,2.271-6.91,2.976c-2.66,0.683-5.287,1.138-7.809,1.356c-2.465,0.215-5.344,0.322-8.559,0.322h-20.021v0.001    H290.605z"
         id="path5224" /><g
         id="g5226"><polygon
           fill="#535E5E"
           points="378.113,44.518 378.113,62.887 396.881,62.887 396.881,52.147 396.881,44.518    "
           id="polygon5228" /><rect
           x="379.307"
           y="78.931"
           fill="#535E5E"
           width="16.383"
           height="75.351"
           id="rect5230" /></g><path
         fill="#535E5E"
         d="M461.748,93.69c2.494,0.852,4.33,1.846,5.615,3.04c1.285,1.192,2.297,2.726,3.018,4.558    c0.689,1.75,1.098,3.199,1.252,4.435c0.141,1.169,0.209,2.528,0.209,4.05v44.51h16.383v-44.748c0-3.497-0.182-6.69-0.541-9.495    c-0.35-2.707-1.137-5.615-2.326-8.641c-1.16-2.93-2.73-5.377-4.682-7.275c-1.949-1.9-4.705-3.521-8.188-4.814    c-3.52-1.307-7.771-1.967-12.643-1.967c-9.117,0-19.146,2.309-29.812,6.865l-1.373,0.584l-2.93-5.86h-11.107v75.351h16.379V97.319    l1.014-0.391c7.73-2.971,14.875-4.475,21.238-4.475C456.48,92.454,459.338,92.866,461.748,93.69z"
         id="path5232" /><path
         fill="#535E5E"
         d="M570.332,187.288c2.246-2.07,4.096-4.261,5.494-6.511c1.41-2.269,2.59-4.778,3.498-7.461    c0.92-2.702,1.562-5.347,1.92-7.856c0.355-2.537,0.541-5.201,0.541-7.924V78.931h-11.994l-1.371,3.942l-1.555-0.646    c-7.771-3.243-15.076-4.886-21.725-4.886c-3.574,0-7.248,0.401-10.91,1.197c-3.633,0.785-7.42,2.182-11.254,4.15    c-3.811,1.955-7.219,4.412-10.141,7.306c-2.877,2.854-5.271,6.629-7.113,11.226c-1.852,4.606-2.789,9.864-2.789,15.624    c0,5.572,0.801,10.664,2.373,15.131c1.566,4.443,3.666,8.156,6.242,11.033c2.602,2.9,5.709,5.369,9.248,7.342    c3.561,1.982,7.264,3.41,11.021,4.25c9.814,2.188,20.922,1.555,31.471-2.211l2.115-0.756v2.963c0,2.865-0.184,5.523-0.537,7.902    c-0.365,2.445-1.17,5.014-2.396,7.627c-1.252,2.682-2.967,4.961-5.094,6.775c-2.115,1.799-5.016,3.291-8.613,4.438    c-3.561,1.129-7.803,1.703-12.604,1.703c-6.861,0-13.92-1.176-20.996-3.498l-1.848-0.674l-4.854,12.545l1.545,0.668    c8.832,3.439,18.32,5.195,28.143,5.195c5.01,0,9.648-0.434,13.785-1.279c4.111-0.844,7.688-2.002,10.629-3.447    C565.484,191.118,568.1,189.345,570.332,187.288z M564.355,138.841c-5.449,1.959-10.977,2.955-16.434,2.955    c-8.879,0-15.84-2.502-20.682-7.432c-4.834-4.916-7.287-11.27-7.287-18.869c0-7.321,2.432-13.26,7.229-17.661    c4.762-4.361,11.119-6.574,18.914-6.574c5.055,0,11.164,1.037,18.168,3.084l1.141,0.333v43.787L564.355,138.841z"
         id="path5234" /></g><path
       fill="#758283"
       d="M433.446,24.791h10.493c1.174,0,2.246,0.091,3.224,0.271c0.974,0.181,1.797,0.416,2.468,0.706   s1.271,0.639,1.791,1.046c0.522,0.406,0.938,0.819,1.239,1.238c0.303,0.42,0.552,0.865,0.745,1.336   c0.191,0.472,0.32,0.897,0.387,1.278s0.097,0.758,0.097,1.132c0,0.878-0.236,1.769-0.716,2.672   c-0.478,0.903-1.078,1.665-1.801,2.284c1.445,0.594,2.604,1.521,3.476,2.778c0.871,1.259,1.309,2.637,1.309,4.134   c0,0.426-0.042,0.861-0.126,1.307c-0.084,0.446-0.249,0.958-0.494,1.539c-0.245,0.581-0.564,1.133-0.958,1.655   c-0.396,0.522-0.926,1.042-1.597,1.559c-0.674,0.516-1.446,0.958-2.323,1.326c-0.878,0.367-1.959,0.668-3.243,0.899   c-1.284,0.232-2.694,0.349-4.229,0.349h-9.737V24.791H433.446z M442.836,28.895h-4.511v7.627c2.8-0.063,4.756-0.193,5.865-0.387   c2.685-0.49,4.115-1.606,4.298-3.35c0.013-0.142,0.02-0.283,0.02-0.426c0-0.413-0.07-0.797-0.213-1.151   c-0.142-0.355-0.396-0.72-0.765-1.094c-0.367-0.374-0.952-0.671-1.752-0.891C444.979,29.004,443.997,28.895,442.836,28.895z    M443.146,39.62c-0.104,0-1.712,0.071-4.82,0.213v7.977h4.336c0.517,0,0.959-0.003,1.326-0.01c0.367-0.006,0.875-0.035,1.521-0.087   c0.646-0.052,1.2-0.126,1.664-0.223c0.465-0.097,0.977-0.242,1.53-0.436c0.555-0.193,1.003-0.426,1.345-0.697   s0.633-0.616,0.871-1.035c0.239-0.42,0.358-0.896,0.358-1.423c0-1.33-0.732-2.375-2.197-3.137   C447.614,40,445.636,39.62,443.146,39.62z"
       id="path5236" /><path
       fill="#758283"
       d="M460.621,52.3V24.79h19.302v4.491h-14.401v6.602h13.338v4.492h-13.338v7.434h14.401V52.3H460.621z"
       id="path5238" /><path
       fill="#758283"
       d="M484.271,24.791h24.855v4.491h-9.989V52.3h-4.879V29.282h-9.989L484.271,24.791L484.271,24.791z"
       id="path5240" /><path
       fill="#758283"
       d="M519.071,24.791h5.344l10.88,27.51h-5.015l-3.078-7.201h-11.229l-3.077,7.201h-4.725L519.071,24.791z    M525.499,40.626l-3.911-10.202l-3.93,10.202H525.499z"
       id="path5242" /><path
       fill="#D12828"
       d="M551.295,48.571c0.76-2.221,1.76-4.299,3.003-6.234c1.244-1.935,2.543-3.578,3.9-4.927   c1.356-1.347,2.775-2.604,4.257-3.771c1.479-1.166,2.875-2.181,4.187-3.045c1.311-0.863,2.494-1.68,3.56-2.449   c1.062-0.768,1.906-1.526,2.533-2.277c0.626-0.749,0.938-1.494,0.938-2.235c0-1.481-0.887-2.777-2.661-3.887   c-1.773-1.11-3.942-1.665-6.505-1.665c-3.113,0-6.882,0.758-11.304,2.276l-1.081,0.371l-2.191-5.865l1.025-0.455   c4.457-1.897,9.327-2.847,14.604-2.847c4.744,0,8.514,1.029,11.304,3.09c2.789,2.059,4.187,4.644,4.187,7.757   c0,1.347-0.271,2.609-0.812,3.785c-0.541,1.179-1.28,2.24-2.223,3.19c-0.939,0.95-1.99,1.869-3.158,2.761   c-1.167,0.894-2.421,1.817-3.761,2.777c-1.335,0.957-2.632,1.935-3.886,2.931c-1.254,0.997-2.482,2.178-3.687,3.545   c-1.205,1.367-2.206,2.799-3.003,4.299h21.266V52.3h-30.489v-3.729H551.295z"
       id="path5244" /></g><g
     id="g5364"
     transform="matrix(0.31958221,0,0,0.31958221,244.8161,151.60715)"><g
       id="g5373"><text
         transform="matrix(3.1290853,0,0,3.1290853,-799.70759,-474.39171)"
         sodipodi:linespacing="125%"
         id="text5276"
         y="196.17749"
         x="320.00525"
         style="font-style:normal;font-weight:normal;font-size:50.44026947px;line-height:125%;font-family:sans-serif;letter-spacing:0px;word-spacing:0px;fill:#535e5e;fill-opacity:1;stroke:#535e5e;stroke-width:1.39999998;stroke-linecap:butt;stroke-linejoin:miter;stroke-miterlimit:4;stroke-dasharray:none;stroke-opacity:1"
         xml:space="preserve"><tspan
           style="font-style:normal;font-weight:bold;fill:#535e5e;fill-opacity:1;stroke:#535e5e;stroke-width:1.39999998;stroke-miterlimit:4;stroke-dasharray:none;stroke-opacity:1"
           y="196.17749"
           x="320.00525"
           id="tspan5278"
           sodipodi:role="line">DE</tspan></text>
<path
         sodipodi:nodetypes="cccccccccccc"
         inkscape:connector-curvature="0"
         id="path5692_2_"
         d="m 152.81445,86.48779 43.92372,63.25637 -34.79872,-0.29934 -38.01562,-55.6582 0,55.70351 -28.28174,0.3146 0,-122.16784 28.58447,0.15608 -0.30273,51.70117 38.76468,-51.272239 34.0914,-0.107362 z"
         style="fill:#535e5e;fill-opacity:1" /><path
         inkscape:connector-curvature="0"
         d="m 163.82031,156.83643 -2.46973,0.78125 c -0.36035,0.11328 -0.75293,-0.0215 -0.96484,-0.33496 0,0 -4.87207,-7.12988 -11.16309,-16.33691 -7.52051,14.71875 -22.82129,24.80078 -40.49023,24.80078 -25.10303,0 -45.45508,-20.35254 -45.45508,-45.45703 0,-18.46777 11.01563,-34.3501 26.82861,-41.46484 l 0,-11.72609 c -2.87793,1.00684 -5.65967,2.22021 -8.30225,3.65967 -0.0024,-0.002 -0.0059,-0.0068 -0.01318,-0.01074 L 60.37842,56.70459 c -0.57715,-0.37695 -1.33691,-0.29883 -1.82178,0.18945 l -11.21875,11.2168 c -0.47168,0.47314 -0.56055,1.20801 -0.21289,1.78076 l 13.13428,21.63135 c -2.32959,3.9165 -4.19531,8.13965 -5.52979,12.59424 l -24.11377,5.01563 c -0.6709,0.13916 -1.1543,0.7334 -1.1543,1.42188 l 0,15.86279 c 0,0.6709 0.45801,1.25195 1.10449,1.4082 l 23.4043,5.7207 c 1.24805,5.15918 3.18262,10.05078 5.73877,14.5459 l -13.54639,20.6582 c -0.37793,0.57715 -0.29883,1.33789 0.18945,1.82422 l 11.21533,11.2168 c 0.47168,0.4707 1.20801,0.56152 1.7832,0.21582 L 80.5786,169.11475 c 4.16992,2.40625 8.66699,4.2998 13.41992,5.58398 l 4.95264,23.81445 c 0.13965,0.6748 0.73682,1.15527 1.4209,1.15527 l 15.86523,0 c 0.66699,0 1.24805,-0.45508 1.40723,-1.10938 l 5.83496,-23.86426 c 4.89941,-1.32227 9.5332,-3.29297 13.80469,-5.80859 L 158.2041,182.604 c 0.5752,0.37891 1.33496,0.30273 1.82324,-0.18555 l 11.21875,-11.2168 c 0.47461,-0.47461 0.56055,-1.20801 0.21191,-1.7793 l -7.63769,-12.58592 z"
         style="fill:#535e5e;fill-opacity:1"
         id="path79" /></g></g></svg>