<svg xmlns="http://www.w3.org/2000/svg" width="24" height="24" version="1"><path style="marker:none" color="#bebebe" fill="none" overflow="visible" d="M25.687 27.125h-27.25V-.125h27.25z"/><path style="marker:none" color="#bebebe" fill="none" overflow="visible" d="M-1.68-4.353h27.358v27.358H-1.68z"/><path style="marker:none" color="#bebebe" fill="none" overflow="visible" d="M-1.68-18.074h27.402V9.328H-1.68z"/><path style="marker:none" color="#bebebe" fill="none" overflow="visible" d="M24.72 3.784l-6.756 25.214-25.215-6.756L-.495-2.972z"/><path style="marker:none" color="#bebebe" fill="none" overflow="visible" d="M-1.875 2.25H26v27.875H-1.875z"/><path style="marker:none" opacity=".515" color="#bebebe" fill="none" overflow="visible" d="M.437 24.063V.188h23.875v23.875z"/><path style="marker:none" color="#bebebe" fill="none" overflow="visible" d="M4.147 7.854h9.069v9.069H4.147z"/><path style="marker:none" color="#bebebe" fill="none" overflow="visible" d="M.063-.188h24v24h-24z"/><rect style="marker:none" y="-.125" x="-.875" ry=".151" rx=".144" height="16" width="16" color="#bebebe" fill="none" overflow="visible"/><path style="marker:none" color="#bebebe" fill="none" overflow="visible" d="M3.313 1.125h16v16h-16z"/><path fill="none" d="M-.563-.687h25.125v25.125H-.563z"/><path style="marker:none" color="#bebebe" fill="none" overflow="visible" d="M-1.187-.25h25.312v25.313H-1.187z"/><path style="marker:none" color="#bebebe" fill="none" overflow="visible" d="M-2.688-3.438H26.5V25.75H-2.688z"/><g fill="#545454"><path d="M21.058 14.87c-.849.824-1.852 1.197-3.074 1.197-1.221 0-2.23-.384-3.078-1.208-1.335.48-2.93 1.702-2.933 3.837l-.004 3.982c-.001.732.536 1.322 1.203 1.322h9.625c.666 0 1.203-.59 1.203-1.322v-3.966c0-1.834-1.326-3.38-2.942-3.843z"/><path d="M21.95 10.779a3.966 3.966 0 1 1-7.932 0 3.966 3.966 0 0 1 7.933 0z" style="marker:none" color="#bebebe" overflow="visible"/></g><g fill="#545454"><path d="M9.027 7.994c-.849.825-1.852 1.198-3.074 1.198-1.222 0-2.23-.384-3.078-1.208-1.335.48-2.931 1.702-2.933 3.837l-.005 3.982c0 .732.537 1.322 1.204 1.322h9.857c.107-.68.45-1.242.97-1.719v-3.57c0-1.833-1.325-3.379-2.941-3.842z"/><path style="marker:none" d="M9.92 3.904a3.966 3.966 0 1 1-7.933 0 3.966 3.966 0 0 1 7.932 0z" color="#bebebe" overflow="visible"/></g></svg>