<svg xmlns="http://www.w3.org/2000/svg" width="24" height="24" version="1"><path style="marker:none" color="#bebebe" fill="none" overflow="visible" d="M25.687 27.125h-27.25V-.125h27.25z"/><path style="marker:none" color="#bebebe" fill="none" overflow="visible" d="M-1.68-4.353h27.358v27.358H-1.68z"/><path style="marker:none" color="#bebebe" fill="none" overflow="visible" d="M-1.68-18.074h27.402V9.328H-1.68z"/><path d="M8.043 1.1c-.67.074-1.288.675-1.822 1.062-1.637 1.33-2.356 3.5-2.177 5.57.211 2.654 1.276 5.136 2.582 7.441.275-.048.571-.101.86-.101a4.906 4.906 0 0 1 4.911 4.91c0 .623-.143 1.224-.354 1.772.605.406 1.273.711 1.974.962 1.973.702 4.218.209 5.873-1.012l.151-.102.051-.151c.256-1.225-.526-2.411-1.164-3.392-.747-.983-1.59-2.005-2.734-2.532-.358-.097-.631.336-.962.456-.86.56-2.082 1.048-2.987.304-1.133-1.011-1.664-2.497-2.48-3.746-.573-.989-1.384-2.297-.608-3.392.584-.81 1.573-1.12 2.329-1.67.185-.994-.175-1.99-.456-2.937-.477-1.246-1.102-2.57-2.278-3.29a1.256 1.256 0 0 0-.709-.153z" fill="#f2f2f2"/><path d="M10.799 20.061a3.327 3.327 0 1 1-6.654 0 3.327 3.327 0 1 1 6.654 0z" fill="#de2c2c" fill-opacity=".984"/></svg>