<svg xmlns="http://www.w3.org/2000/svg" width="24" height="24" version="1"><path style="marker:none" color="#bebebe" fill="none" overflow="visible" d="M25.687 27.125h-27.25V-.125h27.25z"/><path style="marker:none" color="#bebebe" fill="none" overflow="visible" d="M-1.68-4.353h27.358v27.358H-1.68z"/><path style="marker:none" color="#bebebe" fill="none" overflow="visible" d="M-1.68-18.074h27.402V9.328H-1.68z"/><path d="M4.495 1.323c-.67.074-1.285.673-1.818 1.06C1.044 3.71.327 5.874.506 7.937c.264 3.317 1.842 6.369 3.585 9.14 1.597 2.396 3.566 4.805 6.362 5.806 1.967.7 4.257.208 5.907-1.01l.101-.151.05-.152c.213-1.015-.269-1.97-.807-2.827a7.09 7.09 0 0 1-3.888-2.727c-.051.03-.099.082-.151.101-.858.558-2.076 1.046-2.98.303-1.13-1.008-1.659-2.44-2.474-3.686-.571-.985-1.33-2.29-.555-3.383.583-.808 1.519-1.116 2.272-1.666.185-.99-.174-1.984-.454-2.929-.476-1.242-1.1-2.563-2.272-3.282a1.252 1.252 0 0 0-.707-.151z" fill="#f2f2f2"/><path style="text-indent:0;text-align:start;line-height:normal;text-transform:none;block-progression:tb;marker:none;-inkscape-font-specification:Andale Mono" d="M17.712 6.213a5.636 5.636 0 0 0-5.64 5.64 5.636 5.636 0 0 0 5.64 5.641 5.636 5.636 0 0 0 5.64-5.64 5.636 5.636 0 0 0-5.64-5.64zm-2.428 3.213h.835a.837.837 0 0 1 .556.252l1.037 1.037 1.062-1.037c.215-.186.362-.247.557-.252h.81v.809c0 .232-.029.446-.203.607L18.9 11.879l1.011 1.012a.821.821 0 0 1 .228.581v.81h-.81a.821.821 0 0 1-.581-.228l-1.037-1.037-1.037 1.037a.821.821 0 0 1-.582.228h-.81v-.81c0-.214.076-.429.229-.581l1.037-1.012-1.037-1.037a.735.735 0 0 1-.228-.607v-.81z" font-weight="400" color="#bebebe" fill="#de2c2c" fill-opacity=".984" overflow="visible" font-family="Andale Mono"/></svg>