<svg xmlns="http://www.w3.org/2000/svg" width="24" height="24" version="1"><path style="marker:none" color="#bebebe" fill="none" overflow="visible" d="M25.687 27.125h-27.25V-.125h27.25z"/><path style="marker:none" color="#bebebe" fill="none" overflow="visible" d="M-1.68-4.353h27.358v27.358H-1.68z"/><path style="marker:none" color="#bebebe" fill="none" overflow="visible" d="M-1.68-18.074h27.402V9.328H-1.68z"/><path d="M16.03 21.424c.255-1.22-.51-2.363-1.146-3.34-.743-.979-1.569-1.994-2.708-2.519-.357-.097-.649.3-.978.42-.857.557-2.063 1.043-2.964.302-1.128-1.007-1.66-2.48-2.474-3.723-.57-.984-1.363-2.26-.59-3.351.582-.807 1.552-1.113 2.304-1.662.184-.989-.188-2.004-.467-2.948-.475-1.24-1.112-2.563-2.283-3.28-.953-.493-1.781.424-2.49.939C.604 3.586-.145 5.75.034 7.81c.263 3.311 1.845 6.346 3.585 9.112 1.594 2.393 3.57 4.8 6.361 5.799 1.964.699 4.228.21 5.876-1.007l.103-.139.07-.151z" fill="#f2f2f2"/><path style="text-indent:0;text-align:start;line-height:normal;text-transform:none;block-progression:tb;marker:none;-inkscape-font-specification:Bitstream Vera Sans" d="M15.758 1.313v9.165h.916c.16 0 .319-.036.458-.115l6.416-3.666c.285-.157.43-.48.43-.802 0-.322-.145-.644-.43-.801l-6.416-3.666a.912.912 0 0 0-.458-.115h-.086z" font-weight="400" color="#000" fill="#1aac36" overflow="visible" font-family="Bitstream Vera Sans"/></svg>